G04 #@! TF.GenerationSoftware,KiCad,Pcbnew,8.0.8+1*
G04 #@! TF.CreationDate,2025-02-19T14:50:03+01:00*
G04 #@! TF.ProjectId,rp2040,72703230-3430-42e6-9b69-6361645f7063,rev?*
G04 #@! TF.SameCoordinates,Original*
G04 #@! TF.FileFunction,Copper,L2,Bot*
G04 #@! TF.FilePolarity,Positive*
%FSLAX46Y46*%
G04 Gerber Fmt 4.6, Leading zero omitted, Abs format (unit mm)*
G04 Created by KiCad (PCBNEW 8.0.8+1) date 2025-02-19 14:50:03*
%MOMM*%
%LPD*%
G01*
G04 APERTURE LIST*
G04 #@! TA.AperFunction,ComponentPad*
%ADD10C,1.800000*%
G04 #@! TD*
G04 #@! TA.AperFunction,ComponentPad*
%ADD11O,1.000000X1.800000*%
G04 #@! TD*
G04 #@! TA.AperFunction,ComponentPad*
%ADD12O,1.000000X2.200000*%
G04 #@! TD*
G04 #@! TA.AperFunction,ComponentPad*
%ADD13R,1.700000X1.700000*%
G04 #@! TD*
G04 #@! TA.AperFunction,ComponentPad*
%ADD14O,1.700000X1.700000*%
G04 #@! TD*
G04 #@! TA.AperFunction,ViaPad*
%ADD15C,0.600000*%
G04 #@! TD*
G04 #@! TA.AperFunction,Conductor*
%ADD16C,0.200000*%
G04 #@! TD*
G04 APERTURE END LIST*
D10*
X144750000Y-129250000D03*
X144750000Y-122750000D03*
X149250000Y-129250000D03*
X149250000Y-122750000D03*
D11*
X147820000Y-77715000D03*
D12*
X147820000Y-73615000D03*
D11*
X136580000Y-77715000D03*
D12*
X136580000Y-73615000D03*
D10*
X134750000Y-129250000D03*
X134750000Y-122750000D03*
X139250000Y-129250000D03*
X139250000Y-122750000D03*
D13*
X129200000Y-81390000D03*
D14*
X129200000Y-83930000D03*
X129200000Y-86470000D03*
X129200000Y-89010000D03*
X129200000Y-91550000D03*
X129200000Y-94090000D03*
X129200000Y-96630000D03*
X129200000Y-99170000D03*
X129200000Y-101710000D03*
X129200000Y-104250000D03*
X129200000Y-106790000D03*
X129200000Y-109330000D03*
X129200000Y-111870000D03*
X129200000Y-114410000D03*
X129200000Y-116950000D03*
X129200000Y-119490000D03*
X129200000Y-122030000D03*
X129200000Y-124570000D03*
X129200000Y-127110000D03*
X129200000Y-129650000D03*
D13*
X155200000Y-130000000D03*
D14*
X155200000Y-127460000D03*
X155200000Y-124920000D03*
X155200000Y-122380000D03*
X155200000Y-119840000D03*
X155200000Y-117300000D03*
X155200000Y-114760000D03*
X155200000Y-112220000D03*
X155200000Y-109680000D03*
X155200000Y-107140000D03*
X155200000Y-104600000D03*
X155200000Y-102060000D03*
X155200000Y-99520000D03*
X155200000Y-96980000D03*
X155200000Y-94440000D03*
X155200000Y-91900000D03*
X155200000Y-89360000D03*
X155200000Y-86820000D03*
X155200000Y-84280000D03*
X155200000Y-81740000D03*
D15*
X142000000Y-93100000D03*
X147500000Y-101750000D03*
X148600000Y-97000000D03*
X132500000Y-83500000D03*
X137500000Y-99500000D03*
X143400000Y-113400000D03*
X138250000Y-84000000D03*
X143750000Y-89500000D03*
X147850000Y-84800000D03*
X152000000Y-119000000D03*
X136750000Y-111000000D03*
X149000000Y-89000000D03*
X140000000Y-87000000D03*
X133000000Y-114000000D03*
X139000000Y-115000000D03*
X142750000Y-116250000D03*
X149750000Y-108750000D03*
X153000000Y-110000000D03*
X147500000Y-102500000D03*
X144000000Y-105600000D03*
X146600000Y-79400000D03*
X145400000Y-116250000D03*
X140000000Y-93100000D03*
X135750000Y-91250000D03*
X138500000Y-80000000D03*
X144000000Y-116200000D03*
X148750000Y-95250000D03*
X153000000Y-115000000D03*
X140800000Y-110000000D03*
X137500000Y-102500000D03*
X149600000Y-97000000D03*
X141200000Y-101200000D03*
X133500000Y-108250000D03*
X148000000Y-117000000D03*
X145100000Y-86800000D03*
X148750000Y-103500000D03*
X141200000Y-96400000D03*
X143800000Y-99000000D03*
X132200000Y-108200000D03*
X143550000Y-93650000D03*
X135800000Y-114200000D03*
X138200000Y-116800000D03*
X145400000Y-99600000D03*
X150000000Y-120200000D03*
X148600000Y-120200000D03*
X142600000Y-95400000D03*
X134000000Y-111000000D03*
X142600000Y-97500000D03*
X143800000Y-95000000D03*
X146000000Y-113200000D03*
X136200000Y-103000000D03*
X133800000Y-107000000D03*
X143800000Y-97200000D03*
X144800000Y-113200000D03*
X140700000Y-105300000D03*
X141800000Y-109800000D03*
X145000000Y-82400000D03*
X143250000Y-109650000D03*
X148600000Y-109600000D03*
X145400000Y-83800000D03*
X149800000Y-101400000D03*
X152600000Y-105800000D03*
X141600000Y-85100000D03*
X144600000Y-110000000D03*
X148250000Y-90250000D03*
X153250000Y-105250000D03*
X143500000Y-85200000D03*
X150500000Y-101000000D03*
X146750000Y-91500000D03*
X140400000Y-84000000D03*
X142300000Y-84400000D03*
X149200000Y-110400000D03*
X136400000Y-113400000D03*
X138590000Y-110800000D03*
X139750000Y-110000000D03*
X138200000Y-115400000D03*
X145900000Y-80100000D03*
X139800000Y-80400000D03*
X145500000Y-103700000D03*
X144200000Y-82400000D03*
X144000000Y-102700000D03*
X146200000Y-82200000D03*
X145000000Y-100600000D03*
X143200000Y-99900000D03*
X143595368Y-81824421D03*
X142400000Y-81400000D03*
X144000000Y-81000000D03*
X147000000Y-81500000D03*
D16*
X143800000Y-95000000D02*
X143800000Y-93900000D01*
X134000000Y-111000000D02*
X134000000Y-110800000D01*
X144400000Y-99600000D02*
X143800000Y-99000000D01*
X136200000Y-103000000D02*
X136200000Y-104600000D01*
X148600000Y-120200000D02*
X150000000Y-120200000D01*
X144800000Y-113200000D02*
X146000000Y-113200000D01*
X145400000Y-99600000D02*
X144400000Y-99600000D01*
X134000000Y-110800000D02*
X132200000Y-109000000D01*
X141200000Y-96400000D02*
X142200000Y-95400000D01*
X138200000Y-116800000D02*
X135800000Y-114400000D01*
X142600000Y-97500000D02*
X143500000Y-97500000D01*
X135800000Y-114400000D02*
X135800000Y-114200000D01*
X143500000Y-97500000D02*
X143800000Y-97200000D01*
X136200000Y-104600000D02*
X133800000Y-107000000D01*
X143800000Y-93900000D02*
X143550000Y-93650000D01*
X142200000Y-95400000D02*
X142600000Y-95400000D01*
X132200000Y-109000000D02*
X132200000Y-108200000D01*
X141800000Y-109800000D02*
X140700000Y-108700000D01*
X140700000Y-108700000D02*
X140700000Y-105300000D01*
X152600000Y-104400000D02*
X152600000Y-105800000D01*
X143250000Y-109650000D02*
X143900000Y-109000000D01*
X143900000Y-109000000D02*
X148000000Y-109000000D01*
X149800000Y-101600000D02*
X152600000Y-104400000D01*
X149800000Y-101400000D02*
X149800000Y-101600000D01*
X145400000Y-83800000D02*
X145400000Y-82800000D01*
X148000000Y-109000000D02*
X148600000Y-109600000D01*
X145400000Y-82800000D02*
X145000000Y-82400000D01*
X148250000Y-90250000D02*
X147000000Y-91500000D01*
X140500000Y-84000000D02*
X140400000Y-84000000D01*
X148400000Y-110400000D02*
X149200000Y-110400000D01*
X141600000Y-85100000D02*
X140500000Y-84000000D01*
X153250000Y-105250000D02*
X153250000Y-104450000D01*
X147000000Y-91500000D02*
X146750000Y-91500000D01*
X144600000Y-110000000D02*
X145200000Y-109400000D01*
X143100000Y-85200000D02*
X143500000Y-85200000D01*
X153250000Y-104450000D02*
X150500000Y-101700000D01*
X147400000Y-109400000D02*
X148400000Y-110400000D01*
X150500000Y-101700000D02*
X150500000Y-101000000D01*
X142300000Y-84400000D02*
X143100000Y-85200000D01*
X145200000Y-109400000D02*
X147400000Y-109400000D01*
X138200000Y-115400000D02*
X136400000Y-113600000D01*
X138590000Y-110800000D02*
X138950000Y-110800000D01*
X138950000Y-110800000D02*
X139750000Y-110000000D01*
X136400000Y-113600000D02*
X136400000Y-113400000D01*
X140400000Y-79800000D02*
X139800000Y-80400000D01*
X145900000Y-80100000D02*
X145600000Y-79800000D01*
X145600000Y-79800000D02*
X140400000Y-79800000D01*
X144000000Y-102700000D02*
X144500000Y-102700000D01*
X146200000Y-82200000D02*
X146400000Y-82200000D01*
X146000000Y-82200000D02*
X146200000Y-82200000D01*
X145600000Y-81800000D02*
X146000000Y-82200000D01*
X144200000Y-82400000D02*
X144200000Y-82200000D01*
X144500000Y-102700000D02*
X145500000Y-103700000D01*
X144200000Y-82200000D02*
X144600000Y-81800000D01*
X144600000Y-81800000D02*
X145600000Y-81800000D01*
X144600000Y-100200000D02*
X143500000Y-100200000D01*
X145000000Y-100600000D02*
X144600000Y-100200000D01*
X143500000Y-100200000D02*
X143200000Y-99900000D01*
X142824421Y-81824421D02*
X142400000Y-81400000D01*
X143595368Y-81824421D02*
X142824421Y-81824421D01*
X145600000Y-81200000D02*
X145900000Y-81500000D01*
X144200000Y-81200000D02*
X145600000Y-81200000D01*
X145900000Y-81500000D02*
X147000000Y-81500000D01*
X144000000Y-81000000D02*
X144200000Y-81200000D01*
G04 #@! TA.AperFunction,Conductor*
G36*
X129450000Y-106356988D02*
G01*
X129392993Y-106324075D01*
X129265826Y-106290000D01*
X129134174Y-106290000D01*
X129007007Y-106324075D01*
X128950000Y-106356988D01*
X128950000Y-104683012D01*
X129007007Y-104715925D01*
X129134174Y-104750000D01*
X129265826Y-104750000D01*
X129392993Y-104715925D01*
X129450000Y-104683012D01*
X129450000Y-106356988D01*
G37*
G04 #@! TD.AperFunction*
G04 #@! TA.AperFunction,Conductor*
G36*
X137422539Y-71635185D02*
G01*
X137468294Y-71687989D01*
X137479500Y-71739500D01*
X137479500Y-72200216D01*
X137459815Y-72267255D01*
X137407011Y-72313010D01*
X137337853Y-72322954D01*
X137274297Y-72293929D01*
X137267819Y-72287897D01*
X137217785Y-72237863D01*
X137217781Y-72237860D01*
X137053920Y-72128371D01*
X137053907Y-72128364D01*
X136871839Y-72052950D01*
X136871829Y-72052947D01*
X136678543Y-72014500D01*
X136678541Y-72014500D01*
X136481459Y-72014500D01*
X136481457Y-72014500D01*
X136288170Y-72052947D01*
X136288160Y-72052950D01*
X136106092Y-72128364D01*
X136106079Y-72128371D01*
X135942218Y-72237860D01*
X135942214Y-72237863D01*
X135802863Y-72377214D01*
X135802860Y-72377218D01*
X135693371Y-72541079D01*
X135693364Y-72541092D01*
X135617950Y-72723160D01*
X135617947Y-72723170D01*
X135579500Y-72916456D01*
X135579500Y-72916459D01*
X135579500Y-74313541D01*
X135579500Y-74313543D01*
X135579499Y-74313543D01*
X135617947Y-74506829D01*
X135617950Y-74506839D01*
X135693364Y-74688907D01*
X135693371Y-74688920D01*
X135802860Y-74852781D01*
X135802863Y-74852785D01*
X135942214Y-74992136D01*
X135942218Y-74992139D01*
X136106079Y-75101628D01*
X136106092Y-75101635D01*
X136288160Y-75177049D01*
X136288165Y-75177051D01*
X136288169Y-75177051D01*
X136288170Y-75177052D01*
X136481456Y-75215500D01*
X136481459Y-75215500D01*
X136678543Y-75215500D01*
X136808582Y-75189632D01*
X136871835Y-75177051D01*
X137053914Y-75101632D01*
X137217782Y-74992139D01*
X137217785Y-74992136D01*
X137267819Y-74942103D01*
X137329142Y-74908618D01*
X137398834Y-74913602D01*
X137454767Y-74955474D01*
X137479184Y-75020938D01*
X137479500Y-75029784D01*
X137479500Y-76500216D01*
X137459815Y-76567255D01*
X137407011Y-76613010D01*
X137337853Y-76622954D01*
X137274297Y-76593929D01*
X137267819Y-76587897D01*
X137217785Y-76537863D01*
X137217781Y-76537860D01*
X137053920Y-76428371D01*
X137053907Y-76428364D01*
X136871839Y-76352950D01*
X136871829Y-76352947D01*
X136678543Y-76314500D01*
X136678541Y-76314500D01*
X136481459Y-76314500D01*
X136481457Y-76314500D01*
X136288170Y-76352947D01*
X136288160Y-76352950D01*
X136106092Y-76428364D01*
X136106079Y-76428371D01*
X135942218Y-76537860D01*
X135942214Y-76537863D01*
X135802863Y-76677214D01*
X135802860Y-76677218D01*
X135693371Y-76841079D01*
X135693364Y-76841092D01*
X135617950Y-77023160D01*
X135617947Y-77023170D01*
X135579500Y-77216456D01*
X135579500Y-77216459D01*
X135579500Y-78213541D01*
X135579500Y-78213543D01*
X135579499Y-78213543D01*
X135617947Y-78406829D01*
X135617950Y-78406839D01*
X135693364Y-78588907D01*
X135693371Y-78588920D01*
X135802860Y-78752781D01*
X135802863Y-78752785D01*
X135942214Y-78892136D01*
X135942218Y-78892139D01*
X136106079Y-79001628D01*
X136106092Y-79001635D01*
X136288160Y-79077049D01*
X136288165Y-79077051D01*
X136288169Y-79077051D01*
X136288170Y-79077052D01*
X136481456Y-79115500D01*
X136481459Y-79115500D01*
X136678543Y-79115500D01*
X136808582Y-79089632D01*
X136871835Y-79077051D01*
X137053914Y-79001632D01*
X137217782Y-78892139D01*
X137357139Y-78752782D01*
X137454575Y-78606958D01*
X137508184Y-78562156D01*
X137577509Y-78553448D01*
X137640537Y-78583602D01*
X137645356Y-78588170D01*
X137672686Y-78615500D01*
X137786814Y-78681392D01*
X137914108Y-78715500D01*
X137914110Y-78715500D01*
X138045890Y-78715500D01*
X138045892Y-78715500D01*
X138173186Y-78681392D01*
X138287314Y-78615500D01*
X138380500Y-78522314D01*
X138446392Y-78408186D01*
X138446599Y-78407410D01*
X138446953Y-78406830D01*
X138449500Y-78400682D01*
X138450458Y-78401079D01*
X138482961Y-78347750D01*
X138545807Y-78317218D01*
X138566375Y-78315500D01*
X145833625Y-78315500D01*
X145900664Y-78335185D01*
X145946419Y-78387989D01*
X145953401Y-78407412D01*
X145953608Y-78408187D01*
X145969843Y-78436306D01*
X146019500Y-78522314D01*
X146112686Y-78615500D01*
X146226814Y-78681392D01*
X146354108Y-78715500D01*
X146354110Y-78715500D01*
X146485890Y-78715500D01*
X146485892Y-78715500D01*
X146613186Y-78681392D01*
X146727314Y-78615500D01*
X146754644Y-78588169D01*
X146815963Y-78554686D01*
X146885655Y-78559670D01*
X146941589Y-78601540D01*
X146945425Y-78606961D01*
X147042860Y-78752781D01*
X147042863Y-78752785D01*
X147182214Y-78892136D01*
X147182218Y-78892139D01*
X147346079Y-79001628D01*
X147346092Y-79001635D01*
X147528160Y-79077049D01*
X147528165Y-79077051D01*
X147528169Y-79077051D01*
X147528170Y-79077052D01*
X147721456Y-79115500D01*
X147721459Y-79115500D01*
X147918543Y-79115500D01*
X148048582Y-79089632D01*
X148111835Y-79077051D01*
X148293914Y-79001632D01*
X148457782Y-78892139D01*
X148597139Y-78752782D01*
X148706632Y-78588914D01*
X148782051Y-78406835D01*
X148820500Y-78213541D01*
X148820500Y-77216459D01*
X148820500Y-77216456D01*
X148782052Y-77023170D01*
X148782051Y-77023169D01*
X148782051Y-77023165D01*
X148719500Y-76872152D01*
X148706635Y-76841092D01*
X148706628Y-76841079D01*
X148597139Y-76677218D01*
X148597136Y-76677214D01*
X148457785Y-76537863D01*
X148457781Y-76537860D01*
X148293920Y-76428371D01*
X148293907Y-76428364D01*
X148111839Y-76352950D01*
X148111829Y-76352947D01*
X147918543Y-76314500D01*
X147918541Y-76314500D01*
X147721459Y-76314500D01*
X147721457Y-76314500D01*
X147528170Y-76352947D01*
X147528160Y-76352950D01*
X147346092Y-76428364D01*
X147346079Y-76428371D01*
X147182218Y-76537860D01*
X147182214Y-76537863D01*
X147132181Y-76587897D01*
X147070858Y-76621382D01*
X147001166Y-76616398D01*
X146945233Y-76574526D01*
X146920816Y-76509062D01*
X146920500Y-76500216D01*
X146920500Y-75029784D01*
X146940185Y-74962745D01*
X146992989Y-74916990D01*
X147062147Y-74907046D01*
X147125703Y-74936071D01*
X147132181Y-74942103D01*
X147182214Y-74992136D01*
X147182218Y-74992139D01*
X147346079Y-75101628D01*
X147346092Y-75101635D01*
X147528160Y-75177049D01*
X147528165Y-75177051D01*
X147528169Y-75177051D01*
X147528170Y-75177052D01*
X147721456Y-75215500D01*
X147721459Y-75215500D01*
X147918543Y-75215500D01*
X148048582Y-75189632D01*
X148111835Y-75177051D01*
X148293914Y-75101632D01*
X148457782Y-74992139D01*
X148597139Y-74852782D01*
X148706632Y-74688914D01*
X148782051Y-74506835D01*
X148820500Y-74313541D01*
X148820500Y-72916459D01*
X148820500Y-72916456D01*
X148782052Y-72723170D01*
X148782051Y-72723169D01*
X148782051Y-72723165D01*
X148719500Y-72572152D01*
X148706635Y-72541092D01*
X148706628Y-72541079D01*
X148597139Y-72377218D01*
X148597136Y-72377214D01*
X148457785Y-72237863D01*
X148457781Y-72237860D01*
X148293920Y-72128371D01*
X148293907Y-72128364D01*
X148111839Y-72052950D01*
X148111829Y-72052947D01*
X147918543Y-72014500D01*
X147918541Y-72014500D01*
X147721459Y-72014500D01*
X147721457Y-72014500D01*
X147528170Y-72052947D01*
X147528160Y-72052950D01*
X147346092Y-72128364D01*
X147346079Y-72128371D01*
X147182218Y-72237860D01*
X147182214Y-72237863D01*
X147132181Y-72287897D01*
X147070858Y-72321382D01*
X147001166Y-72316398D01*
X146945233Y-72274526D01*
X146920816Y-72209062D01*
X146920500Y-72200216D01*
X146920500Y-71739500D01*
X146940185Y-71672461D01*
X146992989Y-71626706D01*
X147044500Y-71615500D01*
X156975500Y-71615500D01*
X157042539Y-71635185D01*
X157088294Y-71687989D01*
X157099500Y-71739500D01*
X157099500Y-131290500D01*
X157079815Y-131357539D01*
X157027011Y-131403294D01*
X156975500Y-131414500D01*
X156499240Y-131414500D01*
X156432201Y-131394815D01*
X156386446Y-131342011D01*
X156376502Y-131272853D01*
X156402897Y-131215053D01*
X156401875Y-131214288D01*
X156405395Y-131209585D01*
X156405527Y-131209297D01*
X156405956Y-131208835D01*
X156493350Y-131092093D01*
X156493354Y-131092086D01*
X156543596Y-130957379D01*
X156543598Y-130957372D01*
X156549999Y-130897844D01*
X156550000Y-130897827D01*
X156550000Y-130250000D01*
X155633012Y-130250000D01*
X155665925Y-130192993D01*
X155700000Y-130065826D01*
X155700000Y-129934174D01*
X155665925Y-129807007D01*
X155633012Y-129750000D01*
X156550000Y-129750000D01*
X156550000Y-129102172D01*
X156549999Y-129102155D01*
X156543598Y-129042627D01*
X156543596Y-129042620D01*
X156493354Y-128907913D01*
X156493350Y-128907906D01*
X156407190Y-128792812D01*
X156407187Y-128792809D01*
X156292093Y-128706649D01*
X156292088Y-128706646D01*
X156160528Y-128657577D01*
X156104595Y-128615705D01*
X156080178Y-128550241D01*
X156095030Y-128481968D01*
X156116175Y-128453720D01*
X156238495Y-128331401D01*
X156374035Y-128137830D01*
X156473903Y-127923663D01*
X156535063Y-127695408D01*
X156555659Y-127460000D01*
X156535063Y-127224592D01*
X156473903Y-126996337D01*
X156374035Y-126782171D01*
X156278929Y-126646344D01*
X156238494Y-126588597D01*
X156071402Y-126421506D01*
X156071396Y-126421501D01*
X155885842Y-126291575D01*
X155842217Y-126236998D01*
X155835023Y-126167500D01*
X155866546Y-126105145D01*
X155885842Y-126088425D01*
X155910012Y-126071501D01*
X156071401Y-125958495D01*
X156238495Y-125791401D01*
X156374035Y-125597830D01*
X156473903Y-125383663D01*
X156535063Y-125155408D01*
X156555659Y-124920000D01*
X156535063Y-124684592D01*
X156473903Y-124456337D01*
X156374035Y-124242171D01*
X156309497Y-124150000D01*
X156238494Y-124048597D01*
X156071402Y-123881506D01*
X156071396Y-123881501D01*
X155885842Y-123751575D01*
X155842217Y-123696998D01*
X155835023Y-123627500D01*
X155866546Y-123565145D01*
X155885842Y-123548425D01*
X156070895Y-123418849D01*
X156071401Y-123418495D01*
X156238495Y-123251401D01*
X156374035Y-123057830D01*
X156473903Y-122843663D01*
X156535063Y-122615408D01*
X156555659Y-122380000D01*
X156535063Y-122144592D01*
X156473903Y-121916337D01*
X156374035Y-121702171D01*
X156300846Y-121597645D01*
X156238494Y-121508597D01*
X156071402Y-121341506D01*
X156071396Y-121341501D01*
X155885842Y-121211575D01*
X155842217Y-121156998D01*
X155835023Y-121087500D01*
X155866546Y-121025145D01*
X155885842Y-121008425D01*
X156003858Y-120925789D01*
X156071401Y-120878495D01*
X156238495Y-120711401D01*
X156374035Y-120517830D01*
X156473903Y-120303663D01*
X156535063Y-120075408D01*
X156555659Y-119840000D01*
X156535063Y-119604592D01*
X156473903Y-119376337D01*
X156374035Y-119162171D01*
X156278929Y-119026344D01*
X156238494Y-118968597D01*
X156071402Y-118801506D01*
X156071396Y-118801501D01*
X155885842Y-118671575D01*
X155842217Y-118616998D01*
X155835023Y-118547500D01*
X155866546Y-118485145D01*
X155885842Y-118468425D01*
X155910012Y-118451501D01*
X156071401Y-118338495D01*
X156238495Y-118171401D01*
X156374035Y-117977830D01*
X156473903Y-117763663D01*
X156535063Y-117535408D01*
X156555659Y-117300000D01*
X156535063Y-117064592D01*
X156473903Y-116836337D01*
X156374035Y-116622171D01*
X156278929Y-116486344D01*
X156238494Y-116428597D01*
X156071402Y-116261506D01*
X156071396Y-116261501D01*
X155885842Y-116131575D01*
X155842217Y-116076998D01*
X155835023Y-116007500D01*
X155866546Y-115945145D01*
X155885842Y-115928425D01*
X155910012Y-115911501D01*
X156071401Y-115798495D01*
X156238495Y-115631401D01*
X156374035Y-115437830D01*
X156473903Y-115223663D01*
X156535063Y-114995408D01*
X156555659Y-114760000D01*
X156535063Y-114524592D01*
X156473903Y-114296337D01*
X156374035Y-114082171D01*
X156331025Y-114020745D01*
X156238494Y-113888597D01*
X156071402Y-113721506D01*
X156071396Y-113721501D01*
X155885842Y-113591575D01*
X155842217Y-113536998D01*
X155835023Y-113467500D01*
X155866546Y-113405145D01*
X155885842Y-113388425D01*
X155944444Y-113347391D01*
X156071401Y-113258495D01*
X156238495Y-113091401D01*
X156374035Y-112897830D01*
X156473903Y-112683663D01*
X156535063Y-112455408D01*
X156555659Y-112220000D01*
X156535063Y-111984592D01*
X156473903Y-111756337D01*
X156374035Y-111542171D01*
X156362565Y-111525789D01*
X156238494Y-111348597D01*
X156071402Y-111181506D01*
X156071396Y-111181501D01*
X155885842Y-111051575D01*
X155842217Y-110996998D01*
X155835023Y-110927500D01*
X155866546Y-110865145D01*
X155885842Y-110848425D01*
X155954973Y-110800019D01*
X156071401Y-110718495D01*
X156238495Y-110551401D01*
X156374035Y-110357830D01*
X156473903Y-110143663D01*
X156535063Y-109915408D01*
X156555659Y-109680000D01*
X156555152Y-109674210D01*
X156542885Y-109534001D01*
X156535063Y-109444592D01*
X156488270Y-109269955D01*
X156473905Y-109216344D01*
X156473904Y-109216343D01*
X156473903Y-109216337D01*
X156374035Y-109002171D01*
X156356950Y-108977770D01*
X156238494Y-108808597D01*
X156071402Y-108641506D01*
X156071401Y-108641505D01*
X155885405Y-108511269D01*
X155841781Y-108456692D01*
X155834588Y-108387193D01*
X155866110Y-108324839D01*
X155885405Y-108308119D01*
X156071082Y-108178105D01*
X156238105Y-108011082D01*
X156373600Y-107817578D01*
X156473429Y-107603492D01*
X156473432Y-107603486D01*
X156530636Y-107390000D01*
X155633012Y-107390000D01*
X155665925Y-107332993D01*
X155700000Y-107205826D01*
X155700000Y-107074174D01*
X155665925Y-106947007D01*
X155633012Y-106890000D01*
X156530636Y-106890000D01*
X156530635Y-106889999D01*
X156473432Y-106676513D01*
X156473429Y-106676507D01*
X156373600Y-106462422D01*
X156373599Y-106462420D01*
X156238113Y-106268926D01*
X156238108Y-106268920D01*
X156071082Y-106101894D01*
X155884968Y-105971575D01*
X155841344Y-105916998D01*
X155834151Y-105847499D01*
X155865673Y-105785145D01*
X155884968Y-105768425D01*
X156071082Y-105638105D01*
X156238105Y-105471082D01*
X156373600Y-105277578D01*
X156473429Y-105063492D01*
X156473432Y-105063486D01*
X156530636Y-104850000D01*
X155633012Y-104850000D01*
X155665925Y-104792993D01*
X155700000Y-104665826D01*
X155700000Y-104534174D01*
X155665925Y-104407007D01*
X155633012Y-104350000D01*
X156530636Y-104350000D01*
X156530635Y-104349999D01*
X156473432Y-104136513D01*
X156473429Y-104136507D01*
X156373600Y-103922422D01*
X156373599Y-103922420D01*
X156238113Y-103728926D01*
X156238108Y-103728920D01*
X156071078Y-103561890D01*
X155885405Y-103431879D01*
X155841780Y-103377302D01*
X155834588Y-103307804D01*
X155866110Y-103245449D01*
X155885406Y-103228730D01*
X155909456Y-103211890D01*
X156071401Y-103098495D01*
X156238495Y-102931401D01*
X156374035Y-102737830D01*
X156473903Y-102523663D01*
X156535063Y-102295408D01*
X156555659Y-102060000D01*
X156535063Y-101824592D01*
X156473903Y-101596337D01*
X156374035Y-101382171D01*
X156351177Y-101349525D01*
X156238494Y-101188597D01*
X156071402Y-101021506D01*
X156071396Y-101021501D01*
X155885842Y-100891575D01*
X155842217Y-100836998D01*
X155835023Y-100767500D01*
X155866546Y-100705145D01*
X155885842Y-100688425D01*
X155975295Y-100625789D01*
X156071401Y-100558495D01*
X156238495Y-100391401D01*
X156374035Y-100197830D01*
X156473903Y-99983663D01*
X156535063Y-99755408D01*
X156555659Y-99520000D01*
X156535063Y-99284592D01*
X156473903Y-99056337D01*
X156374035Y-98842171D01*
X156359033Y-98820745D01*
X156238494Y-98648597D01*
X156071402Y-98481506D01*
X156071396Y-98481501D01*
X155885842Y-98351575D01*
X155842217Y-98296998D01*
X155835023Y-98227500D01*
X155866546Y-98165145D01*
X155885842Y-98148425D01*
X155938766Y-98111367D01*
X156071401Y-98018495D01*
X156238495Y-97851401D01*
X156374035Y-97657830D01*
X156473903Y-97443663D01*
X156535063Y-97215408D01*
X156555659Y-96980000D01*
X156535063Y-96744592D01*
X156473903Y-96516337D01*
X156374035Y-96302171D01*
X156317021Y-96220745D01*
X156238494Y-96108597D01*
X156071402Y-95941506D01*
X156071396Y-95941501D01*
X155885842Y-95811575D01*
X155842217Y-95756998D01*
X155835023Y-95687500D01*
X155866546Y-95625145D01*
X155885842Y-95608425D01*
X156037458Y-95502262D01*
X156071401Y-95478495D01*
X156238495Y-95311401D01*
X156374035Y-95117830D01*
X156473903Y-94903663D01*
X156535063Y-94675408D01*
X156555659Y-94440000D01*
X156535063Y-94204592D01*
X156473903Y-93976337D01*
X156374035Y-93762171D01*
X156345669Y-93721659D01*
X156238494Y-93568597D01*
X156071402Y-93401506D01*
X156071396Y-93401501D01*
X155885842Y-93271575D01*
X155842217Y-93216998D01*
X155835023Y-93147500D01*
X155866546Y-93085145D01*
X155885842Y-93068425D01*
X156008037Y-92982863D01*
X156071401Y-92938495D01*
X156238495Y-92771401D01*
X156374035Y-92577830D01*
X156473903Y-92363663D01*
X156535063Y-92135408D01*
X156555659Y-91900000D01*
X156535063Y-91664592D01*
X156473903Y-91436337D01*
X156374035Y-91222171D01*
X156323836Y-91150478D01*
X156238494Y-91028597D01*
X156071402Y-90861506D01*
X156071396Y-90861501D01*
X155885842Y-90731575D01*
X155842217Y-90676998D01*
X155835023Y-90607500D01*
X155866546Y-90545145D01*
X155885842Y-90528425D01*
X156027471Y-90429255D01*
X156071401Y-90398495D01*
X156238495Y-90231401D01*
X156374035Y-90037830D01*
X156473903Y-89823663D01*
X156535063Y-89595408D01*
X156555659Y-89360000D01*
X156535063Y-89124592D01*
X156473903Y-88896337D01*
X156374035Y-88682171D01*
X156278929Y-88546344D01*
X156238494Y-88488597D01*
X156071402Y-88321506D01*
X156071396Y-88321501D01*
X155885842Y-88191575D01*
X155842217Y-88136998D01*
X155835023Y-88067500D01*
X155866546Y-88005145D01*
X155885842Y-87988425D01*
X155910012Y-87971501D01*
X156071401Y-87858495D01*
X156238495Y-87691401D01*
X156374035Y-87497830D01*
X156473903Y-87283663D01*
X156535063Y-87055408D01*
X156555659Y-86820000D01*
X156535063Y-86584592D01*
X156473903Y-86356337D01*
X156374035Y-86142171D01*
X156278929Y-86006344D01*
X156238494Y-85948597D01*
X156071402Y-85781506D01*
X156071396Y-85781501D01*
X155885842Y-85651575D01*
X155842217Y-85596998D01*
X155835023Y-85527500D01*
X155866546Y-85465145D01*
X155885842Y-85448425D01*
X155930613Y-85417076D01*
X156071401Y-85318495D01*
X156238495Y-85151401D01*
X156374035Y-84957830D01*
X156473903Y-84743663D01*
X156535063Y-84515408D01*
X156555659Y-84280000D01*
X156535063Y-84044592D01*
X156479731Y-83838086D01*
X156473905Y-83816344D01*
X156473904Y-83816343D01*
X156473903Y-83816337D01*
X156374035Y-83602171D01*
X156368619Y-83594435D01*
X156238494Y-83408597D01*
X156071402Y-83241506D01*
X156071401Y-83241505D01*
X155885405Y-83111269D01*
X155841781Y-83056692D01*
X155834588Y-82987193D01*
X155866110Y-82924839D01*
X155885405Y-82908119D01*
X156071082Y-82778105D01*
X156238105Y-82611082D01*
X156373600Y-82417578D01*
X156473429Y-82203492D01*
X156473432Y-82203486D01*
X156530636Y-81990000D01*
X155633012Y-81990000D01*
X155665925Y-81932993D01*
X155700000Y-81805826D01*
X155700000Y-81674174D01*
X155665925Y-81547007D01*
X155633012Y-81490000D01*
X156530636Y-81490000D01*
X156530635Y-81489999D01*
X156473432Y-81276513D01*
X156473429Y-81276507D01*
X156373600Y-81062422D01*
X156373599Y-81062420D01*
X156238113Y-80868926D01*
X156238108Y-80868920D01*
X156071082Y-80701894D01*
X155877578Y-80566399D01*
X155663492Y-80466570D01*
X155663486Y-80466567D01*
X155450000Y-80409364D01*
X155450000Y-81306988D01*
X155392993Y-81274075D01*
X155265826Y-81240000D01*
X155134174Y-81240000D01*
X155007007Y-81274075D01*
X154950000Y-81306988D01*
X154950000Y-80409364D01*
X154949999Y-80409364D01*
X154736513Y-80466567D01*
X154736507Y-80466570D01*
X154522422Y-80566399D01*
X154522420Y-80566400D01*
X154328926Y-80701886D01*
X154328920Y-80701891D01*
X154161891Y-80868920D01*
X154161886Y-80868926D01*
X154026400Y-81062420D01*
X154026399Y-81062422D01*
X153926570Y-81276507D01*
X153926567Y-81276513D01*
X153869364Y-81489999D01*
X153869364Y-81490000D01*
X154766988Y-81490000D01*
X154734075Y-81547007D01*
X154700000Y-81674174D01*
X154700000Y-81805826D01*
X154734075Y-81932993D01*
X154766988Y-81990000D01*
X153869364Y-81990000D01*
X153926567Y-82203486D01*
X153926570Y-82203492D01*
X154026399Y-82417578D01*
X154161894Y-82611082D01*
X154328917Y-82778105D01*
X154514595Y-82908119D01*
X154558219Y-82962696D01*
X154565412Y-83032195D01*
X154533890Y-83094549D01*
X154514595Y-83111269D01*
X154328594Y-83241508D01*
X154161505Y-83408597D01*
X154025965Y-83602169D01*
X154025964Y-83602171D01*
X153926098Y-83816335D01*
X153926094Y-83816344D01*
X153864938Y-84044586D01*
X153864936Y-84044596D01*
X153844341Y-84279999D01*
X153844341Y-84280000D01*
X153864936Y-84515403D01*
X153864938Y-84515413D01*
X153926094Y-84743655D01*
X153926096Y-84743659D01*
X153926097Y-84743663D01*
X153975905Y-84850476D01*
X154025965Y-84957830D01*
X154025967Y-84957834D01*
X154070022Y-85020750D01*
X154159974Y-85149215D01*
X154161501Y-85151395D01*
X154161506Y-85151402D01*
X154328597Y-85318493D01*
X154328603Y-85318498D01*
X154514158Y-85448425D01*
X154557783Y-85503002D01*
X154564977Y-85572500D01*
X154533454Y-85634855D01*
X154514158Y-85651575D01*
X154328597Y-85781505D01*
X154161505Y-85948597D01*
X154025965Y-86142169D01*
X154025964Y-86142171D01*
X153926098Y-86356335D01*
X153926094Y-86356344D01*
X153864938Y-86584586D01*
X153864936Y-86584596D01*
X153844341Y-86819999D01*
X153844341Y-86820000D01*
X153864936Y-87055403D01*
X153864938Y-87055413D01*
X153926094Y-87283655D01*
X153926096Y-87283659D01*
X153926097Y-87283663D01*
X154025965Y-87497830D01*
X154025967Y-87497834D01*
X154161501Y-87691395D01*
X154161506Y-87691402D01*
X154328597Y-87858493D01*
X154328603Y-87858498D01*
X154514158Y-87988425D01*
X154557783Y-88043002D01*
X154564977Y-88112500D01*
X154533454Y-88174855D01*
X154514158Y-88191575D01*
X154328597Y-88321505D01*
X154161505Y-88488597D01*
X154025965Y-88682169D01*
X154025964Y-88682171D01*
X153926098Y-88896335D01*
X153926094Y-88896344D01*
X153864938Y-89124586D01*
X153864936Y-89124596D01*
X153844341Y-89359999D01*
X153844341Y-89360000D01*
X153864936Y-89595403D01*
X153864938Y-89595413D01*
X153926094Y-89823655D01*
X153926096Y-89823659D01*
X153926097Y-89823663D01*
X153961916Y-89900476D01*
X154025965Y-90037830D01*
X154025967Y-90037834D01*
X154161501Y-90231395D01*
X154161506Y-90231402D01*
X154328597Y-90398493D01*
X154328603Y-90398498D01*
X154514158Y-90528425D01*
X154557783Y-90583002D01*
X154564977Y-90652500D01*
X154533454Y-90714855D01*
X154514158Y-90731575D01*
X154328597Y-90861505D01*
X154161505Y-91028597D01*
X154025965Y-91222169D01*
X154025964Y-91222171D01*
X153926098Y-91436335D01*
X153926094Y-91436344D01*
X153864938Y-91664586D01*
X153864936Y-91664596D01*
X153844341Y-91899999D01*
X153844341Y-91900000D01*
X153864936Y-92135403D01*
X153864938Y-92135413D01*
X153926094Y-92363655D01*
X153926096Y-92363659D01*
X153926097Y-92363663D01*
X153972148Y-92462419D01*
X154025965Y-92577830D01*
X154025967Y-92577834D01*
X154161501Y-92771395D01*
X154161506Y-92771402D01*
X154328597Y-92938493D01*
X154328603Y-92938498D01*
X154514158Y-93068425D01*
X154557783Y-93123002D01*
X154564977Y-93192500D01*
X154533454Y-93254855D01*
X154514158Y-93271575D01*
X154328597Y-93401505D01*
X154161505Y-93568597D01*
X154025965Y-93762169D01*
X154025964Y-93762171D01*
X153926098Y-93976335D01*
X153926094Y-93976344D01*
X153864938Y-94204586D01*
X153864936Y-94204596D01*
X153844341Y-94439999D01*
X153844341Y-94440000D01*
X153864936Y-94675403D01*
X153864938Y-94675413D01*
X153926094Y-94903655D01*
X153926096Y-94903659D01*
X153926097Y-94903663D01*
X154025965Y-95117830D01*
X154025967Y-95117834D01*
X154161501Y-95311395D01*
X154161506Y-95311402D01*
X154328597Y-95478493D01*
X154328603Y-95478498D01*
X154514158Y-95608425D01*
X154557783Y-95663002D01*
X154564977Y-95732500D01*
X154533454Y-95794855D01*
X154514158Y-95811575D01*
X154328597Y-95941505D01*
X154161505Y-96108597D01*
X154025965Y-96302169D01*
X154025964Y-96302171D01*
X153926098Y-96516335D01*
X153926094Y-96516344D01*
X153864938Y-96744586D01*
X153864936Y-96744596D01*
X153844341Y-96979999D01*
X153844341Y-96980000D01*
X153864936Y-97215403D01*
X153864938Y-97215413D01*
X153926094Y-97443655D01*
X153926096Y-97443659D01*
X153926097Y-97443663D01*
X154025965Y-97657830D01*
X154025967Y-97657834D01*
X154124411Y-97798425D01*
X154160189Y-97849522D01*
X154161501Y-97851395D01*
X154161506Y-97851402D01*
X154328597Y-98018493D01*
X154328603Y-98018498D01*
X154514158Y-98148425D01*
X154557783Y-98203002D01*
X154564977Y-98272500D01*
X154533454Y-98334855D01*
X154514158Y-98351575D01*
X154328597Y-98481505D01*
X154161505Y-98648597D01*
X154025965Y-98842169D01*
X154025964Y-98842171D01*
X153926098Y-99056335D01*
X153926094Y-99056344D01*
X153864938Y-99284586D01*
X153864936Y-99284596D01*
X153844341Y-99519999D01*
X153844341Y-99520000D01*
X153864936Y-99755403D01*
X153864938Y-99755413D01*
X153926094Y-99983655D01*
X153926096Y-99983659D01*
X153926097Y-99983663D01*
X153981401Y-100102262D01*
X154025965Y-100197830D01*
X154025967Y-100197834D01*
X154161501Y-100391395D01*
X154161506Y-100391402D01*
X154328597Y-100558493D01*
X154328603Y-100558498D01*
X154514158Y-100688425D01*
X154557783Y-100743002D01*
X154564977Y-100812500D01*
X154533454Y-100874855D01*
X154514158Y-100891575D01*
X154328597Y-101021505D01*
X154161505Y-101188597D01*
X154025965Y-101382169D01*
X154025964Y-101382171D01*
X153926098Y-101596335D01*
X153926094Y-101596344D01*
X153864938Y-101824586D01*
X153864936Y-101824596D01*
X153844341Y-102059999D01*
X153844341Y-102060000D01*
X153864936Y-102295403D01*
X153864938Y-102295413D01*
X153926094Y-102523655D01*
X153926096Y-102523659D01*
X153926097Y-102523663D01*
X153985231Y-102650476D01*
X154025965Y-102737830D01*
X154025967Y-102737834D01*
X154084026Y-102820750D01*
X154161505Y-102931401D01*
X154328599Y-103098495D01*
X154476793Y-103202262D01*
X154514594Y-103228730D01*
X154558219Y-103283307D01*
X154565413Y-103352805D01*
X154533890Y-103415160D01*
X154514595Y-103431880D01*
X154328922Y-103561890D01*
X154328920Y-103561891D01*
X154161891Y-103728920D01*
X154161886Y-103728926D01*
X154026400Y-103922420D01*
X154026399Y-103922422D01*
X153953888Y-104077922D01*
X153907715Y-104130361D01*
X153840522Y-104149513D01*
X153773641Y-104129297D01*
X153734119Y-104087517D01*
X153730522Y-104081287D01*
X153730521Y-104081286D01*
X153730520Y-104081284D01*
X153618716Y-103969480D01*
X153618715Y-103969479D01*
X153614385Y-103965149D01*
X153614374Y-103965139D01*
X151208105Y-101558870D01*
X151174620Y-101497547D01*
X151179604Y-101427855D01*
X151190791Y-101405219D01*
X151225789Y-101349522D01*
X151285368Y-101179255D01*
X151299878Y-101050476D01*
X151305565Y-101000003D01*
X151305565Y-100999996D01*
X151285369Y-100820750D01*
X151285368Y-100820745D01*
X151263964Y-100759576D01*
X151225789Y-100650478D01*
X151203265Y-100614632D01*
X151158086Y-100542730D01*
X151129816Y-100497738D01*
X151002262Y-100370184D01*
X150951718Y-100338425D01*
X150849523Y-100274211D01*
X150679254Y-100214631D01*
X150679249Y-100214630D01*
X150500004Y-100194435D01*
X150499996Y-100194435D01*
X150320750Y-100214630D01*
X150320745Y-100214631D01*
X150150476Y-100274211D01*
X149997737Y-100370184D01*
X149870180Y-100497741D01*
X149841912Y-100542730D01*
X149789577Y-100589021D01*
X149750803Y-100599977D01*
X149620749Y-100614630D01*
X149620745Y-100614631D01*
X149450476Y-100674211D01*
X149297737Y-100770184D01*
X149170184Y-100897737D01*
X149074211Y-101050476D01*
X149014631Y-101220745D01*
X149014630Y-101220750D01*
X148994435Y-101399996D01*
X148994435Y-101400003D01*
X149014630Y-101579249D01*
X149014631Y-101579254D01*
X149074211Y-101749523D01*
X149121383Y-101824596D01*
X149170184Y-101902262D01*
X149297738Y-102029816D01*
X149450478Y-102125789D01*
X149463871Y-102130475D01*
X149510602Y-102159837D01*
X151963181Y-104612416D01*
X151996666Y-104673739D01*
X151999500Y-104700097D01*
X151999500Y-105217587D01*
X151979815Y-105284626D01*
X151972450Y-105294896D01*
X151970186Y-105297734D01*
X151874211Y-105450476D01*
X151814631Y-105620745D01*
X151814630Y-105620750D01*
X151794435Y-105799996D01*
X151794435Y-105800003D01*
X151814630Y-105979249D01*
X151814631Y-105979254D01*
X151874211Y-106149523D01*
X151952558Y-106274210D01*
X151970184Y-106302262D01*
X152097738Y-106429816D01*
X152149627Y-106462420D01*
X152205833Y-106497737D01*
X152250478Y-106525789D01*
X152291091Y-106540000D01*
X152420745Y-106585368D01*
X152420750Y-106585369D01*
X152599996Y-106605565D01*
X152600000Y-106605565D01*
X152600004Y-106605565D01*
X152779249Y-106585369D01*
X152779252Y-106585368D01*
X152779255Y-106585368D01*
X152949522Y-106525789D01*
X153102262Y-106429816D01*
X153229816Y-106302262D01*
X153325789Y-106149522D01*
X153337584Y-106115812D01*
X153378305Y-106059036D01*
X153422765Y-106037905D01*
X153422682Y-106037668D01*
X153424889Y-106036895D01*
X153427039Y-106035874D01*
X153429249Y-106035368D01*
X153429255Y-106035368D01*
X153599522Y-105975789D01*
X153752262Y-105879816D01*
X153879816Y-105752262D01*
X153975789Y-105599522D01*
X153992144Y-105552781D01*
X154032866Y-105496006D01*
X154097818Y-105470258D01*
X154166380Y-105483714D01*
X154196867Y-105506055D01*
X154328917Y-105638105D01*
X154515031Y-105768425D01*
X154558656Y-105823003D01*
X154565848Y-105892501D01*
X154534326Y-105954856D01*
X154515031Y-105971575D01*
X154328922Y-106101890D01*
X154328920Y-106101891D01*
X154161891Y-106268920D01*
X154161886Y-106268926D01*
X154026400Y-106462420D01*
X154026399Y-106462422D01*
X153926570Y-106676507D01*
X153926567Y-106676513D01*
X153869364Y-106889999D01*
X153869364Y-106890000D01*
X154766988Y-106890000D01*
X154734075Y-106947007D01*
X154700000Y-107074174D01*
X154700000Y-107205826D01*
X154734075Y-107332993D01*
X154766988Y-107390000D01*
X153869364Y-107390000D01*
X153926567Y-107603486D01*
X153926570Y-107603492D01*
X154026399Y-107817578D01*
X154161894Y-108011082D01*
X154328917Y-108178105D01*
X154514595Y-108308119D01*
X154558219Y-108362696D01*
X154565412Y-108432195D01*
X154533890Y-108494549D01*
X154514595Y-108511269D01*
X154328594Y-108641508D01*
X154161505Y-108808597D01*
X154025965Y-109002169D01*
X154025964Y-109002171D01*
X153926098Y-109216335D01*
X153926094Y-109216344D01*
X153864938Y-109444586D01*
X153864936Y-109444596D01*
X153844341Y-109679999D01*
X153844341Y-109680000D01*
X153864936Y-109915403D01*
X153864938Y-109915413D01*
X153926094Y-110143655D01*
X153926096Y-110143659D01*
X153926097Y-110143663D01*
X153997943Y-110297737D01*
X154025965Y-110357830D01*
X154025967Y-110357834D01*
X154161501Y-110551395D01*
X154161506Y-110551402D01*
X154328597Y-110718493D01*
X154328603Y-110718498D01*
X154514158Y-110848425D01*
X154557783Y-110903002D01*
X154564977Y-110972500D01*
X154533454Y-111034855D01*
X154514158Y-111051575D01*
X154328597Y-111181505D01*
X154161505Y-111348597D01*
X154025965Y-111542169D01*
X154025964Y-111542171D01*
X153926098Y-111756335D01*
X153926094Y-111756344D01*
X153864938Y-111984586D01*
X153864936Y-111984596D01*
X153844341Y-112219999D01*
X153844341Y-112220000D01*
X153864936Y-112455403D01*
X153864938Y-112455413D01*
X153926094Y-112683655D01*
X153926096Y-112683659D01*
X153926097Y-112683663D01*
X154003884Y-112850478D01*
X154025965Y-112897830D01*
X154025967Y-112897834D01*
X154161501Y-113091395D01*
X154161506Y-113091402D01*
X154328597Y-113258493D01*
X154328603Y-113258498D01*
X154514158Y-113388425D01*
X154557783Y-113443002D01*
X154564977Y-113512500D01*
X154533454Y-113574855D01*
X154514158Y-113591575D01*
X154328597Y-113721505D01*
X154161505Y-113888597D01*
X154025965Y-114082169D01*
X154025964Y-114082171D01*
X153926098Y-114296335D01*
X153926094Y-114296344D01*
X153864938Y-114524586D01*
X153864936Y-114524596D01*
X153844341Y-114759999D01*
X153844341Y-114760000D01*
X153864936Y-114995403D01*
X153864938Y-114995413D01*
X153926094Y-115223655D01*
X153926096Y-115223659D01*
X153926097Y-115223663D01*
X154008323Y-115399996D01*
X154025965Y-115437830D01*
X154025967Y-115437834D01*
X154161501Y-115631395D01*
X154161506Y-115631402D01*
X154328597Y-115798493D01*
X154328603Y-115798498D01*
X154514158Y-115928425D01*
X154557783Y-115983002D01*
X154564977Y-116052500D01*
X154533454Y-116114855D01*
X154514158Y-116131575D01*
X154328597Y-116261505D01*
X154161505Y-116428597D01*
X154025965Y-116622169D01*
X154025964Y-116622171D01*
X153926098Y-116836335D01*
X153926094Y-116836344D01*
X153864938Y-117064586D01*
X153864936Y-117064596D01*
X153844341Y-117299999D01*
X153844341Y-117300000D01*
X153864936Y-117535403D01*
X153864938Y-117535413D01*
X153926094Y-117763655D01*
X153926096Y-117763659D01*
X153926097Y-117763663D01*
X154025965Y-117977830D01*
X154025967Y-117977834D01*
X154161501Y-118171395D01*
X154161506Y-118171402D01*
X154328597Y-118338493D01*
X154328603Y-118338498D01*
X154514158Y-118468425D01*
X154557783Y-118523002D01*
X154564977Y-118592500D01*
X154533454Y-118654855D01*
X154514158Y-118671575D01*
X154328597Y-118801505D01*
X154161505Y-118968597D01*
X154025965Y-119162169D01*
X154025964Y-119162171D01*
X153926098Y-119376335D01*
X153926094Y-119376344D01*
X153864938Y-119604586D01*
X153864936Y-119604596D01*
X153844341Y-119839999D01*
X153844341Y-119840000D01*
X153864936Y-120075403D01*
X153864938Y-120075413D01*
X153926094Y-120303655D01*
X153926096Y-120303659D01*
X153926097Y-120303663D01*
X154025965Y-120517830D01*
X154025967Y-120517834D01*
X154161501Y-120711395D01*
X154161506Y-120711402D01*
X154328597Y-120878493D01*
X154328603Y-120878498D01*
X154514158Y-121008425D01*
X154557783Y-121063002D01*
X154564977Y-121132500D01*
X154533454Y-121194855D01*
X154514158Y-121211575D01*
X154328597Y-121341505D01*
X154161505Y-121508597D01*
X154025965Y-121702169D01*
X154025964Y-121702171D01*
X153926098Y-121916335D01*
X153926094Y-121916344D01*
X153864938Y-122144586D01*
X153864936Y-122144596D01*
X153844341Y-122379999D01*
X153844341Y-122380000D01*
X153864936Y-122615403D01*
X153864938Y-122615413D01*
X153926094Y-122843655D01*
X153926096Y-122843659D01*
X153926097Y-122843663D01*
X153990240Y-122981218D01*
X154025965Y-123057830D01*
X154025967Y-123057834D01*
X154161501Y-123251395D01*
X154161506Y-123251402D01*
X154328597Y-123418493D01*
X154328603Y-123418498D01*
X154514158Y-123548425D01*
X154557783Y-123603002D01*
X154564977Y-123672500D01*
X154533454Y-123734855D01*
X154514158Y-123751575D01*
X154328597Y-123881505D01*
X154161505Y-124048597D01*
X154025965Y-124242169D01*
X154025964Y-124242171D01*
X153926098Y-124456335D01*
X153926094Y-124456344D01*
X153864938Y-124684586D01*
X153864936Y-124684596D01*
X153844341Y-124919999D01*
X153844341Y-124920000D01*
X153864936Y-125155403D01*
X153864938Y-125155413D01*
X153926094Y-125383655D01*
X153926096Y-125383659D01*
X153926097Y-125383663D01*
X154025965Y-125597830D01*
X154025967Y-125597834D01*
X154161501Y-125791395D01*
X154161506Y-125791402D01*
X154328597Y-125958493D01*
X154328603Y-125958498D01*
X154514158Y-126088425D01*
X154557783Y-126143002D01*
X154564977Y-126212500D01*
X154533454Y-126274855D01*
X154514158Y-126291575D01*
X154328597Y-126421505D01*
X154161505Y-126588597D01*
X154025965Y-126782169D01*
X154025964Y-126782171D01*
X153926098Y-126996335D01*
X153926094Y-126996344D01*
X153864938Y-127224586D01*
X153864936Y-127224596D01*
X153844341Y-127459999D01*
X153844341Y-127460000D01*
X153864936Y-127695403D01*
X153864938Y-127695413D01*
X153926094Y-127923655D01*
X153926096Y-127923659D01*
X153926097Y-127923663D01*
X153995981Y-128073530D01*
X154025965Y-128137830D01*
X154025967Y-128137834D01*
X154080757Y-128216081D01*
X154161501Y-128331396D01*
X154161506Y-128331402D01*
X154283818Y-128453714D01*
X154317303Y-128515037D01*
X154312319Y-128584729D01*
X154270447Y-128640662D01*
X154239471Y-128657577D01*
X154107912Y-128706646D01*
X154107906Y-128706649D01*
X153992812Y-128792809D01*
X153992809Y-128792812D01*
X153906649Y-128907906D01*
X153906645Y-128907913D01*
X153856403Y-129042620D01*
X153856401Y-129042627D01*
X153850000Y-129102155D01*
X153850000Y-129750000D01*
X154766988Y-129750000D01*
X154734075Y-129807007D01*
X154700000Y-129934174D01*
X154700000Y-130065826D01*
X154734075Y-130192993D01*
X154766988Y-130250000D01*
X153850000Y-130250000D01*
X153850000Y-130897844D01*
X153856401Y-130957372D01*
X153856403Y-130957379D01*
X153906645Y-131092086D01*
X153906649Y-131092093D01*
X153998125Y-131214288D01*
X153995696Y-131216106D01*
X154021926Y-131264142D01*
X154016942Y-131333834D01*
X153975070Y-131389767D01*
X153909606Y-131414184D01*
X153900760Y-131414500D01*
X127424500Y-131414500D01*
X127357461Y-131394815D01*
X127311706Y-131342011D01*
X127300500Y-131290500D01*
X127300500Y-83929999D01*
X127844341Y-83929999D01*
X127844341Y-83930000D01*
X127864936Y-84165403D01*
X127864938Y-84165413D01*
X127926094Y-84393655D01*
X127926096Y-84393659D01*
X127926097Y-84393663D01*
X127982868Y-84515408D01*
X128025965Y-84607830D01*
X128025967Y-84607834D01*
X128161501Y-84801395D01*
X128161506Y-84801402D01*
X128328597Y-84968493D01*
X128328603Y-84968498D01*
X128514158Y-85098425D01*
X128557783Y-85153002D01*
X128564977Y-85222500D01*
X128533454Y-85284855D01*
X128514158Y-85301575D01*
X128328597Y-85431505D01*
X128161505Y-85598597D01*
X128025965Y-85792169D01*
X128025964Y-85792171D01*
X127926098Y-86006335D01*
X127926094Y-86006344D01*
X127864938Y-86234586D01*
X127864936Y-86234596D01*
X127844341Y-86469999D01*
X127844341Y-86470000D01*
X127864936Y-86705403D01*
X127864938Y-86705413D01*
X127926094Y-86933655D01*
X127926096Y-86933659D01*
X127926097Y-86933663D01*
X127982868Y-87055408D01*
X128025965Y-87147830D01*
X128025967Y-87147834D01*
X128161501Y-87341395D01*
X128161506Y-87341402D01*
X128328597Y-87508493D01*
X128328603Y-87508498D01*
X128514158Y-87638425D01*
X128557783Y-87693002D01*
X128564977Y-87762500D01*
X128533454Y-87824855D01*
X128514158Y-87841575D01*
X128328597Y-87971505D01*
X128161505Y-88138597D01*
X128025965Y-88332169D01*
X128025964Y-88332171D01*
X127926098Y-88546335D01*
X127926094Y-88546344D01*
X127864938Y-88774586D01*
X127864936Y-88774596D01*
X127844341Y-89009999D01*
X127844341Y-89010000D01*
X127864936Y-89245403D01*
X127864938Y-89245413D01*
X127926094Y-89473655D01*
X127926096Y-89473659D01*
X127926097Y-89473663D01*
X127982868Y-89595408D01*
X128025965Y-89687830D01*
X128025967Y-89687834D01*
X128161501Y-89881395D01*
X128161506Y-89881402D01*
X128328597Y-90048493D01*
X128328603Y-90048498D01*
X128514158Y-90178425D01*
X128557783Y-90233002D01*
X128564977Y-90302500D01*
X128533454Y-90364855D01*
X128514158Y-90381575D01*
X128328597Y-90511505D01*
X128161505Y-90678597D01*
X128025965Y-90872169D01*
X128025964Y-90872171D01*
X127926098Y-91086335D01*
X127926094Y-91086344D01*
X127864938Y-91314586D01*
X127864936Y-91314596D01*
X127844341Y-91549999D01*
X127844341Y-91550000D01*
X127864936Y-91785403D01*
X127864938Y-91785413D01*
X127926094Y-92013655D01*
X127926096Y-92013659D01*
X127926097Y-92013663D01*
X127982868Y-92135408D01*
X128025965Y-92227830D01*
X128025967Y-92227834D01*
X128161501Y-92421395D01*
X128161506Y-92421402D01*
X128328597Y-92588493D01*
X128328603Y-92588498D01*
X128514158Y-92718425D01*
X128557783Y-92773002D01*
X128564977Y-92842500D01*
X128533454Y-92904855D01*
X128514158Y-92921575D01*
X128328597Y-93051505D01*
X128161505Y-93218597D01*
X128025965Y-93412169D01*
X128025964Y-93412171D01*
X127926098Y-93626335D01*
X127926094Y-93626344D01*
X127864938Y-93854586D01*
X127864936Y-93854596D01*
X127844341Y-94089999D01*
X127844341Y-94090000D01*
X127864936Y-94325403D01*
X127864938Y-94325413D01*
X127926094Y-94553655D01*
X127926096Y-94553659D01*
X127926097Y-94553663D01*
X127985513Y-94681080D01*
X128025965Y-94767830D01*
X128025967Y-94767834D01*
X128161501Y-94961395D01*
X128161506Y-94961402D01*
X128328597Y-95128493D01*
X128328603Y-95128498D01*
X128514158Y-95258425D01*
X128557783Y-95313002D01*
X128564977Y-95382500D01*
X128533454Y-95444855D01*
X128514158Y-95461575D01*
X128328597Y-95591505D01*
X128161505Y-95758597D01*
X128025965Y-95952169D01*
X128025964Y-95952171D01*
X127926098Y-96166335D01*
X127926094Y-96166344D01*
X127864938Y-96394586D01*
X127864936Y-96394596D01*
X127844341Y-96629999D01*
X127844341Y-96630000D01*
X127864936Y-96865403D01*
X127864938Y-96865413D01*
X127926094Y-97093655D01*
X127926096Y-97093659D01*
X127926097Y-97093663D01*
X127982868Y-97215408D01*
X128025965Y-97307830D01*
X128025967Y-97307834D01*
X128161501Y-97501395D01*
X128161506Y-97501402D01*
X128328597Y-97668493D01*
X128328603Y-97668498D01*
X128514158Y-97798425D01*
X128557783Y-97853002D01*
X128564977Y-97922500D01*
X128533454Y-97984855D01*
X128514158Y-98001575D01*
X128328597Y-98131505D01*
X128161505Y-98298597D01*
X128025965Y-98492169D01*
X128025964Y-98492171D01*
X127926098Y-98706335D01*
X127926094Y-98706344D01*
X127864938Y-98934586D01*
X127864936Y-98934596D01*
X127844341Y-99169999D01*
X127844341Y-99170000D01*
X127864936Y-99405403D01*
X127864938Y-99405413D01*
X127926094Y-99633655D01*
X127926096Y-99633659D01*
X127926097Y-99633663D01*
X127993988Y-99779255D01*
X128025965Y-99847830D01*
X128025967Y-99847834D01*
X128161501Y-100041395D01*
X128161506Y-100041402D01*
X128328597Y-100208493D01*
X128328603Y-100208498D01*
X128514158Y-100338425D01*
X128557783Y-100393002D01*
X128564977Y-100462500D01*
X128533454Y-100524855D01*
X128514158Y-100541575D01*
X128328597Y-100671505D01*
X128161505Y-100838597D01*
X128025965Y-101032169D01*
X128025964Y-101032171D01*
X127926098Y-101246335D01*
X127926094Y-101246344D01*
X127864938Y-101474586D01*
X127864936Y-101474596D01*
X127844341Y-101709999D01*
X127844341Y-101710000D01*
X127864936Y-101945403D01*
X127864938Y-101945413D01*
X127926094Y-102173655D01*
X127926096Y-102173659D01*
X127926097Y-102173663D01*
X128017737Y-102370184D01*
X128025965Y-102387830D01*
X128025967Y-102387834D01*
X128102923Y-102497737D01*
X128161505Y-102581401D01*
X128328599Y-102748495D01*
X128501123Y-102869298D01*
X128514594Y-102878730D01*
X128558219Y-102933307D01*
X128565413Y-103002805D01*
X128533890Y-103065160D01*
X128514595Y-103081880D01*
X128328922Y-103211890D01*
X128328920Y-103211891D01*
X128161891Y-103378920D01*
X128161886Y-103378926D01*
X128026400Y-103572420D01*
X128026399Y-103572422D01*
X127926570Y-103786507D01*
X127926567Y-103786513D01*
X127869364Y-103999999D01*
X127869364Y-104000000D01*
X128766988Y-104000000D01*
X128734075Y-104057007D01*
X128700000Y-104184174D01*
X128700000Y-104315826D01*
X128734075Y-104442993D01*
X128766988Y-104500000D01*
X127869364Y-104500000D01*
X127926567Y-104713486D01*
X127926570Y-104713492D01*
X128026399Y-104927578D01*
X128161894Y-105121082D01*
X128328917Y-105288105D01*
X128515031Y-105418425D01*
X128558656Y-105473003D01*
X128565848Y-105542501D01*
X128534326Y-105604856D01*
X128515031Y-105621575D01*
X128328922Y-105751890D01*
X128328920Y-105751891D01*
X128161891Y-105918920D01*
X128161886Y-105918926D01*
X128026400Y-106112420D01*
X128026399Y-106112422D01*
X127926570Y-106326507D01*
X127926567Y-106326513D01*
X127869364Y-106539999D01*
X127869364Y-106540000D01*
X128766988Y-106540000D01*
X128734075Y-106597007D01*
X128700000Y-106724174D01*
X128700000Y-106855826D01*
X128734075Y-106982993D01*
X128766988Y-107040000D01*
X127869364Y-107040000D01*
X127926567Y-107253486D01*
X127926570Y-107253492D01*
X128026399Y-107467578D01*
X128161894Y-107661082D01*
X128328917Y-107828105D01*
X128514595Y-107958119D01*
X128558219Y-108012696D01*
X128565412Y-108082195D01*
X128533890Y-108144549D01*
X128514595Y-108161269D01*
X128328594Y-108291508D01*
X128161505Y-108458597D01*
X128025965Y-108652169D01*
X128025964Y-108652171D01*
X127926098Y-108866335D01*
X127926094Y-108866344D01*
X127864938Y-109094586D01*
X127864936Y-109094596D01*
X127844341Y-109329999D01*
X127844341Y-109330000D01*
X127864936Y-109565403D01*
X127864938Y-109565413D01*
X127926094Y-109793655D01*
X127926096Y-109793659D01*
X127926097Y-109793663D01*
X127982868Y-109915408D01*
X128025965Y-110007830D01*
X128025967Y-110007834D01*
X128121071Y-110143655D01*
X128145997Y-110179254D01*
X128161501Y-110201395D01*
X128161506Y-110201402D01*
X128328597Y-110368493D01*
X128328603Y-110368498D01*
X128514158Y-110498425D01*
X128557783Y-110553002D01*
X128564977Y-110622500D01*
X128533454Y-110684855D01*
X128514158Y-110701575D01*
X128328597Y-110831505D01*
X128161505Y-110998597D01*
X128025965Y-111192169D01*
X128025964Y-111192171D01*
X127926098Y-111406335D01*
X127926094Y-111406344D01*
X127864938Y-111634586D01*
X127864936Y-111634596D01*
X127844341Y-111869999D01*
X127844341Y-111870000D01*
X127864936Y-112105403D01*
X127864938Y-112105413D01*
X127926094Y-112333655D01*
X127926096Y-112333659D01*
X127926097Y-112333663D01*
X127982868Y-112455408D01*
X128025965Y-112547830D01*
X128025967Y-112547834D01*
X128161501Y-112741395D01*
X128161506Y-112741402D01*
X128328597Y-112908493D01*
X128328603Y-112908498D01*
X128514158Y-113038425D01*
X128557783Y-113093002D01*
X128564977Y-113162500D01*
X128533454Y-113224855D01*
X128514158Y-113241575D01*
X128328597Y-113371505D01*
X128161505Y-113538597D01*
X128025965Y-113732169D01*
X128025964Y-113732171D01*
X127926098Y-113946335D01*
X127926094Y-113946344D01*
X127864938Y-114174586D01*
X127864936Y-114174596D01*
X127844341Y-114409999D01*
X127844341Y-114410000D01*
X127864936Y-114645403D01*
X127864938Y-114645413D01*
X127926094Y-114873655D01*
X127926096Y-114873659D01*
X127926097Y-114873663D01*
X128025965Y-115087830D01*
X128025967Y-115087834D01*
X128161501Y-115281395D01*
X128161506Y-115281402D01*
X128328597Y-115448493D01*
X128328603Y-115448498D01*
X128514158Y-115578425D01*
X128557783Y-115633002D01*
X128564977Y-115702500D01*
X128533454Y-115764855D01*
X128514158Y-115781575D01*
X128328597Y-115911505D01*
X128161505Y-116078597D01*
X128025965Y-116272169D01*
X128025964Y-116272171D01*
X127926098Y-116486335D01*
X127926094Y-116486344D01*
X127864938Y-116714586D01*
X127864936Y-116714596D01*
X127844341Y-116949999D01*
X127844341Y-116950000D01*
X127864936Y-117185403D01*
X127864938Y-117185413D01*
X127926094Y-117413655D01*
X127926096Y-117413659D01*
X127926097Y-117413663D01*
X127982868Y-117535408D01*
X128025965Y-117627830D01*
X128025967Y-117627834D01*
X128161501Y-117821395D01*
X128161506Y-117821402D01*
X128328597Y-117988493D01*
X128328603Y-117988498D01*
X128514158Y-118118425D01*
X128557783Y-118173002D01*
X128564977Y-118242500D01*
X128533454Y-118304855D01*
X128514158Y-118321575D01*
X128328597Y-118451505D01*
X128161505Y-118618597D01*
X128025965Y-118812169D01*
X128025964Y-118812171D01*
X127926098Y-119026335D01*
X127926094Y-119026344D01*
X127864938Y-119254586D01*
X127864936Y-119254596D01*
X127844341Y-119489999D01*
X127844341Y-119490000D01*
X127864936Y-119725403D01*
X127864938Y-119725413D01*
X127926094Y-119953655D01*
X127926096Y-119953659D01*
X127926097Y-119953663D01*
X127982868Y-120075408D01*
X128025965Y-120167830D01*
X128025967Y-120167834D01*
X128161501Y-120361395D01*
X128161506Y-120361402D01*
X128328597Y-120528493D01*
X128328603Y-120528498D01*
X128514158Y-120658425D01*
X128557783Y-120713002D01*
X128564977Y-120782500D01*
X128533454Y-120844855D01*
X128514158Y-120861575D01*
X128328597Y-120991505D01*
X128161505Y-121158597D01*
X128025965Y-121352169D01*
X128025964Y-121352171D01*
X127926098Y-121566335D01*
X127926094Y-121566344D01*
X127864938Y-121794586D01*
X127864936Y-121794596D01*
X127844341Y-122029999D01*
X127844341Y-122030000D01*
X127864936Y-122265403D01*
X127864938Y-122265413D01*
X127926094Y-122493655D01*
X127926096Y-122493659D01*
X127926097Y-122493663D01*
X127982868Y-122615408D01*
X128025965Y-122707830D01*
X128025967Y-122707834D01*
X128161501Y-122901395D01*
X128161506Y-122901402D01*
X128328597Y-123068493D01*
X128328603Y-123068498D01*
X128514158Y-123198425D01*
X128557783Y-123253002D01*
X128564977Y-123322500D01*
X128533454Y-123384855D01*
X128514158Y-123401575D01*
X128328597Y-123531505D01*
X128161505Y-123698597D01*
X128025965Y-123892169D01*
X128025964Y-123892171D01*
X127926098Y-124106335D01*
X127926094Y-124106344D01*
X127864938Y-124334586D01*
X127864936Y-124334596D01*
X127844341Y-124569999D01*
X127844341Y-124570000D01*
X127864936Y-124805403D01*
X127864938Y-124805413D01*
X127926094Y-125033655D01*
X127926096Y-125033659D01*
X127926097Y-125033663D01*
X127982868Y-125155408D01*
X128025965Y-125247830D01*
X128025967Y-125247834D01*
X128161501Y-125441395D01*
X128161506Y-125441402D01*
X128328597Y-125608493D01*
X128328603Y-125608498D01*
X128514158Y-125738425D01*
X128557783Y-125793002D01*
X128564977Y-125862500D01*
X128533454Y-125924855D01*
X128514158Y-125941575D01*
X128328597Y-126071505D01*
X128161505Y-126238597D01*
X128025965Y-126432169D01*
X128025964Y-126432171D01*
X127926098Y-126646335D01*
X127926094Y-126646344D01*
X127864938Y-126874586D01*
X127864936Y-126874596D01*
X127844341Y-127109999D01*
X127844341Y-127110000D01*
X127864936Y-127345403D01*
X127864938Y-127345413D01*
X127926094Y-127573655D01*
X127926096Y-127573659D01*
X127926097Y-127573663D01*
X127982868Y-127695408D01*
X128025965Y-127787830D01*
X128025967Y-127787834D01*
X128161501Y-127981395D01*
X128161506Y-127981402D01*
X128328597Y-128148493D01*
X128328603Y-128148498D01*
X128514594Y-128278730D01*
X128558219Y-128333307D01*
X128565413Y-128402805D01*
X128533890Y-128465160D01*
X128514595Y-128481880D01*
X128328922Y-128611890D01*
X128328920Y-128611891D01*
X128161891Y-128778920D01*
X128161886Y-128778926D01*
X128026400Y-128972420D01*
X128026399Y-128972422D01*
X127926570Y-129186507D01*
X127926567Y-129186513D01*
X127869364Y-129399999D01*
X127869364Y-129400000D01*
X128766988Y-129400000D01*
X128734075Y-129457007D01*
X128700000Y-129584174D01*
X128700000Y-129715826D01*
X128734075Y-129842993D01*
X128766988Y-129900000D01*
X127869364Y-129900000D01*
X127926567Y-130113486D01*
X127926570Y-130113492D01*
X128026399Y-130327578D01*
X128161894Y-130521082D01*
X128328917Y-130688105D01*
X128522421Y-130823600D01*
X128736507Y-130923429D01*
X128736516Y-130923433D01*
X128950000Y-130980634D01*
X128950000Y-130083012D01*
X129007007Y-130115925D01*
X129134174Y-130150000D01*
X129265826Y-130150000D01*
X129392993Y-130115925D01*
X129450000Y-130083012D01*
X129450000Y-130980633D01*
X129663483Y-130923433D01*
X129663492Y-130923429D01*
X129877578Y-130823600D01*
X130071082Y-130688105D01*
X130238105Y-130521082D01*
X130373600Y-130327578D01*
X130473429Y-130113492D01*
X130473432Y-130113486D01*
X130530636Y-129900000D01*
X129633012Y-129900000D01*
X129665925Y-129842993D01*
X129700000Y-129715826D01*
X129700000Y-129584174D01*
X129665925Y-129457007D01*
X129633012Y-129400000D01*
X130530636Y-129400000D01*
X130530635Y-129399999D01*
X130490442Y-129249994D01*
X133345202Y-129249994D01*
X133345202Y-129250005D01*
X133364361Y-129481218D01*
X133421317Y-129706135D01*
X133514516Y-129918609D01*
X133598811Y-130047633D01*
X134267037Y-129379408D01*
X134284075Y-129442993D01*
X134349901Y-129557007D01*
X134442993Y-129650099D01*
X134557007Y-129715925D01*
X134620590Y-129732962D01*
X133951201Y-130402351D01*
X133981649Y-130426050D01*
X134185697Y-130536476D01*
X134185706Y-130536479D01*
X134405139Y-130611811D01*
X134633993Y-130650000D01*
X134866007Y-130650000D01*
X135094860Y-130611811D01*
X135314293Y-130536479D01*
X135314301Y-130536476D01*
X135518355Y-130426047D01*
X135548797Y-130402351D01*
X135548798Y-130402350D01*
X134879410Y-129732962D01*
X134942993Y-129715925D01*
X135057007Y-129650099D01*
X135150099Y-129557007D01*
X135215925Y-129442993D01*
X135232962Y-129379410D01*
X135901186Y-130047634D01*
X135985484Y-129918606D01*
X136078682Y-129706135D01*
X136135638Y-129481218D01*
X136154798Y-129250005D01*
X136154798Y-129249994D01*
X136154798Y-129249993D01*
X137844700Y-129249993D01*
X137844700Y-129250006D01*
X137863864Y-129481297D01*
X137863866Y-129481308D01*
X137920842Y-129706300D01*
X138014075Y-129918848D01*
X138141016Y-130113147D01*
X138141019Y-130113151D01*
X138141021Y-130113153D01*
X138298216Y-130283913D01*
X138298219Y-130283915D01*
X138298222Y-130283918D01*
X138481365Y-130426464D01*
X138481371Y-130426468D01*
X138481374Y-130426470D01*
X138617245Y-130500000D01*
X138684652Y-130536479D01*
X138685497Y-130536936D01*
X138799487Y-130576068D01*
X138905015Y-130612297D01*
X138905017Y-130612297D01*
X138905019Y-130612298D01*
X139133951Y-130650500D01*
X139133952Y-130650500D01*
X139366048Y-130650500D01*
X139366049Y-130650500D01*
X139594981Y-130612298D01*
X139814503Y-130536936D01*
X140018626Y-130426470D01*
X140019170Y-130426047D01*
X140145683Y-130327578D01*
X140201784Y-130283913D01*
X140358979Y-130113153D01*
X140485924Y-129918849D01*
X140579157Y-129706300D01*
X140636134Y-129481305D01*
X140636135Y-129481297D01*
X140655300Y-129250006D01*
X140655300Y-129249994D01*
X143345202Y-129249994D01*
X143345202Y-129250005D01*
X143364361Y-129481218D01*
X143421317Y-129706135D01*
X143514516Y-129918609D01*
X143598811Y-130047633D01*
X144267037Y-129379408D01*
X144284075Y-129442993D01*
X144349901Y-129557007D01*
X144442993Y-129650099D01*
X144557007Y-129715925D01*
X144620590Y-129732962D01*
X143951201Y-130402351D01*
X143981649Y-130426050D01*
X144185697Y-130536476D01*
X144185706Y-130536479D01*
X144405139Y-130611811D01*
X144633993Y-130650000D01*
X144866007Y-130650000D01*
X145094860Y-130611811D01*
X145314293Y-130536479D01*
X145314301Y-130536476D01*
X145518355Y-130426047D01*
X145548797Y-130402351D01*
X145548798Y-130402350D01*
X144879410Y-129732962D01*
X144942993Y-129715925D01*
X145057007Y-129650099D01*
X145150099Y-129557007D01*
X145215925Y-129442993D01*
X145232962Y-129379410D01*
X145901186Y-130047634D01*
X145985484Y-129918606D01*
X146078682Y-129706135D01*
X146135638Y-129481218D01*
X146154798Y-129250005D01*
X146154798Y-129249994D01*
X146154798Y-129249993D01*
X147844700Y-129249993D01*
X147844700Y-129250006D01*
X147863864Y-129481297D01*
X147863866Y-129481308D01*
X147920842Y-129706300D01*
X148014075Y-129918848D01*
X148141016Y-130113147D01*
X148141019Y-130113151D01*
X148141021Y-130113153D01*
X148298216Y-130283913D01*
X148298219Y-130283915D01*
X148298222Y-130283918D01*
X148481365Y-130426464D01*
X148481371Y-130426468D01*
X148481374Y-130426470D01*
X148617245Y-130500000D01*
X148684652Y-130536479D01*
X148685497Y-130536936D01*
X148799487Y-130576068D01*
X148905015Y-130612297D01*
X148905017Y-130612297D01*
X148905019Y-130612298D01*
X149133951Y-130650500D01*
X149133952Y-130650500D01*
X149366048Y-130650500D01*
X149366049Y-130650500D01*
X149594981Y-130612298D01*
X149814503Y-130536936D01*
X150018626Y-130426470D01*
X150019170Y-130426047D01*
X150145683Y-130327578D01*
X150201784Y-130283913D01*
X150358979Y-130113153D01*
X150485924Y-129918849D01*
X150579157Y-129706300D01*
X150636134Y-129481305D01*
X150636135Y-129481297D01*
X150655300Y-129250006D01*
X150655300Y-129249993D01*
X150636135Y-129018702D01*
X150636133Y-129018691D01*
X150579157Y-128793699D01*
X150485924Y-128581151D01*
X150358983Y-128386852D01*
X150358980Y-128386849D01*
X150358979Y-128386847D01*
X150201784Y-128216087D01*
X150201779Y-128216083D01*
X150201777Y-128216081D01*
X150018634Y-128073535D01*
X150018628Y-128073531D01*
X149814504Y-127963064D01*
X149814495Y-127963061D01*
X149594984Y-127887702D01*
X149423282Y-127859050D01*
X149366049Y-127849500D01*
X149133951Y-127849500D01*
X149088164Y-127857140D01*
X148905015Y-127887702D01*
X148685504Y-127963061D01*
X148685495Y-127963064D01*
X148481371Y-128073531D01*
X148481365Y-128073535D01*
X148298222Y-128216081D01*
X148298219Y-128216084D01*
X148141016Y-128386852D01*
X148014075Y-128581151D01*
X147920842Y-128793699D01*
X147863866Y-129018691D01*
X147863864Y-129018702D01*
X147844700Y-129249993D01*
X146154798Y-129249993D01*
X146135638Y-129018781D01*
X146078682Y-128793864D01*
X145985483Y-128581390D01*
X145901186Y-128452364D01*
X145232962Y-129120589D01*
X145215925Y-129057007D01*
X145150099Y-128942993D01*
X145057007Y-128849901D01*
X144942993Y-128784075D01*
X144879409Y-128767037D01*
X145548797Y-128097647D01*
X145548797Y-128097645D01*
X145518360Y-128073955D01*
X145518354Y-128073951D01*
X145314302Y-127963523D01*
X145314293Y-127963520D01*
X145094860Y-127888188D01*
X144866007Y-127850000D01*
X144633993Y-127850000D01*
X144405139Y-127888188D01*
X144185706Y-127963520D01*
X144185697Y-127963523D01*
X143981650Y-128073949D01*
X143951200Y-128097647D01*
X144620591Y-128767037D01*
X144557007Y-128784075D01*
X144442993Y-128849901D01*
X144349901Y-128942993D01*
X144284075Y-129057007D01*
X144267037Y-129120590D01*
X143598812Y-128452365D01*
X143514516Y-128581391D01*
X143514514Y-128581395D01*
X143421317Y-128793864D01*
X143364361Y-129018781D01*
X143345202Y-129249994D01*
X140655300Y-129249994D01*
X140655300Y-129249993D01*
X140636135Y-129018702D01*
X140636133Y-129018691D01*
X140579157Y-128793699D01*
X140485924Y-128581151D01*
X140358983Y-128386852D01*
X140358980Y-128386849D01*
X140358979Y-128386847D01*
X140201784Y-128216087D01*
X140201779Y-128216083D01*
X140201777Y-128216081D01*
X140018634Y-128073535D01*
X140018628Y-128073531D01*
X139814504Y-127963064D01*
X139814495Y-127963061D01*
X139594984Y-127887702D01*
X139423282Y-127859050D01*
X139366049Y-127849500D01*
X139133951Y-127849500D01*
X139088164Y-127857140D01*
X138905015Y-127887702D01*
X138685504Y-127963061D01*
X138685495Y-127963064D01*
X138481371Y-128073531D01*
X138481365Y-128073535D01*
X138298222Y-128216081D01*
X138298219Y-128216084D01*
X138141016Y-128386852D01*
X138014075Y-128581151D01*
X137920842Y-128793699D01*
X137863866Y-129018691D01*
X137863864Y-129018702D01*
X137844700Y-129249993D01*
X136154798Y-129249993D01*
X136135638Y-129018781D01*
X136078682Y-128793864D01*
X135985483Y-128581390D01*
X135901186Y-128452364D01*
X135232962Y-129120589D01*
X135215925Y-129057007D01*
X135150099Y-128942993D01*
X135057007Y-128849901D01*
X134942993Y-128784075D01*
X134879409Y-128767037D01*
X135548797Y-128097647D01*
X135548797Y-128097645D01*
X135518360Y-128073955D01*
X135518354Y-128073951D01*
X135314302Y-127963523D01*
X135314293Y-127963520D01*
X135094860Y-127888188D01*
X134866007Y-127850000D01*
X134633993Y-127850000D01*
X134405139Y-127888188D01*
X134185706Y-127963520D01*
X134185697Y-127963523D01*
X133981650Y-128073949D01*
X133951200Y-128097647D01*
X134620591Y-128767037D01*
X134557007Y-128784075D01*
X134442993Y-128849901D01*
X134349901Y-128942993D01*
X134284075Y-129057007D01*
X134267037Y-129120590D01*
X133598812Y-128452365D01*
X133514516Y-128581391D01*
X133514514Y-128581395D01*
X133421317Y-128793864D01*
X133364361Y-129018781D01*
X133345202Y-129249994D01*
X130490442Y-129249994D01*
X130473432Y-129186513D01*
X130473429Y-129186507D01*
X130373600Y-128972422D01*
X130373599Y-128972420D01*
X130238113Y-128778926D01*
X130238108Y-128778920D01*
X130071078Y-128611890D01*
X129885405Y-128481879D01*
X129841780Y-128427302D01*
X129834588Y-128357804D01*
X129866110Y-128295449D01*
X129885406Y-128278730D01*
X130071401Y-128148495D01*
X130238495Y-127981401D01*
X130374035Y-127787830D01*
X130473903Y-127573663D01*
X130535063Y-127345408D01*
X130555659Y-127110000D01*
X130535063Y-126874592D01*
X130473903Y-126646337D01*
X130374035Y-126432171D01*
X130366568Y-126421506D01*
X130238494Y-126238597D01*
X130071402Y-126071506D01*
X130071396Y-126071501D01*
X129885842Y-125941575D01*
X129842217Y-125886998D01*
X129835023Y-125817500D01*
X129866546Y-125755145D01*
X129885842Y-125738425D01*
X129908026Y-125722891D01*
X130071401Y-125608495D01*
X130238495Y-125441401D01*
X130374035Y-125247830D01*
X130473903Y-125033663D01*
X130535063Y-124805408D01*
X130555659Y-124570000D01*
X130535063Y-124334592D01*
X130473903Y-124106337D01*
X130374035Y-123892171D01*
X130366568Y-123881506D01*
X130238494Y-123698597D01*
X130071402Y-123531506D01*
X130071396Y-123531501D01*
X129885842Y-123401575D01*
X129842217Y-123346998D01*
X129835023Y-123277500D01*
X129866546Y-123215145D01*
X129885842Y-123198425D01*
X129908026Y-123182891D01*
X130071401Y-123068495D01*
X130238495Y-122901401D01*
X130344511Y-122749994D01*
X133345202Y-122749994D01*
X133345202Y-122750005D01*
X133364361Y-122981218D01*
X133421317Y-123206135D01*
X133514516Y-123418609D01*
X133598811Y-123547633D01*
X134267037Y-122879408D01*
X134284075Y-122942993D01*
X134349901Y-123057007D01*
X134442993Y-123150099D01*
X134557007Y-123215925D01*
X134620590Y-123232962D01*
X133951201Y-123902351D01*
X133981649Y-123926050D01*
X134185697Y-124036476D01*
X134185706Y-124036479D01*
X134405139Y-124111811D01*
X134633993Y-124150000D01*
X134866007Y-124150000D01*
X135094860Y-124111811D01*
X135314293Y-124036479D01*
X135314301Y-124036476D01*
X135518355Y-123926047D01*
X135548797Y-123902351D01*
X135548798Y-123902350D01*
X134879410Y-123232962D01*
X134942993Y-123215925D01*
X135057007Y-123150099D01*
X135150099Y-123057007D01*
X135215925Y-122942993D01*
X135232962Y-122879410D01*
X135901186Y-123547634D01*
X135985484Y-123418606D01*
X136078682Y-123206135D01*
X136135638Y-122981218D01*
X136154798Y-122750005D01*
X136154798Y-122749994D01*
X136154798Y-122749993D01*
X137844700Y-122749993D01*
X137844700Y-122750006D01*
X137863864Y-122981297D01*
X137863866Y-122981308D01*
X137920842Y-123206300D01*
X138014075Y-123418848D01*
X138141016Y-123613147D01*
X138141019Y-123613151D01*
X138141021Y-123613153D01*
X138298216Y-123783913D01*
X138298219Y-123783915D01*
X138298222Y-123783918D01*
X138481365Y-123926464D01*
X138481371Y-123926468D01*
X138481374Y-123926470D01*
X138648860Y-124017109D01*
X138684652Y-124036479D01*
X138685497Y-124036936D01*
X138799487Y-124076068D01*
X138905015Y-124112297D01*
X138905017Y-124112297D01*
X138905019Y-124112298D01*
X139133951Y-124150500D01*
X139133952Y-124150500D01*
X139366048Y-124150500D01*
X139366049Y-124150500D01*
X139594981Y-124112298D01*
X139814503Y-124036936D01*
X140018626Y-123926470D01*
X140019170Y-123926047D01*
X140080129Y-123878600D01*
X140201784Y-123783913D01*
X140358979Y-123613153D01*
X140485924Y-123418849D01*
X140579157Y-123206300D01*
X140636134Y-122981305D01*
X140636135Y-122981297D01*
X140655300Y-122750006D01*
X140655300Y-122749994D01*
X143345202Y-122749994D01*
X143345202Y-122750005D01*
X143364361Y-122981218D01*
X143421317Y-123206135D01*
X143514516Y-123418609D01*
X143598811Y-123547633D01*
X144267037Y-122879408D01*
X144284075Y-122942993D01*
X144349901Y-123057007D01*
X144442993Y-123150099D01*
X144557007Y-123215925D01*
X144620590Y-123232962D01*
X143951201Y-123902351D01*
X143981649Y-123926050D01*
X144185697Y-124036476D01*
X144185706Y-124036479D01*
X144405139Y-124111811D01*
X144633993Y-124150000D01*
X144866007Y-124150000D01*
X145094860Y-124111811D01*
X145314293Y-124036479D01*
X145314301Y-124036476D01*
X145518355Y-123926047D01*
X145548797Y-123902351D01*
X145548798Y-123902350D01*
X144879410Y-123232962D01*
X144942993Y-123215925D01*
X145057007Y-123150099D01*
X145150099Y-123057007D01*
X145215925Y-122942993D01*
X145232962Y-122879410D01*
X145901186Y-123547634D01*
X145985484Y-123418606D01*
X146078682Y-123206135D01*
X146135638Y-122981218D01*
X146154798Y-122750005D01*
X146154798Y-122749994D01*
X146154798Y-122749993D01*
X147844700Y-122749993D01*
X147844700Y-122750006D01*
X147863864Y-122981297D01*
X147863866Y-122981308D01*
X147920842Y-123206300D01*
X148014075Y-123418848D01*
X148141016Y-123613147D01*
X148141019Y-123613151D01*
X148141021Y-123613153D01*
X148298216Y-123783913D01*
X148298219Y-123783915D01*
X148298222Y-123783918D01*
X148481365Y-123926464D01*
X148481371Y-123926468D01*
X148481374Y-123926470D01*
X148648860Y-124017109D01*
X148684652Y-124036479D01*
X148685497Y-124036936D01*
X148799487Y-124076068D01*
X148905015Y-124112297D01*
X148905017Y-124112297D01*
X148905019Y-124112298D01*
X149133951Y-124150500D01*
X149133952Y-124150500D01*
X149366048Y-124150500D01*
X149366049Y-124150500D01*
X149594981Y-124112298D01*
X149814503Y-124036936D01*
X150018626Y-123926470D01*
X150019170Y-123926047D01*
X150080129Y-123878600D01*
X150201784Y-123783913D01*
X150358979Y-123613153D01*
X150485924Y-123418849D01*
X150579157Y-123206300D01*
X150636134Y-122981305D01*
X150636135Y-122981297D01*
X150655300Y-122750006D01*
X150655300Y-122749993D01*
X150636135Y-122518702D01*
X150636133Y-122518691D01*
X150579157Y-122293699D01*
X150485924Y-122081151D01*
X150358983Y-121886852D01*
X150358980Y-121886849D01*
X150358979Y-121886847D01*
X150201784Y-121716087D01*
X150201779Y-121716083D01*
X150201777Y-121716081D01*
X150018634Y-121573535D01*
X150018628Y-121573531D01*
X149814504Y-121463064D01*
X149814495Y-121463061D01*
X149594984Y-121387702D01*
X149382043Y-121352169D01*
X149366049Y-121349500D01*
X149133951Y-121349500D01*
X149117957Y-121352169D01*
X148905015Y-121387702D01*
X148685504Y-121463061D01*
X148685495Y-121463064D01*
X148481371Y-121573531D01*
X148481365Y-121573535D01*
X148298222Y-121716081D01*
X148298219Y-121716084D01*
X148141016Y-121886852D01*
X148014075Y-122081151D01*
X147920842Y-122293699D01*
X147863866Y-122518691D01*
X147863864Y-122518702D01*
X147844700Y-122749993D01*
X146154798Y-122749993D01*
X146135638Y-122518781D01*
X146078682Y-122293864D01*
X145985483Y-122081390D01*
X145901186Y-121952364D01*
X145232962Y-122620589D01*
X145215925Y-122557007D01*
X145150099Y-122442993D01*
X145057007Y-122349901D01*
X144942993Y-122284075D01*
X144879409Y-122267037D01*
X145548797Y-121597647D01*
X145548797Y-121597645D01*
X145518360Y-121573955D01*
X145518354Y-121573951D01*
X145314302Y-121463523D01*
X145314293Y-121463520D01*
X145094860Y-121388188D01*
X144866007Y-121350000D01*
X144633993Y-121350000D01*
X144405139Y-121388188D01*
X144185706Y-121463520D01*
X144185697Y-121463523D01*
X143981650Y-121573949D01*
X143951200Y-121597647D01*
X144620591Y-122267037D01*
X144557007Y-122284075D01*
X144442993Y-122349901D01*
X144349901Y-122442993D01*
X144284075Y-122557007D01*
X144267037Y-122620590D01*
X143598812Y-121952365D01*
X143514516Y-122081391D01*
X143514514Y-122081395D01*
X143421317Y-122293864D01*
X143364361Y-122518781D01*
X143345202Y-122749994D01*
X140655300Y-122749994D01*
X140655300Y-122749993D01*
X140636135Y-122518702D01*
X140636133Y-122518691D01*
X140579157Y-122293699D01*
X140485924Y-122081151D01*
X140358983Y-121886852D01*
X140358980Y-121886849D01*
X140358979Y-121886847D01*
X140201784Y-121716087D01*
X140201779Y-121716083D01*
X140201777Y-121716081D01*
X140018634Y-121573535D01*
X140018628Y-121573531D01*
X139814504Y-121463064D01*
X139814495Y-121463061D01*
X139594984Y-121387702D01*
X139382043Y-121352169D01*
X139366049Y-121349500D01*
X139133951Y-121349500D01*
X139117957Y-121352169D01*
X138905015Y-121387702D01*
X138685504Y-121463061D01*
X138685495Y-121463064D01*
X138481371Y-121573531D01*
X138481365Y-121573535D01*
X138298222Y-121716081D01*
X138298219Y-121716084D01*
X138141016Y-121886852D01*
X138014075Y-122081151D01*
X137920842Y-122293699D01*
X137863866Y-122518691D01*
X137863864Y-122518702D01*
X137844700Y-122749993D01*
X136154798Y-122749993D01*
X136135638Y-122518781D01*
X136078682Y-122293864D01*
X135985483Y-122081390D01*
X135901186Y-121952364D01*
X135232962Y-122620589D01*
X135215925Y-122557007D01*
X135150099Y-122442993D01*
X135057007Y-122349901D01*
X134942993Y-122284075D01*
X134879409Y-122267037D01*
X135548797Y-121597647D01*
X135548797Y-121597645D01*
X135518360Y-121573955D01*
X135518354Y-121573951D01*
X135314302Y-121463523D01*
X135314293Y-121463520D01*
X135094860Y-121388188D01*
X134866007Y-121350000D01*
X134633993Y-121350000D01*
X134405139Y-121388188D01*
X134185706Y-121463520D01*
X134185697Y-121463523D01*
X133981650Y-121573949D01*
X133951200Y-121597647D01*
X134620591Y-122267037D01*
X134557007Y-122284075D01*
X134442993Y-122349901D01*
X134349901Y-122442993D01*
X134284075Y-122557007D01*
X134267037Y-122620590D01*
X133598812Y-121952365D01*
X133514516Y-122081391D01*
X133514514Y-122081395D01*
X133421317Y-122293864D01*
X133364361Y-122518781D01*
X133345202Y-122749994D01*
X130344511Y-122749994D01*
X130374035Y-122707830D01*
X130473903Y-122493663D01*
X130535063Y-122265408D01*
X130555659Y-122030000D01*
X130535063Y-121794592D01*
X130473903Y-121566337D01*
X130374035Y-121352171D01*
X130366568Y-121341506D01*
X130238494Y-121158597D01*
X130071402Y-120991506D01*
X130071396Y-120991501D01*
X129885842Y-120861575D01*
X129842217Y-120806998D01*
X129835023Y-120737500D01*
X129866546Y-120675145D01*
X129885842Y-120658425D01*
X129908026Y-120642891D01*
X130071401Y-120528495D01*
X130238495Y-120361401D01*
X130351512Y-120199996D01*
X147794435Y-120199996D01*
X147794435Y-120200003D01*
X147814630Y-120379249D01*
X147814631Y-120379254D01*
X147874211Y-120549523D01*
X147942639Y-120658425D01*
X147970184Y-120702262D01*
X148097738Y-120829816D01*
X148250478Y-120925789D01*
X148420745Y-120985368D01*
X148420750Y-120985369D01*
X148599996Y-121005565D01*
X148600000Y-121005565D01*
X148600004Y-121005565D01*
X148779249Y-120985369D01*
X148779252Y-120985368D01*
X148779255Y-120985368D01*
X148949522Y-120925789D01*
X149102262Y-120829816D01*
X149102267Y-120829810D01*
X149105097Y-120827555D01*
X149107275Y-120826665D01*
X149108158Y-120826111D01*
X149108255Y-120826265D01*
X149169783Y-120801145D01*
X149182412Y-120800500D01*
X149417588Y-120800500D01*
X149484627Y-120820185D01*
X149494903Y-120827555D01*
X149497736Y-120829814D01*
X149497738Y-120829816D01*
X149650478Y-120925789D01*
X149820745Y-120985368D01*
X149820750Y-120985369D01*
X149999996Y-121005565D01*
X150000000Y-121005565D01*
X150000004Y-121005565D01*
X150179249Y-120985369D01*
X150179252Y-120985368D01*
X150179255Y-120985368D01*
X150349522Y-120925789D01*
X150502262Y-120829816D01*
X150629816Y-120702262D01*
X150725789Y-120549522D01*
X150785368Y-120379255D01*
X150787380Y-120361401D01*
X150805565Y-120200003D01*
X150805565Y-120199996D01*
X150785369Y-120020750D01*
X150785368Y-120020745D01*
X150725788Y-119850476D01*
X150629815Y-119697737D01*
X150502262Y-119570184D01*
X150349523Y-119474211D01*
X150179254Y-119414631D01*
X150179249Y-119414630D01*
X150000004Y-119394435D01*
X149999996Y-119394435D01*
X149820750Y-119414630D01*
X149820745Y-119414631D01*
X149650476Y-119474211D01*
X149497736Y-119570185D01*
X149494903Y-119572445D01*
X149492724Y-119573334D01*
X149491842Y-119573889D01*
X149491744Y-119573734D01*
X149430217Y-119598855D01*
X149417588Y-119599500D01*
X149182412Y-119599500D01*
X149115373Y-119579815D01*
X149105097Y-119572445D01*
X149102263Y-119570185D01*
X149102262Y-119570184D01*
X149045496Y-119534515D01*
X148949523Y-119474211D01*
X148779254Y-119414631D01*
X148779249Y-119414630D01*
X148600004Y-119394435D01*
X148599996Y-119394435D01*
X148420750Y-119414630D01*
X148420745Y-119414631D01*
X148250476Y-119474211D01*
X148097737Y-119570184D01*
X147970184Y-119697737D01*
X147874211Y-119850476D01*
X147814631Y-120020745D01*
X147814630Y-120020750D01*
X147794435Y-120199996D01*
X130351512Y-120199996D01*
X130374035Y-120167830D01*
X130473903Y-119953663D01*
X130535063Y-119725408D01*
X130555659Y-119490000D01*
X130535063Y-119254592D01*
X130473903Y-119026337D01*
X130374035Y-118812171D01*
X130366568Y-118801506D01*
X130238494Y-118618597D01*
X130071402Y-118451506D01*
X130071396Y-118451501D01*
X129885842Y-118321575D01*
X129842217Y-118266998D01*
X129835023Y-118197500D01*
X129866546Y-118135145D01*
X129885842Y-118118425D01*
X129908026Y-118102891D01*
X130071401Y-117988495D01*
X130238495Y-117821401D01*
X130374035Y-117627830D01*
X130473903Y-117413663D01*
X130535063Y-117185408D01*
X130555659Y-116950000D01*
X130535063Y-116714592D01*
X130473903Y-116486337D01*
X130374035Y-116272171D01*
X130366568Y-116261506D01*
X130238494Y-116078597D01*
X130071402Y-115911506D01*
X130071396Y-115911501D01*
X129885842Y-115781575D01*
X129842217Y-115726998D01*
X129835023Y-115657500D01*
X129866546Y-115595145D01*
X129885842Y-115578425D01*
X129908026Y-115562891D01*
X130071401Y-115448495D01*
X130238495Y-115281401D01*
X130374035Y-115087830D01*
X130473903Y-114873663D01*
X130535063Y-114645408D01*
X130555659Y-114410000D01*
X130537286Y-114199996D01*
X134994435Y-114199996D01*
X134994435Y-114200003D01*
X135014630Y-114379249D01*
X135014631Y-114379254D01*
X135074211Y-114549523D01*
X135115121Y-114614630D01*
X135170184Y-114702262D01*
X135297738Y-114829816D01*
X135450478Y-114925789D01*
X135463871Y-114930475D01*
X135510602Y-114959837D01*
X137369298Y-116818534D01*
X137402783Y-116879857D01*
X137404837Y-116892331D01*
X137414630Y-116979249D01*
X137474210Y-117149521D01*
X137496763Y-117185413D01*
X137570184Y-117302262D01*
X137697738Y-117429816D01*
X137850478Y-117525789D01*
X138020745Y-117585368D01*
X138020750Y-117585369D01*
X138199996Y-117605565D01*
X138200000Y-117605565D01*
X138200004Y-117605565D01*
X138379249Y-117585369D01*
X138379252Y-117585368D01*
X138379255Y-117585368D01*
X138549522Y-117525789D01*
X138702262Y-117429816D01*
X138829816Y-117302262D01*
X138925789Y-117149522D01*
X138985368Y-116979255D01*
X138985369Y-116979249D01*
X139005565Y-116800003D01*
X139005565Y-116799996D01*
X138985369Y-116620750D01*
X138985368Y-116620745D01*
X138938339Y-116486344D01*
X138925789Y-116450478D01*
X138912041Y-116428599D01*
X138829815Y-116297737D01*
X138719759Y-116187681D01*
X138686274Y-116126358D01*
X138691258Y-116056666D01*
X138719759Y-116012319D01*
X138749076Y-115983002D01*
X138829816Y-115902262D01*
X138925789Y-115749522D01*
X138985368Y-115579255D01*
X139000101Y-115448495D01*
X139005565Y-115400003D01*
X139005565Y-115399996D01*
X138985369Y-115220750D01*
X138985368Y-115220745D01*
X138925788Y-115050476D01*
X138850386Y-114930475D01*
X138829816Y-114897738D01*
X138702262Y-114770184D01*
X138594165Y-114702262D01*
X138549521Y-114674210D01*
X138379249Y-114614630D01*
X138292330Y-114604837D01*
X138227916Y-114577770D01*
X138218533Y-114569298D01*
X137231959Y-113582724D01*
X137198474Y-113521401D01*
X137196420Y-113481158D01*
X137205565Y-113400001D01*
X137205565Y-113399997D01*
X137185369Y-113220750D01*
X137185368Y-113220745D01*
X137178108Y-113199996D01*
X143994435Y-113199996D01*
X143994435Y-113200003D01*
X144014630Y-113379249D01*
X144014631Y-113379254D01*
X144074211Y-113549523D01*
X144167341Y-113697737D01*
X144170184Y-113702262D01*
X144297738Y-113829816D01*
X144388080Y-113886582D01*
X144391290Y-113888599D01*
X144450478Y-113925789D01*
X144509201Y-113946337D01*
X144620745Y-113985368D01*
X144620750Y-113985369D01*
X144799996Y-114005565D01*
X144800000Y-114005565D01*
X144800004Y-114005565D01*
X144979249Y-113985369D01*
X144979252Y-113985368D01*
X144979255Y-113985368D01*
X145149522Y-113925789D01*
X145302262Y-113829816D01*
X145302267Y-113829810D01*
X145305097Y-113827555D01*
X145307275Y-113826665D01*
X145308158Y-113826111D01*
X145308255Y-113826265D01*
X145369783Y-113801145D01*
X145382412Y-113800500D01*
X145417588Y-113800500D01*
X145484627Y-113820185D01*
X145494903Y-113827555D01*
X145497736Y-113829814D01*
X145497738Y-113829816D01*
X145650478Y-113925789D01*
X145709201Y-113946337D01*
X145820745Y-113985368D01*
X145820750Y-113985369D01*
X145999996Y-114005565D01*
X146000000Y-114005565D01*
X146000004Y-114005565D01*
X146179249Y-113985369D01*
X146179252Y-113985368D01*
X146179255Y-113985368D01*
X146349522Y-113925789D01*
X146502262Y-113829816D01*
X146629816Y-113702262D01*
X146725789Y-113549522D01*
X146785368Y-113379255D01*
X146786241Y-113371506D01*
X146805565Y-113200003D01*
X146805565Y-113199996D01*
X146785369Y-113020750D01*
X146785368Y-113020745D01*
X146746089Y-112908493D01*
X146725789Y-112850478D01*
X146629816Y-112697738D01*
X146502262Y-112570184D01*
X146466686Y-112547830D01*
X146349523Y-112474211D01*
X146179254Y-112414631D01*
X146179249Y-112414630D01*
X146000004Y-112394435D01*
X145999996Y-112394435D01*
X145820750Y-112414630D01*
X145820745Y-112414631D01*
X145650476Y-112474211D01*
X145497736Y-112570185D01*
X145494903Y-112572445D01*
X145492724Y-112573334D01*
X145491842Y-112573889D01*
X145491744Y-112573734D01*
X145430217Y-112598855D01*
X145417588Y-112599500D01*
X145382412Y-112599500D01*
X145315373Y-112579815D01*
X145305097Y-112572445D01*
X145302263Y-112570185D01*
X145302262Y-112570184D01*
X145245496Y-112534515D01*
X145149523Y-112474211D01*
X144979254Y-112414631D01*
X144979249Y-112414630D01*
X144800004Y-112394435D01*
X144799996Y-112394435D01*
X144620750Y-112414630D01*
X144620745Y-112414631D01*
X144450476Y-112474211D01*
X144297737Y-112570184D01*
X144170184Y-112697737D01*
X144074211Y-112850476D01*
X144014631Y-113020745D01*
X144014630Y-113020750D01*
X143994435Y-113199996D01*
X137178108Y-113199996D01*
X137140109Y-113091402D01*
X137125789Y-113050478D01*
X137107106Y-113020745D01*
X137036575Y-112908495D01*
X137029816Y-112897738D01*
X136902262Y-112770184D01*
X136856445Y-112741395D01*
X136749523Y-112674211D01*
X136579254Y-112614631D01*
X136579249Y-112614630D01*
X136400004Y-112594435D01*
X136399996Y-112594435D01*
X136220750Y-112614630D01*
X136220745Y-112614631D01*
X136050476Y-112674211D01*
X135897737Y-112770184D01*
X135770184Y-112897737D01*
X135674211Y-113050476D01*
X135614631Y-113220745D01*
X135614630Y-113220750D01*
X135600362Y-113347391D01*
X135573296Y-113411805D01*
X135518097Y-113450549D01*
X135450480Y-113474209D01*
X135297737Y-113570184D01*
X135170184Y-113697737D01*
X135074211Y-113850476D01*
X135014631Y-114020745D01*
X135014630Y-114020750D01*
X134994435Y-114199996D01*
X130537286Y-114199996D01*
X130535063Y-114174592D01*
X130488626Y-114001285D01*
X130473905Y-113946344D01*
X130473904Y-113946343D01*
X130473903Y-113946337D01*
X130374035Y-113732171D01*
X130366568Y-113721506D01*
X130238494Y-113538597D01*
X130071402Y-113371506D01*
X130071396Y-113371501D01*
X129885842Y-113241575D01*
X129842217Y-113186998D01*
X129835023Y-113117500D01*
X129866546Y-113055145D01*
X129885842Y-113038425D01*
X129911092Y-113020745D01*
X130071401Y-112908495D01*
X130238495Y-112741401D01*
X130374035Y-112547830D01*
X130473903Y-112333663D01*
X130535063Y-112105408D01*
X130555659Y-111870000D01*
X130535063Y-111634592D01*
X130473903Y-111406337D01*
X130374035Y-111192171D01*
X130369273Y-111185369D01*
X130238494Y-110998597D01*
X130071402Y-110831506D01*
X130071396Y-110831501D01*
X129885842Y-110701575D01*
X129842217Y-110646998D01*
X129835023Y-110577500D01*
X129866546Y-110515145D01*
X129885842Y-110498425D01*
X129975895Y-110435369D01*
X130071401Y-110368495D01*
X130238495Y-110201401D01*
X130374035Y-110007830D01*
X130473903Y-109793663D01*
X130535063Y-109565408D01*
X130555659Y-109330000D01*
X130535063Y-109094592D01*
X130473903Y-108866337D01*
X130374035Y-108652171D01*
X130366568Y-108641506D01*
X130238494Y-108458597D01*
X130071402Y-108291506D01*
X130071401Y-108291505D01*
X129940711Y-108199995D01*
X131394435Y-108199995D01*
X131394435Y-108200003D01*
X131414630Y-108379249D01*
X131414631Y-108379254D01*
X131474211Y-108549523D01*
X131570185Y-108702263D01*
X131572445Y-108705097D01*
X131573334Y-108707275D01*
X131573889Y-108708158D01*
X131573734Y-108708255D01*
X131598855Y-108769783D01*
X131599500Y-108782412D01*
X131599500Y-108913330D01*
X131599499Y-108913348D01*
X131599499Y-109079054D01*
X131599498Y-109079054D01*
X131640423Y-109231787D01*
X131651215Y-109250477D01*
X131651216Y-109250478D01*
X131680083Y-109300478D01*
X131719479Y-109368714D01*
X131719481Y-109368717D01*
X131838349Y-109487585D01*
X131838355Y-109487590D01*
X133168040Y-110817275D01*
X133201525Y-110878598D01*
X133203579Y-110918839D01*
X133194435Y-110999997D01*
X133194435Y-111000003D01*
X133214630Y-111179249D01*
X133214631Y-111179254D01*
X133274211Y-111349523D01*
X133324662Y-111429815D01*
X133370184Y-111502262D01*
X133497738Y-111629816D01*
X133650478Y-111725789D01*
X133820745Y-111785368D01*
X133820750Y-111785369D01*
X133999996Y-111805565D01*
X134000000Y-111805565D01*
X134000004Y-111805565D01*
X134179249Y-111785369D01*
X134179252Y-111785368D01*
X134179255Y-111785368D01*
X134349522Y-111725789D01*
X134502262Y-111629816D01*
X134629816Y-111502262D01*
X134725789Y-111349522D01*
X134785368Y-111179255D01*
X134785369Y-111179249D01*
X134805565Y-111000003D01*
X134805565Y-110999996D01*
X134785369Y-110820750D01*
X134785368Y-110820745D01*
X134778108Y-110799996D01*
X137784435Y-110799996D01*
X137784435Y-110800003D01*
X137804630Y-110979249D01*
X137804631Y-110979254D01*
X137864211Y-111149523D01*
X137960184Y-111302262D01*
X138087738Y-111429816D01*
X138240478Y-111525789D01*
X138410745Y-111585368D01*
X138410750Y-111585369D01*
X138589996Y-111605565D01*
X138590000Y-111605565D01*
X138590004Y-111605565D01*
X138769249Y-111585369D01*
X138769252Y-111585368D01*
X138769255Y-111585368D01*
X138939522Y-111525789D01*
X139092262Y-111429816D01*
X139115743Y-111406335D01*
X139131947Y-111390131D01*
X139175278Y-111365118D01*
X139174272Y-111362689D01*
X139181777Y-111359579D01*
X139181785Y-111359577D01*
X139231904Y-111330639D01*
X139318716Y-111280520D01*
X139430520Y-111168716D01*
X139430520Y-111168714D01*
X139440728Y-111158507D01*
X139440730Y-111158504D01*
X139768535Y-110830698D01*
X139829856Y-110797215D01*
X139842311Y-110795163D01*
X139929255Y-110785368D01*
X140099522Y-110725789D01*
X140252262Y-110629816D01*
X140379816Y-110502262D01*
X140475789Y-110349522D01*
X140535368Y-110179255D01*
X140536642Y-110167952D01*
X140555565Y-110000003D01*
X140555565Y-109999996D01*
X140535369Y-109820750D01*
X140535366Y-109820737D01*
X140480044Y-109662637D01*
X140476482Y-109592858D01*
X140511210Y-109532231D01*
X140573204Y-109500003D01*
X140642779Y-109506408D01*
X140684766Y-109534001D01*
X140969298Y-109818533D01*
X141002783Y-109879856D01*
X141004837Y-109892330D01*
X141014630Y-109979249D01*
X141074210Y-110149521D01*
X141121569Y-110224892D01*
X141170184Y-110302262D01*
X141297738Y-110429816D01*
X141388080Y-110486582D01*
X141405833Y-110497737D01*
X141450478Y-110525789D01*
X141598260Y-110577500D01*
X141620745Y-110585368D01*
X141620750Y-110585369D01*
X141799996Y-110605565D01*
X141800000Y-110605565D01*
X141800004Y-110605565D01*
X141979249Y-110585369D01*
X141979252Y-110585368D01*
X141979255Y-110585368D01*
X142149522Y-110525789D01*
X142302262Y-110429816D01*
X142429816Y-110302262D01*
X142478431Y-110224890D01*
X142530764Y-110178601D01*
X142599818Y-110167952D01*
X142663666Y-110196327D01*
X142671105Y-110203183D01*
X142747738Y-110279816D01*
X142776259Y-110297737D01*
X142891557Y-110370184D01*
X142900478Y-110375789D01*
X143054878Y-110429816D01*
X143070745Y-110435368D01*
X143070750Y-110435369D01*
X143249996Y-110455565D01*
X143250000Y-110455565D01*
X143250004Y-110455565D01*
X143429249Y-110435369D01*
X143429252Y-110435368D01*
X143429255Y-110435368D01*
X143599522Y-110375789D01*
X143608443Y-110370184D01*
X143703295Y-110310584D01*
X143770532Y-110291583D01*
X143837367Y-110311950D01*
X143874261Y-110349604D01*
X143970182Y-110502260D01*
X143970184Y-110502262D01*
X144097738Y-110629816D01*
X144185332Y-110684855D01*
X144238869Y-110718495D01*
X144250478Y-110725789D01*
X144318306Y-110749523D01*
X144420745Y-110785368D01*
X144420750Y-110785369D01*
X144599996Y-110805565D01*
X144600000Y-110805565D01*
X144600004Y-110805565D01*
X144779249Y-110785369D01*
X144779252Y-110785368D01*
X144779255Y-110785368D01*
X144949522Y-110725789D01*
X145102262Y-110629816D01*
X145229816Y-110502262D01*
X145325789Y-110349522D01*
X145385368Y-110179255D01*
X145393101Y-110110616D01*
X145420166Y-110046204D01*
X145477760Y-110006648D01*
X145516321Y-110000500D01*
X147099903Y-110000500D01*
X147166942Y-110020185D01*
X147187583Y-110036818D01*
X148031284Y-110880520D01*
X148031286Y-110880521D01*
X148031290Y-110880524D01*
X148070224Y-110903002D01*
X148168216Y-110959577D01*
X148320943Y-111000501D01*
X148320945Y-111000501D01*
X148486654Y-111000501D01*
X148486670Y-111000500D01*
X148617588Y-111000500D01*
X148684627Y-111020185D01*
X148694903Y-111027555D01*
X148697736Y-111029814D01*
X148697738Y-111029816D01*
X148850478Y-111125789D01*
X149003258Y-111179249D01*
X149020745Y-111185368D01*
X149020750Y-111185369D01*
X149199996Y-111205565D01*
X149200000Y-111205565D01*
X149200004Y-111205565D01*
X149379249Y-111185369D01*
X149379252Y-111185368D01*
X149379255Y-111185368D01*
X149549522Y-111125789D01*
X149702262Y-111029816D01*
X149829816Y-110902262D01*
X149925789Y-110749522D01*
X149985368Y-110579255D01*
X149988326Y-110553002D01*
X150005565Y-110400003D01*
X150005565Y-110399996D01*
X149985369Y-110220750D01*
X149985368Y-110220745D01*
X149946833Y-110110619D01*
X149925789Y-110050478D01*
X149924995Y-110049215D01*
X149840919Y-109915408D01*
X149829816Y-109897738D01*
X149702262Y-109770184D01*
X149549522Y-109674210D01*
X149549518Y-109674209D01*
X149481902Y-109650549D01*
X149425126Y-109609828D01*
X149399637Y-109547390D01*
X149385369Y-109420750D01*
X149385368Y-109420745D01*
X149367162Y-109368716D01*
X149325789Y-109250478D01*
X149314043Y-109231785D01*
X149229815Y-109097737D01*
X149102262Y-108970184D01*
X148949521Y-108874210D01*
X148779249Y-108814630D01*
X148692330Y-108804837D01*
X148627916Y-108777770D01*
X148618533Y-108769298D01*
X148487590Y-108638355D01*
X148487588Y-108638352D01*
X148368717Y-108519481D01*
X148368716Y-108519480D01*
X148263266Y-108458599D01*
X148263265Y-108458598D01*
X148231783Y-108440422D01*
X148175881Y-108425443D01*
X148079057Y-108399499D01*
X147920943Y-108399499D01*
X147913347Y-108399499D01*
X147913331Y-108399500D01*
X143986669Y-108399500D01*
X143986653Y-108399499D01*
X143979057Y-108399499D01*
X143820943Y-108399499D01*
X143741010Y-108420917D01*
X143668216Y-108440422D01*
X143636732Y-108458600D01*
X143636731Y-108458599D01*
X143531287Y-108519477D01*
X143531282Y-108519481D01*
X143419478Y-108631286D01*
X143231465Y-108819298D01*
X143170142Y-108852783D01*
X143157668Y-108854837D01*
X143070750Y-108864630D01*
X142900478Y-108924210D01*
X142747737Y-109020184D01*
X142620184Y-109147737D01*
X142620182Y-109147740D01*
X142571568Y-109225108D01*
X142519233Y-109271399D01*
X142450180Y-109282046D01*
X142386331Y-109253671D01*
X142378894Y-109246816D01*
X142302262Y-109170184D01*
X142149521Y-109074210D01*
X141979249Y-109014630D01*
X141892330Y-109004837D01*
X141827916Y-108977770D01*
X141818533Y-108969298D01*
X141336819Y-108487584D01*
X141303334Y-108426261D01*
X141300500Y-108399903D01*
X141300500Y-105882412D01*
X141320185Y-105815373D01*
X141327555Y-105805097D01*
X141329810Y-105802267D01*
X141329816Y-105802262D01*
X141425789Y-105649522D01*
X141485368Y-105479255D01*
X141485369Y-105479249D01*
X141505565Y-105300003D01*
X141505565Y-105299996D01*
X141485369Y-105120750D01*
X141485368Y-105120745D01*
X141432171Y-104968717D01*
X141425789Y-104950478D01*
X141329816Y-104797738D01*
X141202262Y-104670184D01*
X141110325Y-104612416D01*
X141049523Y-104574211D01*
X140879254Y-104514631D01*
X140879249Y-104514630D01*
X140700004Y-104494435D01*
X140699996Y-104494435D01*
X140520750Y-104514630D01*
X140520745Y-104514631D01*
X140350476Y-104574211D01*
X140197737Y-104670184D01*
X140070184Y-104797737D01*
X139974211Y-104950476D01*
X139914631Y-105120745D01*
X139914630Y-105120750D01*
X139894435Y-105299996D01*
X139894435Y-105300003D01*
X139914630Y-105479249D01*
X139914631Y-105479254D01*
X139974211Y-105649523D01*
X140034515Y-105745496D01*
X140068760Y-105799996D01*
X140070185Y-105802263D01*
X140072445Y-105805097D01*
X140073334Y-105807275D01*
X140073889Y-105808158D01*
X140073734Y-105808255D01*
X140098855Y-105869783D01*
X140099500Y-105882412D01*
X140099500Y-108613330D01*
X140099499Y-108613348D01*
X140099499Y-108779054D01*
X140099498Y-108779054D01*
X140138394Y-108924211D01*
X140140423Y-108931785D01*
X140150651Y-108949500D01*
X140219477Y-109068712D01*
X140224426Y-109075161D01*
X140222305Y-109076787D01*
X140249481Y-109126555D01*
X140244497Y-109196247D01*
X140202625Y-109252180D01*
X140137161Y-109276597D01*
X140087361Y-109269955D01*
X139929257Y-109214632D01*
X139929249Y-109214630D01*
X139750004Y-109194435D01*
X139749996Y-109194435D01*
X139570750Y-109214630D01*
X139570745Y-109214631D01*
X139400476Y-109274211D01*
X139247737Y-109370184D01*
X139120184Y-109497737D01*
X139024210Y-109650478D01*
X138964630Y-109820750D01*
X138954837Y-109907668D01*
X138927770Y-109972082D01*
X138919298Y-109981465D01*
X138910930Y-109989833D01*
X138849607Y-110023318D01*
X138782297Y-110019195D01*
X138769256Y-110014632D01*
X138769249Y-110014630D01*
X138590004Y-109994435D01*
X138589996Y-109994435D01*
X138410750Y-110014630D01*
X138410745Y-110014631D01*
X138240476Y-110074211D01*
X138087737Y-110170184D01*
X137960184Y-110297737D01*
X137864211Y-110450476D01*
X137804631Y-110620745D01*
X137804630Y-110620750D01*
X137784435Y-110799996D01*
X134778108Y-110799996D01*
X134749588Y-110718493D01*
X134725789Y-110650478D01*
X134723602Y-110646998D01*
X134663531Y-110551395D01*
X134629816Y-110497738D01*
X134502262Y-110370184D01*
X134386965Y-110297738D01*
X134349524Y-110274212D01*
X134349525Y-110274212D01*
X134347507Y-110273506D01*
X134336119Y-110269521D01*
X134289397Y-110240162D01*
X132869517Y-108820282D01*
X132836032Y-108758959D01*
X132841016Y-108689267D01*
X132852200Y-108666638D01*
X132925789Y-108549522D01*
X132985368Y-108379255D01*
X132991499Y-108324839D01*
X133005565Y-108200003D01*
X133005565Y-108199995D01*
X132985369Y-108020750D01*
X132985368Y-108020745D01*
X132969305Y-107974839D01*
X132925789Y-107850478D01*
X132829816Y-107697738D01*
X132702262Y-107570184D01*
X132654382Y-107540099D01*
X132549523Y-107474211D01*
X132379254Y-107414631D01*
X132379249Y-107414630D01*
X132200004Y-107394435D01*
X132199996Y-107394435D01*
X132020750Y-107414630D01*
X132020745Y-107414631D01*
X131850476Y-107474211D01*
X131697737Y-107570184D01*
X131570184Y-107697737D01*
X131474211Y-107850476D01*
X131414631Y-108020745D01*
X131414630Y-108020750D01*
X131394435Y-108199995D01*
X129940711Y-108199995D01*
X129885405Y-108161269D01*
X129841781Y-108106692D01*
X129834588Y-108037193D01*
X129866110Y-107974839D01*
X129885405Y-107958119D01*
X130071082Y-107828105D01*
X130238105Y-107661082D01*
X130373600Y-107467578D01*
X130473429Y-107253492D01*
X130473432Y-107253486D01*
X130530636Y-107040000D01*
X129633012Y-107040000D01*
X129656108Y-106999996D01*
X132994435Y-106999996D01*
X132994435Y-107000003D01*
X133014630Y-107179249D01*
X133014631Y-107179254D01*
X133074211Y-107349523D01*
X133152558Y-107474211D01*
X133170184Y-107502262D01*
X133297738Y-107629816D01*
X133313946Y-107640000D01*
X133405833Y-107697737D01*
X133450478Y-107725789D01*
X133620745Y-107785368D01*
X133620750Y-107785369D01*
X133799996Y-107805565D01*
X133800000Y-107805565D01*
X133800004Y-107805565D01*
X133979249Y-107785369D01*
X133979252Y-107785368D01*
X133979255Y-107785368D01*
X134149522Y-107725789D01*
X134302262Y-107629816D01*
X134429816Y-107502262D01*
X134525789Y-107349522D01*
X134585368Y-107179255D01*
X134595161Y-107092329D01*
X134622226Y-107027918D01*
X134630690Y-107018543D01*
X136680520Y-104968716D01*
X136759577Y-104831784D01*
X136800501Y-104679057D01*
X136800501Y-104520942D01*
X136800501Y-104513347D01*
X136800500Y-104513329D01*
X136800500Y-103582412D01*
X136820185Y-103515373D01*
X136827555Y-103505097D01*
X136829810Y-103502267D01*
X136829816Y-103502262D01*
X136925789Y-103349522D01*
X136985368Y-103179255D01*
X136994467Y-103098498D01*
X137005565Y-103000003D01*
X137005565Y-102999996D01*
X136985369Y-102820750D01*
X136985368Y-102820745D01*
X136956355Y-102737830D01*
X136943116Y-102699996D01*
X143194435Y-102699996D01*
X143194435Y-102700003D01*
X143214630Y-102879249D01*
X143214631Y-102879254D01*
X143274211Y-103049523D01*
X143355724Y-103179249D01*
X143370184Y-103202262D01*
X143497738Y-103329816D01*
X143650478Y-103425789D01*
X143703997Y-103444516D01*
X143820745Y-103485368D01*
X143820750Y-103485369D01*
X143999996Y-103505565D01*
X144000000Y-103505565D01*
X144000004Y-103505565D01*
X144179249Y-103485369D01*
X144179251Y-103485368D01*
X144179255Y-103485368D01*
X144179258Y-103485366D01*
X144179262Y-103485366D01*
X144296004Y-103444516D01*
X144365783Y-103440954D01*
X144424640Y-103473876D01*
X144669298Y-103718533D01*
X144702783Y-103779856D01*
X144704837Y-103792330D01*
X144714630Y-103879249D01*
X144774210Y-104049521D01*
X144858819Y-104184174D01*
X144870184Y-104202262D01*
X144997738Y-104329816D01*
X145047695Y-104361206D01*
X145120586Y-104407007D01*
X145150478Y-104425789D01*
X145288257Y-104474000D01*
X145320745Y-104485368D01*
X145320750Y-104485369D01*
X145499996Y-104505565D01*
X145500000Y-104505565D01*
X145500004Y-104505565D01*
X145679249Y-104485369D01*
X145679252Y-104485368D01*
X145679255Y-104485368D01*
X145849522Y-104425789D01*
X146002262Y-104329816D01*
X146129816Y-104202262D01*
X146225789Y-104049522D01*
X146285368Y-103879255D01*
X146285369Y-103879249D01*
X146305565Y-103700003D01*
X146305565Y-103699996D01*
X146285369Y-103520750D01*
X146285368Y-103520745D01*
X146278901Y-103502263D01*
X146225789Y-103350478D01*
X146225188Y-103349522D01*
X146152623Y-103234035D01*
X146129816Y-103197738D01*
X146002262Y-103070184D01*
X145864947Y-102983903D01*
X145849521Y-102974210D01*
X145679249Y-102914630D01*
X145592330Y-102904837D01*
X145527916Y-102877770D01*
X145518533Y-102869298D01*
X144987590Y-102338355D01*
X144987588Y-102338352D01*
X144868717Y-102219481D01*
X144868709Y-102219475D01*
X144763167Y-102158541D01*
X144763164Y-102158540D01*
X144731787Y-102140424D01*
X144731786Y-102140423D01*
X144731785Y-102140423D01*
X144624427Y-102111656D01*
X144579054Y-102099498D01*
X144570997Y-102098438D01*
X144571287Y-102096232D01*
X144515372Y-102079814D01*
X144505097Y-102072445D01*
X144502262Y-102070184D01*
X144349523Y-101974211D01*
X144179254Y-101914631D01*
X144179249Y-101914630D01*
X144000004Y-101894435D01*
X143999996Y-101894435D01*
X143820750Y-101914630D01*
X143820745Y-101914631D01*
X143650476Y-101974211D01*
X143497737Y-102070184D01*
X143370184Y-102197737D01*
X143274211Y-102350476D01*
X143214631Y-102520745D01*
X143214630Y-102520750D01*
X143194435Y-102699996D01*
X136943116Y-102699996D01*
X136925789Y-102650478D01*
X136829816Y-102497738D01*
X136702262Y-102370184D01*
X136670897Y-102350476D01*
X136549523Y-102274211D01*
X136379254Y-102214631D01*
X136379249Y-102214630D01*
X136200004Y-102194435D01*
X136199996Y-102194435D01*
X136020750Y-102214630D01*
X136020745Y-102214631D01*
X135850476Y-102274211D01*
X135697737Y-102370184D01*
X135570184Y-102497737D01*
X135474211Y-102650476D01*
X135414631Y-102820745D01*
X135414630Y-102820750D01*
X135394435Y-102999996D01*
X135394435Y-103000003D01*
X135414630Y-103179249D01*
X135414631Y-103179254D01*
X135474211Y-103349523D01*
X135522132Y-103425788D01*
X135559569Y-103485369D01*
X135570185Y-103502263D01*
X135572445Y-103505097D01*
X135573334Y-103507275D01*
X135573889Y-103508158D01*
X135573734Y-103508255D01*
X135598855Y-103569783D01*
X135599500Y-103582412D01*
X135599500Y-104299902D01*
X135579815Y-104366941D01*
X135563181Y-104387583D01*
X133781465Y-106169298D01*
X133720142Y-106202783D01*
X133707668Y-106204837D01*
X133620750Y-106214630D01*
X133450478Y-106274210D01*
X133297737Y-106370184D01*
X133170184Y-106497737D01*
X133074211Y-106650476D01*
X133014631Y-106820745D01*
X133014630Y-106820750D01*
X132994435Y-106999996D01*
X129656108Y-106999996D01*
X129665925Y-106982993D01*
X129700000Y-106855826D01*
X129700000Y-106724174D01*
X129665925Y-106597007D01*
X129633012Y-106540000D01*
X130530636Y-106540000D01*
X130530635Y-106539999D01*
X130473432Y-106326513D01*
X130473429Y-106326507D01*
X130373600Y-106112422D01*
X130373599Y-106112420D01*
X130238113Y-105918926D01*
X130238108Y-105918920D01*
X130071082Y-105751894D01*
X129884968Y-105621575D01*
X129841344Y-105566998D01*
X129834151Y-105497499D01*
X129865673Y-105435145D01*
X129884968Y-105418425D01*
X130071082Y-105288105D01*
X130238105Y-105121082D01*
X130373600Y-104927578D01*
X130473429Y-104713492D01*
X130473432Y-104713486D01*
X130530636Y-104500000D01*
X129633012Y-104500000D01*
X129665925Y-104442993D01*
X129700000Y-104315826D01*
X129700000Y-104184174D01*
X129665925Y-104057007D01*
X129633012Y-104000000D01*
X130530636Y-104000000D01*
X130530635Y-103999999D01*
X130473432Y-103786513D01*
X130473429Y-103786507D01*
X130373600Y-103572422D01*
X130373599Y-103572420D01*
X130238113Y-103378926D01*
X130238108Y-103378920D01*
X130071078Y-103211890D01*
X129885405Y-103081879D01*
X129841780Y-103027302D01*
X129834588Y-102957804D01*
X129866110Y-102895449D01*
X129885406Y-102878730D01*
X129886777Y-102877770D01*
X130071401Y-102748495D01*
X130238495Y-102581401D01*
X130374035Y-102387830D01*
X130473903Y-102173663D01*
X130535063Y-101945408D01*
X130555659Y-101710000D01*
X130535063Y-101474592D01*
X130473903Y-101246337D01*
X130374035Y-101032171D01*
X130366568Y-101021506D01*
X130238494Y-100838597D01*
X130071402Y-100671506D01*
X130071396Y-100671501D01*
X129885842Y-100541575D01*
X129842217Y-100486998D01*
X129835023Y-100417500D01*
X129866546Y-100355145D01*
X129885842Y-100338425D01*
X129977549Y-100274211D01*
X130071401Y-100208495D01*
X130238495Y-100041401D01*
X130374035Y-99847830D01*
X130473903Y-99633663D01*
X130535063Y-99405408D01*
X130555659Y-99170000D01*
X130535063Y-98934592D01*
X130473903Y-98706337D01*
X130374035Y-98492171D01*
X130366568Y-98481506D01*
X130238494Y-98298597D01*
X130071402Y-98131506D01*
X130071396Y-98131501D01*
X129885842Y-98001575D01*
X129842217Y-97946998D01*
X129835023Y-97877500D01*
X129866546Y-97815145D01*
X129885842Y-97798425D01*
X129908026Y-97782891D01*
X130071401Y-97668495D01*
X130238495Y-97501401D01*
X130374035Y-97307830D01*
X130473903Y-97093663D01*
X130535063Y-96865408D01*
X130555659Y-96630000D01*
X130535536Y-96399996D01*
X140394435Y-96399996D01*
X140394435Y-96400003D01*
X140414630Y-96579249D01*
X140414631Y-96579254D01*
X140474211Y-96749523D01*
X140570184Y-96902262D01*
X140697738Y-97029816D01*
X140850478Y-97125789D01*
X140976097Y-97169745D01*
X141020745Y-97185368D01*
X141020750Y-97185369D01*
X141199996Y-97205565D01*
X141200000Y-97205565D01*
X141200004Y-97205565D01*
X141379249Y-97185369D01*
X141379252Y-97185368D01*
X141379255Y-97185368D01*
X141549522Y-97125789D01*
X141676737Y-97045854D01*
X141743972Y-97026854D01*
X141810807Y-97047221D01*
X141856022Y-97100489D01*
X141865260Y-97169745D01*
X141859750Y-97191802D01*
X141814632Y-97320742D01*
X141814630Y-97320750D01*
X141794435Y-97499996D01*
X141794435Y-97500003D01*
X141814630Y-97679249D01*
X141814631Y-97679254D01*
X141874211Y-97849523D01*
X141935459Y-97946998D01*
X141970184Y-98002262D01*
X142097738Y-98129816D01*
X142171749Y-98176320D01*
X142232721Y-98214632D01*
X142250478Y-98225789D01*
X142388860Y-98274211D01*
X142420745Y-98285368D01*
X142420750Y-98285369D01*
X142599996Y-98305565D01*
X142600000Y-98305565D01*
X142600004Y-98305565D01*
X142779249Y-98285369D01*
X142779252Y-98285368D01*
X142779255Y-98285368D01*
X142949522Y-98225789D01*
X143102262Y-98129816D01*
X143102267Y-98129810D01*
X143105097Y-98127555D01*
X143107275Y-98126665D01*
X143108158Y-98126111D01*
X143108255Y-98126265D01*
X143169783Y-98101145D01*
X143182412Y-98100500D01*
X143296524Y-98100500D01*
X143363563Y-98120185D01*
X143409318Y-98172989D01*
X143419262Y-98242147D01*
X143390237Y-98305703D01*
X143362496Y-98329494D01*
X143297737Y-98370184D01*
X143170184Y-98497737D01*
X143074211Y-98650476D01*
X143014631Y-98820745D01*
X143014630Y-98820750D01*
X142994435Y-98999996D01*
X142994435Y-98999998D01*
X142996787Y-99020879D01*
X142984730Y-99089701D01*
X142937379Y-99141079D01*
X142914523Y-99151800D01*
X142850474Y-99174212D01*
X142697737Y-99270184D01*
X142570184Y-99397737D01*
X142474211Y-99550476D01*
X142414631Y-99720745D01*
X142414630Y-99720750D01*
X142394435Y-99899996D01*
X142394435Y-99900003D01*
X142414630Y-100079249D01*
X142414631Y-100079254D01*
X142474211Y-100249523D01*
X142536091Y-100348003D01*
X142570184Y-100402262D01*
X142697738Y-100529816D01*
X142743385Y-100558498D01*
X142832721Y-100614632D01*
X142850478Y-100625789D01*
X142981127Y-100671505D01*
X143020745Y-100685368D01*
X143020749Y-100685369D01*
X143122685Y-100696853D01*
X143142809Y-100699121D01*
X143190925Y-100714953D01*
X143208217Y-100724937D01*
X143268215Y-100759577D01*
X143420943Y-100800500D01*
X143579057Y-100800500D01*
X144134083Y-100800500D01*
X144201122Y-100820185D01*
X144246877Y-100872989D01*
X144251125Y-100883546D01*
X144274210Y-100949521D01*
X144326143Y-101032171D01*
X144370184Y-101102262D01*
X144497738Y-101229816D01*
X144650478Y-101325789D01*
X144820745Y-101385368D01*
X144820750Y-101385369D01*
X144999996Y-101405565D01*
X145000000Y-101405565D01*
X145000004Y-101405565D01*
X145179249Y-101385369D01*
X145179252Y-101385368D01*
X145179255Y-101385368D01*
X145349522Y-101325789D01*
X145502262Y-101229816D01*
X145629816Y-101102262D01*
X145725789Y-100949522D01*
X145785368Y-100779255D01*
X145786390Y-100770184D01*
X145805565Y-100600003D01*
X145805565Y-100599996D01*
X145785369Y-100420753D01*
X145785369Y-100420751D01*
X145785368Y-100420749D01*
X145785368Y-100420745D01*
X145784329Y-100417777D01*
X145784225Y-100415743D01*
X145783819Y-100413961D01*
X145784131Y-100413889D01*
X145780765Y-100348003D01*
X145815492Y-100287374D01*
X145835389Y-100271834D01*
X145902262Y-100229816D01*
X146029816Y-100102262D01*
X146125789Y-99949522D01*
X146185368Y-99779255D01*
X146185369Y-99779249D01*
X146205565Y-99600003D01*
X146205565Y-99599996D01*
X146185369Y-99420750D01*
X146185368Y-99420745D01*
X146180000Y-99405403D01*
X146125789Y-99250478D01*
X146029816Y-99097738D01*
X145902262Y-98970184D01*
X145845618Y-98934592D01*
X145749523Y-98874211D01*
X145579254Y-98814631D01*
X145579249Y-98814630D01*
X145400004Y-98794435D01*
X145399996Y-98794435D01*
X145220750Y-98814630D01*
X145220745Y-98814631D01*
X145050476Y-98874211D01*
X144897736Y-98970185D01*
X144894903Y-98972445D01*
X144892724Y-98973334D01*
X144891842Y-98973889D01*
X144891744Y-98973734D01*
X144830217Y-98998855D01*
X144817588Y-98999500D01*
X144716321Y-98999500D01*
X144649282Y-98979815D01*
X144603527Y-98927011D01*
X144593101Y-98889386D01*
X144585368Y-98820745D01*
X144525789Y-98650478D01*
X144429816Y-98497738D01*
X144302262Y-98370184D01*
X144263718Y-98345965D01*
X144149523Y-98274211D01*
X143986142Y-98217042D01*
X143929366Y-98176320D01*
X143903619Y-98111367D01*
X143917075Y-98042806D01*
X143965462Y-97992403D01*
X143986142Y-97982958D01*
X144149522Y-97925789D01*
X144302262Y-97829816D01*
X144429816Y-97702262D01*
X144525789Y-97549522D01*
X144585368Y-97379255D01*
X144591960Y-97320750D01*
X144605565Y-97200003D01*
X144605565Y-97199996D01*
X144585369Y-97020750D01*
X144585368Y-97020745D01*
X144525789Y-96850478D01*
X144429816Y-96697738D01*
X144302262Y-96570184D01*
X144149523Y-96474211D01*
X143979254Y-96414631D01*
X143979249Y-96414630D01*
X143800004Y-96394435D01*
X143799996Y-96394435D01*
X143620750Y-96414630D01*
X143620745Y-96414631D01*
X143450476Y-96474211D01*
X143297737Y-96570184D01*
X143170184Y-96697737D01*
X143170182Y-96697740D01*
X143139245Y-96746976D01*
X143086910Y-96793267D01*
X143017857Y-96803914D01*
X142968280Y-96785997D01*
X142949522Y-96774211D01*
X142949518Y-96774209D01*
X142779262Y-96714633D01*
X142779249Y-96714630D01*
X142600004Y-96694435D01*
X142599996Y-96694435D01*
X142420750Y-96714630D01*
X142420745Y-96714631D01*
X142250476Y-96774211D01*
X142123263Y-96854145D01*
X142056026Y-96873145D01*
X141989191Y-96852777D01*
X141943977Y-96799509D01*
X141934740Y-96730253D01*
X141940250Y-96708196D01*
X141985367Y-96579258D01*
X141985367Y-96579257D01*
X141985368Y-96579255D01*
X141995161Y-96492329D01*
X142022226Y-96427918D01*
X142030689Y-96418544D01*
X142249439Y-96199795D01*
X142310761Y-96166311D01*
X142378071Y-96170435D01*
X142420745Y-96185368D01*
X142420749Y-96185368D01*
X142420753Y-96185369D01*
X142599996Y-96205565D01*
X142600000Y-96205565D01*
X142600004Y-96205565D01*
X142779249Y-96185369D01*
X142779252Y-96185368D01*
X142779255Y-96185368D01*
X142949522Y-96125789D01*
X143102262Y-96029816D01*
X143229816Y-95902262D01*
X143307876Y-95778029D01*
X143360211Y-95731739D01*
X143429264Y-95721091D01*
X143453825Y-95726961D01*
X143620737Y-95785366D01*
X143620743Y-95785367D01*
X143620745Y-95785368D01*
X143620746Y-95785368D01*
X143620750Y-95785369D01*
X143799996Y-95805565D01*
X143800000Y-95805565D01*
X143800004Y-95805565D01*
X143979249Y-95785369D01*
X143979252Y-95785368D01*
X143979255Y-95785368D01*
X144149522Y-95725789D01*
X144302262Y-95629816D01*
X144429816Y-95502262D01*
X144525789Y-95349522D01*
X144585368Y-95179255D01*
X144591087Y-95128498D01*
X144605565Y-95000003D01*
X144605565Y-94999996D01*
X144585369Y-94820750D01*
X144585368Y-94820745D01*
X144556295Y-94737659D01*
X144525789Y-94650478D01*
X144503265Y-94614632D01*
X144490575Y-94594435D01*
X144429816Y-94497738D01*
X144429814Y-94497736D01*
X144429813Y-94497734D01*
X144427550Y-94494896D01*
X144426659Y-94492715D01*
X144426111Y-94491842D01*
X144426264Y-94491745D01*
X144401144Y-94430209D01*
X144400500Y-94417587D01*
X144400500Y-94089920D01*
X149289499Y-94089920D01*
X149318340Y-94234907D01*
X149318343Y-94234917D01*
X149374912Y-94371488D01*
X149374919Y-94371501D01*
X149457048Y-94494415D01*
X149457051Y-94494419D01*
X149561580Y-94598948D01*
X149561584Y-94598951D01*
X149684498Y-94681080D01*
X149684511Y-94681087D01*
X149821082Y-94737656D01*
X149821087Y-94737658D01*
X149821091Y-94737658D01*
X149821092Y-94737659D01*
X149966079Y-94766500D01*
X149966082Y-94766500D01*
X150113920Y-94766500D01*
X150211462Y-94747096D01*
X150258913Y-94737658D01*
X150395495Y-94681084D01*
X150518416Y-94598951D01*
X150622951Y-94494416D01*
X150705084Y-94371495D01*
X150761658Y-94234913D01*
X150790500Y-94089918D01*
X150790500Y-93942082D01*
X150790500Y-93942079D01*
X150761659Y-93797092D01*
X150761658Y-93797091D01*
X150761658Y-93797087D01*
X150755942Y-93783288D01*
X150705087Y-93660511D01*
X150705080Y-93660498D01*
X150622951Y-93537584D01*
X150622948Y-93537580D01*
X150518419Y-93433051D01*
X150518415Y-93433048D01*
X150395501Y-93350919D01*
X150395488Y-93350912D01*
X150258917Y-93294343D01*
X150258907Y-93294340D01*
X150113920Y-93265500D01*
X150113918Y-93265500D01*
X149966082Y-93265500D01*
X149966080Y-93265500D01*
X149821092Y-93294340D01*
X149821082Y-93294343D01*
X149684511Y-93350912D01*
X149684498Y-93350919D01*
X149561584Y-93433048D01*
X149561580Y-93433051D01*
X149457051Y-93537580D01*
X149457048Y-93537584D01*
X149374919Y-93660498D01*
X149374912Y-93660511D01*
X149318343Y-93797082D01*
X149318340Y-93797092D01*
X149289500Y-93942079D01*
X149289500Y-93942082D01*
X149289500Y-94089918D01*
X149289500Y-94089920D01*
X149289499Y-94089920D01*
X144400500Y-94089920D01*
X144400500Y-93820945D01*
X144400500Y-93820943D01*
X144390410Y-93783286D01*
X144392073Y-93713439D01*
X144431235Y-93655576D01*
X144495464Y-93628072D01*
X144564366Y-93639658D01*
X144579077Y-93648094D01*
X144604496Y-93665079D01*
X144604511Y-93665087D01*
X144741082Y-93721656D01*
X144741087Y-93721658D01*
X144741091Y-93721658D01*
X144741092Y-93721659D01*
X144886079Y-93750500D01*
X144886082Y-93750500D01*
X145033920Y-93750500D01*
X145131462Y-93731096D01*
X145178913Y-93721658D01*
X145315495Y-93665084D01*
X145438416Y-93582951D01*
X145542951Y-93478416D01*
X145625084Y-93355495D01*
X145626980Y-93350919D01*
X145647873Y-93300478D01*
X145681658Y-93218913D01*
X145695863Y-93147500D01*
X145710500Y-93073920D01*
X145710500Y-92926079D01*
X145681659Y-92781092D01*
X145681658Y-92781091D01*
X145681658Y-92781087D01*
X145677646Y-92771401D01*
X145625087Y-92644511D01*
X145625080Y-92644498D01*
X145542951Y-92521584D01*
X145542948Y-92521580D01*
X145438419Y-92417051D01*
X145438415Y-92417048D01*
X145315501Y-92334919D01*
X145315488Y-92334912D01*
X145178917Y-92278343D01*
X145178907Y-92278340D01*
X145033920Y-92249500D01*
X145033918Y-92249500D01*
X144886082Y-92249500D01*
X144886080Y-92249500D01*
X144741092Y-92278340D01*
X144741082Y-92278343D01*
X144604511Y-92334912D01*
X144604498Y-92334919D01*
X144481584Y-92417048D01*
X144481580Y-92417051D01*
X144377051Y-92521580D01*
X144377048Y-92521584D01*
X144294919Y-92644498D01*
X144294912Y-92644511D01*
X144238343Y-92781082D01*
X144238340Y-92781091D01*
X144210519Y-92920953D01*
X144178133Y-92982863D01*
X144117417Y-93017437D01*
X144047648Y-93013696D01*
X144022929Y-93001753D01*
X143899524Y-92924211D01*
X143729254Y-92864631D01*
X143729249Y-92864630D01*
X143550004Y-92844435D01*
X143549996Y-92844435D01*
X143370750Y-92864630D01*
X143370745Y-92864631D01*
X143200476Y-92924211D01*
X143047737Y-93020184D01*
X142920184Y-93147737D01*
X142824211Y-93300476D01*
X142764631Y-93470745D01*
X142764630Y-93470750D01*
X142744435Y-93649996D01*
X142744435Y-93650003D01*
X142764630Y-93829249D01*
X142764631Y-93829254D01*
X142824211Y-93999523D01*
X142881062Y-94090000D01*
X142920184Y-94152262D01*
X143047738Y-94279816D01*
X143120290Y-94325403D01*
X143128701Y-94330688D01*
X143174992Y-94383023D01*
X143185640Y-94452076D01*
X143167723Y-94501654D01*
X143092123Y-94621970D01*
X143039788Y-94668261D01*
X142970734Y-94678909D01*
X142946174Y-94673039D01*
X142779262Y-94614633D01*
X142779249Y-94614630D01*
X142600004Y-94594435D01*
X142599996Y-94594435D01*
X142420750Y-94614630D01*
X142420745Y-94614631D01*
X142250476Y-94674211D01*
X142097739Y-94770183D01*
X142097738Y-94770184D01*
X142072689Y-94795231D01*
X142017107Y-94827321D01*
X141983263Y-94836390D01*
X141968215Y-94840423D01*
X141968209Y-94840426D01*
X141831290Y-94919475D01*
X141831282Y-94919481D01*
X141181465Y-95569298D01*
X141120142Y-95602783D01*
X141107668Y-95604837D01*
X141020750Y-95614630D01*
X140850478Y-95674210D01*
X140697737Y-95770184D01*
X140570184Y-95897737D01*
X140474211Y-96050476D01*
X140414631Y-96220745D01*
X140414630Y-96220750D01*
X140394435Y-96399996D01*
X130535536Y-96399996D01*
X130535063Y-96394592D01*
X130473903Y-96166337D01*
X130374035Y-95952171D01*
X130366568Y-95941506D01*
X130238494Y-95758597D01*
X130071402Y-95591506D01*
X130071396Y-95591501D01*
X129885842Y-95461575D01*
X129842217Y-95406998D01*
X129835023Y-95337500D01*
X129866546Y-95275145D01*
X129885842Y-95258425D01*
X129998908Y-95179255D01*
X130071401Y-95128495D01*
X130238495Y-94961401D01*
X130374035Y-94767830D01*
X130473903Y-94553663D01*
X130535063Y-94325408D01*
X130555659Y-94090000D01*
X130535063Y-93854592D01*
X130482769Y-93659427D01*
X130473905Y-93626344D01*
X130473904Y-93626343D01*
X130473903Y-93626337D01*
X130374035Y-93412171D01*
X130366568Y-93401506D01*
X130238494Y-93218597D01*
X130071402Y-93051506D01*
X130071396Y-93051501D01*
X129885842Y-92921575D01*
X129842217Y-92866998D01*
X129835023Y-92797500D01*
X129866546Y-92735145D01*
X129885842Y-92718425D01*
X129908026Y-92702891D01*
X130071401Y-92588495D01*
X130238495Y-92421401D01*
X130374035Y-92227830D01*
X130473903Y-92013663D01*
X130535063Y-91785408D01*
X130555659Y-91550000D01*
X130551284Y-91499996D01*
X145944435Y-91499996D01*
X145944435Y-91500003D01*
X145964630Y-91679249D01*
X145964631Y-91679254D01*
X146024211Y-91849523D01*
X146062263Y-91910082D01*
X146120184Y-92002262D01*
X146247738Y-92129816D01*
X146256630Y-92135403D01*
X146364061Y-92202907D01*
X146400478Y-92225789D01*
X146550660Y-92278340D01*
X146570745Y-92285368D01*
X146570750Y-92285369D01*
X146749996Y-92305565D01*
X146750000Y-92305565D01*
X146750004Y-92305565D01*
X146929249Y-92285369D01*
X146929252Y-92285368D01*
X146929255Y-92285368D01*
X147099522Y-92225789D01*
X147252262Y-92129816D01*
X147324158Y-92057920D01*
X149289499Y-92057920D01*
X149318340Y-92202907D01*
X149318343Y-92202917D01*
X149374912Y-92339488D01*
X149374919Y-92339501D01*
X149457048Y-92462415D01*
X149457051Y-92462419D01*
X149561580Y-92566948D01*
X149561584Y-92566951D01*
X149684498Y-92649080D01*
X149684511Y-92649087D01*
X149821082Y-92705656D01*
X149821087Y-92705658D01*
X149821091Y-92705658D01*
X149821092Y-92705659D01*
X149966079Y-92734500D01*
X149966082Y-92734500D01*
X150113920Y-92734500D01*
X150211462Y-92715096D01*
X150258913Y-92705658D01*
X150395495Y-92649084D01*
X150518416Y-92566951D01*
X150622951Y-92462416D01*
X150705084Y-92339495D01*
X150706980Y-92334919D01*
X150761656Y-92202917D01*
X150761658Y-92202913D01*
X150776198Y-92129816D01*
X150790500Y-92057920D01*
X150790500Y-91910079D01*
X150761659Y-91765092D01*
X150761658Y-91765091D01*
X150761658Y-91765087D01*
X150761656Y-91765082D01*
X150705087Y-91628511D01*
X150705080Y-91628498D01*
X150622951Y-91505584D01*
X150622948Y-91505580D01*
X150518419Y-91401051D01*
X150518415Y-91401048D01*
X150395501Y-91318919D01*
X150395488Y-91318912D01*
X150258917Y-91262343D01*
X150258907Y-91262340D01*
X150113920Y-91233500D01*
X150113918Y-91233500D01*
X149966082Y-91233500D01*
X149966080Y-91233500D01*
X149821092Y-91262340D01*
X149821082Y-91262343D01*
X149684511Y-91318912D01*
X149684498Y-91318919D01*
X149561584Y-91401048D01*
X149561580Y-91401051D01*
X149457051Y-91505580D01*
X149457048Y-91505584D01*
X149374919Y-91628498D01*
X149374912Y-91628511D01*
X149318343Y-91765082D01*
X149318340Y-91765092D01*
X149289500Y-91910079D01*
X149289500Y-91910082D01*
X149289500Y-92057918D01*
X149289500Y-92057920D01*
X149289499Y-92057920D01*
X147324158Y-92057920D01*
X147379816Y-92002262D01*
X147427911Y-91925717D01*
X147445216Y-91904019D01*
X147480520Y-91868716D01*
X147480520Y-91868715D01*
X147490722Y-91858514D01*
X147490729Y-91858504D01*
X148268535Y-91080698D01*
X148329856Y-91047215D01*
X148342311Y-91045163D01*
X148429255Y-91035368D01*
X148599522Y-90975789D01*
X148752262Y-90879816D01*
X148879816Y-90752262D01*
X148975789Y-90599522D01*
X149035368Y-90429255D01*
X149035369Y-90429249D01*
X149055565Y-90250003D01*
X149055565Y-90249996D01*
X149035369Y-90070750D01*
X149035368Y-90070745D01*
X149023852Y-90037834D01*
X148975789Y-89900478D01*
X148963798Y-89881395D01*
X148936582Y-89838080D01*
X148879816Y-89747738D01*
X148752262Y-89620184D01*
X148712839Y-89595413D01*
X148599523Y-89524211D01*
X148429254Y-89464631D01*
X148429249Y-89464630D01*
X148250004Y-89444435D01*
X148249996Y-89444435D01*
X148070750Y-89464630D01*
X148070745Y-89464631D01*
X147900476Y-89524211D01*
X147747737Y-89620184D01*
X147620184Y-89747737D01*
X147524210Y-89900478D01*
X147464630Y-90070750D01*
X147454837Y-90157668D01*
X147427770Y-90222082D01*
X147419298Y-90231465D01*
X146977660Y-90673103D01*
X146916337Y-90706588D01*
X146876096Y-90708642D01*
X146750004Y-90694435D01*
X146749996Y-90694435D01*
X146570750Y-90714630D01*
X146570745Y-90714631D01*
X146400476Y-90774211D01*
X146247737Y-90870184D01*
X146120184Y-90997737D01*
X146024211Y-91150476D01*
X145964631Y-91320745D01*
X145964630Y-91320750D01*
X145944435Y-91499996D01*
X130551284Y-91499996D01*
X130535063Y-91314592D01*
X130473903Y-91086337D01*
X130374035Y-90872171D01*
X130366568Y-90861506D01*
X130238494Y-90678597D01*
X130071402Y-90511506D01*
X130071396Y-90511501D01*
X129885842Y-90381575D01*
X129842217Y-90326998D01*
X129835023Y-90257500D01*
X129866546Y-90195145D01*
X129885842Y-90178425D01*
X129915486Y-90157668D01*
X130071401Y-90048495D01*
X130238495Y-89881401D01*
X130374035Y-89687830D01*
X130473903Y-89473663D01*
X130535063Y-89245408D01*
X130555659Y-89010000D01*
X130535063Y-88774592D01*
X130473903Y-88546337D01*
X130374035Y-88332171D01*
X130366568Y-88321506D01*
X130238494Y-88138597D01*
X130071402Y-87971506D01*
X130071396Y-87971501D01*
X129885842Y-87841575D01*
X129842217Y-87786998D01*
X129835023Y-87717500D01*
X129866546Y-87655145D01*
X129885842Y-87638425D01*
X129908026Y-87622891D01*
X130071401Y-87508495D01*
X130238495Y-87341401D01*
X130374035Y-87147830D01*
X130473903Y-86933663D01*
X130535063Y-86705408D01*
X130555659Y-86470000D01*
X130535063Y-86234592D01*
X130473903Y-86006337D01*
X130374035Y-85792171D01*
X130366568Y-85781506D01*
X130238494Y-85598597D01*
X130071402Y-85431506D01*
X130071396Y-85431501D01*
X129885842Y-85301575D01*
X129842217Y-85246998D01*
X129835023Y-85177500D01*
X129866546Y-85115145D01*
X129885842Y-85098425D01*
X129996780Y-85020745D01*
X130071401Y-84968495D01*
X130238495Y-84801401D01*
X130374035Y-84607830D01*
X130473903Y-84393663D01*
X130535063Y-84165408D01*
X130549535Y-83999996D01*
X139594435Y-83999996D01*
X139594435Y-84000003D01*
X139614630Y-84179249D01*
X139614631Y-84179254D01*
X139674211Y-84349523D01*
X139740673Y-84455296D01*
X139770184Y-84502262D01*
X139897738Y-84629816D01*
X139988080Y-84686582D01*
X140005833Y-84697737D01*
X140050478Y-84725789D01*
X140101562Y-84743664D01*
X140220745Y-84785368D01*
X140220750Y-84785369D01*
X140399997Y-84805565D01*
X140404968Y-84805565D01*
X140472007Y-84825250D01*
X140492649Y-84841884D01*
X140769298Y-85118533D01*
X140802783Y-85179856D01*
X140804837Y-85192330D01*
X140814630Y-85279249D01*
X140874210Y-85449521D01*
X140946377Y-85564374D01*
X140970184Y-85602262D01*
X141097738Y-85729816D01*
X141250478Y-85825789D01*
X141261984Y-85829815D01*
X141420745Y-85885368D01*
X141420750Y-85885369D01*
X141599996Y-85905565D01*
X141600000Y-85905565D01*
X141600004Y-85905565D01*
X141779249Y-85885369D01*
X141779252Y-85885368D01*
X141779255Y-85885368D01*
X141949522Y-85825789D01*
X142102262Y-85729816D01*
X142229816Y-85602262D01*
X142310398Y-85474015D01*
X142362731Y-85427725D01*
X142431785Y-85417076D01*
X142495633Y-85445451D01*
X142503072Y-85452307D01*
X142615139Y-85564374D01*
X142615149Y-85564385D01*
X142619479Y-85568715D01*
X142619480Y-85568716D01*
X142731284Y-85680520D01*
X142816668Y-85729816D01*
X142816669Y-85729817D01*
X142868211Y-85759575D01*
X142868212Y-85759575D01*
X142868215Y-85759577D01*
X142917105Y-85772677D01*
X142972692Y-85804770D01*
X142997738Y-85829816D01*
X143150478Y-85925789D01*
X143320745Y-85985368D01*
X143320750Y-85985369D01*
X143499996Y-86005565D01*
X143500000Y-86005565D01*
X143500004Y-86005565D01*
X143679249Y-85985369D01*
X143679252Y-85985368D01*
X143679255Y-85985368D01*
X143849522Y-85925789D01*
X144002262Y-85829816D01*
X144129816Y-85702262D01*
X144225789Y-85549522D01*
X144285368Y-85379255D01*
X144292214Y-85318493D01*
X144305565Y-85200003D01*
X144305565Y-85199996D01*
X144285369Y-85020750D01*
X144285368Y-85020745D01*
X144225788Y-84850476D01*
X144158673Y-84743664D01*
X144129816Y-84697738D01*
X144002262Y-84570184D01*
X143931608Y-84525789D01*
X143849523Y-84474211D01*
X143679254Y-84414631D01*
X143679249Y-84414630D01*
X143500004Y-84394435D01*
X143499996Y-84394435D01*
X143320746Y-84414631D01*
X143320745Y-84414631D01*
X143278071Y-84429563D01*
X143208292Y-84433124D01*
X143149437Y-84400202D01*
X143130700Y-84381465D01*
X143097215Y-84320142D01*
X143095163Y-84307686D01*
X143085368Y-84220745D01*
X143025789Y-84050478D01*
X142929816Y-83897738D01*
X142802262Y-83770184D01*
X142681965Y-83694596D01*
X142649523Y-83674211D01*
X142479254Y-83614631D01*
X142479249Y-83614630D01*
X142300004Y-83594435D01*
X142299996Y-83594435D01*
X142120750Y-83614630D01*
X142120745Y-83614631D01*
X141950476Y-83674211D01*
X141797737Y-83770184D01*
X141670184Y-83897737D01*
X141589602Y-84025983D01*
X141537267Y-84072274D01*
X141468213Y-84082922D01*
X141404365Y-84054547D01*
X141396927Y-84047692D01*
X141213663Y-83864428D01*
X141184303Y-83817704D01*
X141125789Y-83650478D01*
X141029816Y-83497738D01*
X140902262Y-83370184D01*
X140826813Y-83322776D01*
X140749523Y-83274211D01*
X140579254Y-83214631D01*
X140579249Y-83214630D01*
X140400004Y-83194435D01*
X140399996Y-83194435D01*
X140220750Y-83214630D01*
X140220745Y-83214631D01*
X140050476Y-83274211D01*
X139897737Y-83370184D01*
X139770184Y-83497737D01*
X139674211Y-83650476D01*
X139614631Y-83820745D01*
X139614630Y-83820750D01*
X139594435Y-83999996D01*
X130549535Y-83999996D01*
X130555659Y-83930000D01*
X130535063Y-83694592D01*
X130473903Y-83466337D01*
X130374035Y-83252171D01*
X130369319Y-83245436D01*
X130238496Y-83058600D01*
X130178518Y-82998622D01*
X130116179Y-82936283D01*
X130082696Y-82874963D01*
X130087680Y-82805271D01*
X130129551Y-82749337D01*
X130160529Y-82732422D01*
X130292086Y-82683354D01*
X130292093Y-82683350D01*
X130407187Y-82597190D01*
X130407190Y-82597187D01*
X130493350Y-82482093D01*
X130493354Y-82482086D01*
X130543596Y-82347379D01*
X130543598Y-82347372D01*
X130549999Y-82287844D01*
X130550000Y-82287827D01*
X130550000Y-81640000D01*
X129633012Y-81640000D01*
X129665925Y-81582993D01*
X129700000Y-81455826D01*
X129700000Y-81324174D01*
X129665925Y-81197007D01*
X129633012Y-81140000D01*
X130550000Y-81140000D01*
X130550000Y-80492172D01*
X130549999Y-80492155D01*
X130543598Y-80432627D01*
X130543596Y-80432620D01*
X130531428Y-80399996D01*
X138994435Y-80399996D01*
X138994435Y-80400003D01*
X139014630Y-80579249D01*
X139014631Y-80579254D01*
X139074211Y-80749523D01*
X139150028Y-80870184D01*
X139170184Y-80902262D01*
X139297738Y-81029816D01*
X139450478Y-81125789D01*
X139620745Y-81185368D01*
X139620750Y-81185369D01*
X139799996Y-81205565D01*
X139800000Y-81205565D01*
X139800004Y-81205565D01*
X139979249Y-81185369D01*
X139979252Y-81185368D01*
X139979255Y-81185368D01*
X140149522Y-81125789D01*
X140302262Y-81029816D01*
X140429816Y-80902262D01*
X140525789Y-80749522D01*
X140585368Y-80579255D01*
X140593101Y-80510616D01*
X140620166Y-80446204D01*
X140677760Y-80406648D01*
X140716321Y-80400500D01*
X142102886Y-80400500D01*
X142169925Y-80420185D01*
X142215680Y-80472989D01*
X142225624Y-80542147D01*
X142196599Y-80605703D01*
X142143840Y-80641542D01*
X142050478Y-80674210D01*
X141897737Y-80770184D01*
X141770184Y-80897737D01*
X141674211Y-81050476D01*
X141614631Y-81220745D01*
X141614630Y-81220750D01*
X141594435Y-81399996D01*
X141594435Y-81400003D01*
X141614630Y-81579249D01*
X141614631Y-81579254D01*
X141674211Y-81749523D01*
X141762479Y-81890000D01*
X141770184Y-81902262D01*
X141897738Y-82029816D01*
X142050478Y-82125789D01*
X142220745Y-82185368D01*
X142307668Y-82195161D01*
X142372079Y-82222226D01*
X142381464Y-82230700D01*
X142455705Y-82304941D01*
X142542516Y-82355060D01*
X142542518Y-82355062D01*
X142580572Y-82377032D01*
X142592636Y-82383998D01*
X142745364Y-82424922D01*
X142745367Y-82424922D01*
X142911074Y-82424922D01*
X142911090Y-82424921D01*
X143012956Y-82424921D01*
X143079995Y-82444606D01*
X143090271Y-82451976D01*
X143093104Y-82454235D01*
X143093106Y-82454237D01*
X143245846Y-82550210D01*
X143370236Y-82593736D01*
X143427011Y-82634457D01*
X143446322Y-82669822D01*
X143474209Y-82749518D01*
X143474210Y-82749522D01*
X143553031Y-82874963D01*
X143570184Y-82902262D01*
X143697738Y-83029816D01*
X143788080Y-83086582D01*
X143850240Y-83125640D01*
X143850478Y-83125789D01*
X144020739Y-83185366D01*
X144020745Y-83185368D01*
X144020750Y-83185369D01*
X144199996Y-83205565D01*
X144200000Y-83205565D01*
X144200004Y-83205565D01*
X144379249Y-83185369D01*
X144379251Y-83185368D01*
X144379255Y-83185368D01*
X144379258Y-83185366D01*
X144379262Y-83185366D01*
X144556095Y-83123489D01*
X144556847Y-83125640D01*
X144615110Y-83116033D01*
X144643586Y-83124394D01*
X144643903Y-83123489D01*
X144690410Y-83139762D01*
X144747187Y-83180483D01*
X144772935Y-83245436D01*
X144759479Y-83313997D01*
X144754451Y-83322776D01*
X144674211Y-83450476D01*
X144614631Y-83620745D01*
X144614630Y-83620750D01*
X144594435Y-83799996D01*
X144594435Y-83800003D01*
X144614630Y-83979249D01*
X144614631Y-83979254D01*
X144674211Y-84149523D01*
X144693200Y-84179743D01*
X144770184Y-84302262D01*
X144897738Y-84429816D01*
X144903003Y-84433124D01*
X145033964Y-84515413D01*
X145050478Y-84525789D01*
X145177352Y-84570184D01*
X145220745Y-84585368D01*
X145220750Y-84585369D01*
X145399996Y-84605565D01*
X145400000Y-84605565D01*
X145400004Y-84605565D01*
X145579249Y-84585369D01*
X145579252Y-84585368D01*
X145579255Y-84585368D01*
X145749522Y-84525789D01*
X145902262Y-84429816D01*
X146029816Y-84302262D01*
X146125789Y-84149522D01*
X146185368Y-83979255D01*
X146203571Y-83817701D01*
X146205565Y-83800003D01*
X146205565Y-83799996D01*
X146185369Y-83620750D01*
X146185368Y-83620745D01*
X146142326Y-83497738D01*
X146125789Y-83450478D01*
X146029816Y-83297738D01*
X146029814Y-83297736D01*
X146029813Y-83297734D01*
X146027550Y-83294896D01*
X146026659Y-83292715D01*
X146026111Y-83291842D01*
X146026264Y-83291745D01*
X146001144Y-83230209D01*
X146000500Y-83217587D01*
X146000500Y-83121842D01*
X146020185Y-83054803D01*
X146072989Y-83009048D01*
X146138382Y-82998622D01*
X146191675Y-83004627D01*
X146199999Y-83005565D01*
X146200000Y-83005565D01*
X146200004Y-83005565D01*
X146379249Y-82985369D01*
X146379252Y-82985368D01*
X146379255Y-82985368D01*
X146549522Y-82925789D01*
X146702262Y-82829816D01*
X146829816Y-82702262D01*
X146925789Y-82549522D01*
X146985368Y-82379255D01*
X146985368Y-82379252D01*
X146985877Y-82377799D01*
X147026599Y-82321023D01*
X147089037Y-82295533D01*
X147179249Y-82285369D01*
X147179252Y-82285368D01*
X147179255Y-82285368D01*
X147349522Y-82225789D01*
X147502262Y-82129816D01*
X147629816Y-82002262D01*
X147725789Y-81849522D01*
X147785368Y-81679255D01*
X147785369Y-81679249D01*
X147805565Y-81500003D01*
X147805565Y-81499996D01*
X147785369Y-81320750D01*
X147785368Y-81320745D01*
X147725789Y-81150478D01*
X147629816Y-80997738D01*
X147502262Y-80870184D01*
X147500250Y-80868920D01*
X147349523Y-80774211D01*
X147179254Y-80714631D01*
X147179249Y-80714630D01*
X147000004Y-80694435D01*
X146999996Y-80694435D01*
X146820750Y-80714630D01*
X146820742Y-80714632D01*
X146691802Y-80759750D01*
X146622023Y-80763311D01*
X146561396Y-80728582D01*
X146529169Y-80666588D01*
X146535575Y-80597013D01*
X146545852Y-80576740D01*
X146625789Y-80449522D01*
X146685368Y-80279255D01*
X146691960Y-80220750D01*
X146705565Y-80100003D01*
X146705565Y-80099996D01*
X146685369Y-79920750D01*
X146685368Y-79920745D01*
X146625789Y-79750478D01*
X146529816Y-79597738D01*
X146402262Y-79470184D01*
X146340353Y-79431284D01*
X146249521Y-79374210D01*
X146079249Y-79314630D01*
X145957187Y-79300877D01*
X145909074Y-79285046D01*
X145881904Y-79269360D01*
X145831785Y-79240423D01*
X145679057Y-79199499D01*
X145520943Y-79199499D01*
X145513347Y-79199499D01*
X145513331Y-79199500D01*
X140479057Y-79199500D01*
X140320943Y-79199500D01*
X140168215Y-79240423D01*
X140168214Y-79240423D01*
X140168212Y-79240424D01*
X140168209Y-79240425D01*
X140118096Y-79269359D01*
X140118095Y-79269360D01*
X140090926Y-79285046D01*
X140031285Y-79319479D01*
X140031282Y-79319481D01*
X139919480Y-79431284D01*
X139919478Y-79431286D01*
X139781465Y-79569299D01*
X139720142Y-79602783D01*
X139707668Y-79604837D01*
X139620750Y-79614630D01*
X139450478Y-79674210D01*
X139297737Y-79770184D01*
X139170184Y-79897737D01*
X139074211Y-80050476D01*
X139014631Y-80220745D01*
X139014630Y-80220750D01*
X138994435Y-80399996D01*
X130531428Y-80399996D01*
X130493354Y-80297913D01*
X130493350Y-80297906D01*
X130407190Y-80182812D01*
X130407187Y-80182809D01*
X130292093Y-80096649D01*
X130292086Y-80096645D01*
X130157379Y-80046403D01*
X130157372Y-80046401D01*
X130097844Y-80040000D01*
X129450000Y-80040000D01*
X129450000Y-80956988D01*
X129392993Y-80924075D01*
X129265826Y-80890000D01*
X129134174Y-80890000D01*
X129007007Y-80924075D01*
X128950000Y-80956988D01*
X128950000Y-80040000D01*
X128302155Y-80040000D01*
X128242627Y-80046401D01*
X128242620Y-80046403D01*
X128107913Y-80096645D01*
X128107906Y-80096649D01*
X127992812Y-80182809D01*
X127992809Y-80182812D01*
X127906649Y-80297906D01*
X127906645Y-80297913D01*
X127856403Y-80432620D01*
X127856401Y-80432627D01*
X127850000Y-80492155D01*
X127850000Y-81140000D01*
X128766988Y-81140000D01*
X128734075Y-81197007D01*
X128700000Y-81324174D01*
X128700000Y-81455826D01*
X128734075Y-81582993D01*
X128766988Y-81640000D01*
X127850000Y-81640000D01*
X127850000Y-82287844D01*
X127856401Y-82347372D01*
X127856403Y-82347379D01*
X127906645Y-82482086D01*
X127906649Y-82482093D01*
X127992809Y-82597187D01*
X127992812Y-82597190D01*
X128107906Y-82683350D01*
X128107913Y-82683354D01*
X128239470Y-82732421D01*
X128295403Y-82774292D01*
X128319821Y-82839756D01*
X128304970Y-82908029D01*
X128283819Y-82936284D01*
X128161503Y-83058600D01*
X128025965Y-83252169D01*
X128025964Y-83252171D01*
X127926098Y-83466335D01*
X127926094Y-83466344D01*
X127864938Y-83694586D01*
X127864936Y-83694596D01*
X127844341Y-83929999D01*
X127300500Y-83929999D01*
X127300500Y-71739500D01*
X127320185Y-71672461D01*
X127372989Y-71626706D01*
X127424500Y-71615500D01*
X137355500Y-71615500D01*
X137422539Y-71635185D01*
G37*
G04 #@! TD.AperFunction*
G04 #@! TA.AperFunction,Conductor*
G36*
X155450000Y-106706988D02*
G01*
X155392993Y-106674075D01*
X155265826Y-106640000D01*
X155134174Y-106640000D01*
X155007007Y-106674075D01*
X154950000Y-106706988D01*
X154950000Y-105033012D01*
X155007007Y-105065925D01*
X155134174Y-105100000D01*
X155265826Y-105100000D01*
X155392993Y-105065925D01*
X155450000Y-105033012D01*
X155450000Y-106706988D01*
G37*
G04 #@! TD.AperFunction*
M02*
