M48
; DRILL file {KiCad 8.0.8+1} date 2025-02-19T14:50:26+0100
; FORMAT={-:-/ absolute / inch / decimal}
; #@! TF.CreationDate,2025-02-19T14:50:26+01:00
; #@! TF.GenerationSoftware,Kicad,Pcbnew,8.0.8+1
; #@! TF.FileFunction,Plated,1,2,PTH
FMAT,2
INCH
; #@! TA.AperFunction,Plated,PTH,ViaDrill
T1C0.0118
; #@! TA.AperFunction,Plated,PTH,ComponentDrill
T2C0.0236
; #@! TA.AperFunction,Plated,PTH,ComponentDrill
T3C0.0394
%
G90
G05
T1
X5.2047Y-4.2598
X5.2165Y-3.2874
X5.2362Y-4.4882
X5.2559Y-4.2618
X5.2677Y-4.2126
X5.2756Y-4.3701
X5.3445Y-3.5925
X5.3465Y-4.4961
X5.3622Y-4.0551
X5.3701Y-4.4646
X5.3839Y-4.3701
X5.4134Y-3.9173
X5.4134Y-4.0354
X5.4409Y-4.5433
X5.4409Y-4.5984
X5.4429Y-3.3071
X5.4528Y-3.1496
X5.4563Y-4.3622
X5.4724Y-4.5276
X5.502Y-4.3307
X5.5039Y-3.1654
X5.5118Y-3.4252
X5.5118Y-3.6654
X5.5276Y-3.3071
X5.5394Y-4.1457
X5.5433Y-4.3307
X5.5591Y-3.7953
X5.5591Y-3.9843
X5.5748Y-3.3504
X5.5827Y-4.3228
X5.5906Y-3.6654
X5.6024Y-3.3228
X5.6063Y-3.2047
X5.6142Y-3.7559
X5.6142Y-3.8386
X5.6201Y-4.5768
X5.6378Y-3.9331
X5.6398Y-4.3169
X5.6457Y-4.4646
X5.6496Y-3.3543
X5.6516Y-3.687
X5.6534Y-3.2214
X5.6594Y-3.5236
X5.6614Y-3.7402
X5.6614Y-3.8268
X5.6614Y-3.8976
X5.6693Y-3.189
X5.6693Y-4.0433
X5.6693Y-4.1575
X5.6693Y-4.5748
X5.6772Y-3.2441
X5.6929Y-4.3307
X5.7008Y-4.4567
X5.7087Y-3.2441
X5.7087Y-3.9606
X5.7126Y-3.4173
X5.7244Y-3.2992
X5.7244Y-3.9213
X5.7244Y-4.5768
X5.7283Y-4.0827
X5.7441Y-3.1535
X5.748Y-4.4567
X5.7559Y-3.2362
X5.7717Y-3.126
X5.7776Y-3.6024
X5.7874Y-3.2087
X5.8071Y-4.0059
X5.8071Y-4.0354
X5.8209Y-3.3386
X5.8268Y-4.6063
X5.8366Y-3.5531
X5.8504Y-3.8189
X5.8504Y-4.315
X5.8504Y-4.7323
X5.8563Y-3.75
X5.8563Y-4.0748
X5.8661Y-3.5039
X5.874Y-4.3465
X5.8898Y-3.8189
X5.8957Y-4.2815
X5.8976Y-3.9921
X5.9055Y-4.7323
X5.9252Y-3.9764
X5.9843Y-4.685
X6.0079Y-4.1654
X6.0236Y-4.3307
X6.0236Y-4.5276
X6.0335Y-4.1437
T3
X5.0866Y-3.2043
X5.0866Y-3.3043
X5.0866Y-3.4043
X5.0866Y-3.5043
X5.0866Y-3.6043
X5.0866Y-3.7043
X5.0866Y-3.8043
X5.0866Y-3.9043
X5.0866Y-4.0043
X5.0866Y-4.1043
X5.0866Y-4.2043
X5.0866Y-4.3043
X5.0866Y-4.4043
X5.0866Y-4.5043
X5.0866Y-4.6043
X5.0866Y-4.7043
X5.0866Y-4.8043
X5.0866Y-4.9043
X5.0866Y-5.0043
X5.0866Y-5.1043
X5.3051Y-4.8327
X5.3051Y-5.0886
X5.4823Y-4.8327
X5.4823Y-5.0886
X5.6988Y-4.8327
X5.6988Y-5.0886
X5.876Y-4.8327
X5.876Y-5.0886
X6.1102Y-3.2181
X6.1102Y-3.3181
X6.1102Y-3.4181
X6.1102Y-3.5181
X6.1102Y-3.6181
X6.1102Y-3.7181
X6.1102Y-3.8181
X6.1102Y-3.9181
X6.1102Y-4.0181
X6.1102Y-4.1181
X6.1102Y-4.2181
X6.1102Y-4.3181
X6.1102Y-4.4181
X6.1102Y-4.5181
X6.1102Y-4.6181
X6.1102Y-4.7181
X6.1102Y-4.8181
X6.1102Y-4.9181
X6.1102Y-5.0181
X6.1102Y-5.1181
T2
G00X5.3772Y-2.9219
M15
G01X5.3772Y-2.8746
M16
G05
G00X5.3772Y-3.0754
M15
G01X5.3772Y-3.0439
M16
G05
G00X5.8197Y-2.9219
M15
G01X5.8197Y-2.8746
M16
G05
G00X5.8197Y-3.0754
M15
G01X5.8197Y-3.0439
M16
G05
M30
