G04 #@! TF.GenerationSoftware,KiCad,Pcbnew,8.0.8+1*
G04 #@! TF.CreationDate,2025-02-19T14:50:03+01:00*
G04 #@! TF.ProjectId,rp2040,72703230-3430-42e6-9b69-6361645f7063,rev?*
G04 #@! TF.SameCoordinates,Original*
G04 #@! TF.FileFunction,Legend,Top*
G04 #@! TF.FilePolarity,Positive*
%FSLAX46Y46*%
G04 Gerber Fmt 4.6, Leading zero omitted, Abs format (unit mm)*
G04 Created by KiCad (PCBNEW 8.0.8+1) date 2025-02-19 14:50:03*
%MOMM*%
%LPD*%
G01*
G04 APERTURE LIST*
%ADD10C,0.120000*%
%ADD11C,0.150000*%
%ADD12C,0.100000*%
G04 APERTURE END LIST*
D10*
X151287664Y-99014285D02*
X151325760Y-99052381D01*
X151325760Y-99052381D02*
X151363855Y-99166666D01*
X151363855Y-99166666D02*
X151363855Y-99242857D01*
X151363855Y-99242857D02*
X151325760Y-99357143D01*
X151325760Y-99357143D02*
X151249569Y-99433333D01*
X151249569Y-99433333D02*
X151173379Y-99471428D01*
X151173379Y-99471428D02*
X151020998Y-99509524D01*
X151020998Y-99509524D02*
X150906712Y-99509524D01*
X150906712Y-99509524D02*
X150754331Y-99471428D01*
X150754331Y-99471428D02*
X150678140Y-99433333D01*
X150678140Y-99433333D02*
X150601950Y-99357143D01*
X150601950Y-99357143D02*
X150563855Y-99242857D01*
X150563855Y-99242857D02*
X150563855Y-99166666D01*
X150563855Y-99166666D02*
X150601950Y-99052381D01*
X150601950Y-99052381D02*
X150640045Y-99014285D01*
X151363855Y-98252381D02*
X151363855Y-98709524D01*
X151363855Y-98480952D02*
X150563855Y-98480952D01*
X150563855Y-98480952D02*
X150678140Y-98557143D01*
X150678140Y-98557143D02*
X150754331Y-98633333D01*
X150754331Y-98633333D02*
X150792426Y-98709524D01*
X150830521Y-97566666D02*
X151363855Y-97566666D01*
X150525760Y-97757142D02*
X151097188Y-97947619D01*
X151097188Y-97947619D02*
X151097188Y-97452380D01*
X137863855Y-94133332D02*
X137482902Y-94399999D01*
X137863855Y-94590475D02*
X137063855Y-94590475D01*
X137063855Y-94590475D02*
X137063855Y-94285713D01*
X137063855Y-94285713D02*
X137101950Y-94209523D01*
X137101950Y-94209523D02*
X137140045Y-94171428D01*
X137140045Y-94171428D02*
X137216236Y-94133332D01*
X137216236Y-94133332D02*
X137330521Y-94133332D01*
X137330521Y-94133332D02*
X137406712Y-94171428D01*
X137406712Y-94171428D02*
X137444807Y-94209523D01*
X137444807Y-94209523D02*
X137482902Y-94285713D01*
X137482902Y-94285713D02*
X137482902Y-94590475D01*
X137863855Y-93371428D02*
X137863855Y-93828571D01*
X137863855Y-93599999D02*
X137063855Y-93599999D01*
X137063855Y-93599999D02*
X137178140Y-93676190D01*
X137178140Y-93676190D02*
X137254331Y-93752380D01*
X137254331Y-93752380D02*
X137292426Y-93828571D01*
X144363855Y-101133332D02*
X143982902Y-101399999D01*
X144363855Y-101590475D02*
X143563855Y-101590475D01*
X143563855Y-101590475D02*
X143563855Y-101285713D01*
X143563855Y-101285713D02*
X143601950Y-101209523D01*
X143601950Y-101209523D02*
X143640045Y-101171428D01*
X143640045Y-101171428D02*
X143716236Y-101133332D01*
X143716236Y-101133332D02*
X143830521Y-101133332D01*
X143830521Y-101133332D02*
X143906712Y-101171428D01*
X143906712Y-101171428D02*
X143944807Y-101209523D01*
X143944807Y-101209523D02*
X143982902Y-101285713D01*
X143982902Y-101285713D02*
X143982902Y-101590475D01*
X143906712Y-100676190D02*
X143868617Y-100752380D01*
X143868617Y-100752380D02*
X143830521Y-100790475D01*
X143830521Y-100790475D02*
X143754331Y-100828571D01*
X143754331Y-100828571D02*
X143716236Y-100828571D01*
X143716236Y-100828571D02*
X143640045Y-100790475D01*
X143640045Y-100790475D02*
X143601950Y-100752380D01*
X143601950Y-100752380D02*
X143563855Y-100676190D01*
X143563855Y-100676190D02*
X143563855Y-100523809D01*
X143563855Y-100523809D02*
X143601950Y-100447618D01*
X143601950Y-100447618D02*
X143640045Y-100409523D01*
X143640045Y-100409523D02*
X143716236Y-100371428D01*
X143716236Y-100371428D02*
X143754331Y-100371428D01*
X143754331Y-100371428D02*
X143830521Y-100409523D01*
X143830521Y-100409523D02*
X143868617Y-100447618D01*
X143868617Y-100447618D02*
X143906712Y-100523809D01*
X143906712Y-100523809D02*
X143906712Y-100676190D01*
X143906712Y-100676190D02*
X143944807Y-100752380D01*
X143944807Y-100752380D02*
X143982902Y-100790475D01*
X143982902Y-100790475D02*
X144059093Y-100828571D01*
X144059093Y-100828571D02*
X144211474Y-100828571D01*
X144211474Y-100828571D02*
X144287664Y-100790475D01*
X144287664Y-100790475D02*
X144325760Y-100752380D01*
X144325760Y-100752380D02*
X144363855Y-100676190D01*
X144363855Y-100676190D02*
X144363855Y-100523809D01*
X144363855Y-100523809D02*
X144325760Y-100447618D01*
X144325760Y-100447618D02*
X144287664Y-100409523D01*
X144287664Y-100409523D02*
X144211474Y-100371428D01*
X144211474Y-100371428D02*
X144059093Y-100371428D01*
X144059093Y-100371428D02*
X143982902Y-100409523D01*
X143982902Y-100409523D02*
X143944807Y-100447618D01*
X143944807Y-100447618D02*
X143906712Y-100523809D01*
X147233333Y-90063855D02*
X147233333Y-90635283D01*
X147233333Y-90635283D02*
X147195238Y-90749569D01*
X147195238Y-90749569D02*
X147119047Y-90825760D01*
X147119047Y-90825760D02*
X147004762Y-90863855D01*
X147004762Y-90863855D02*
X146928571Y-90863855D01*
X147576190Y-90140045D02*
X147614286Y-90101950D01*
X147614286Y-90101950D02*
X147690476Y-90063855D01*
X147690476Y-90063855D02*
X147880952Y-90063855D01*
X147880952Y-90063855D02*
X147957143Y-90101950D01*
X147957143Y-90101950D02*
X147995238Y-90140045D01*
X147995238Y-90140045D02*
X148033333Y-90216236D01*
X148033333Y-90216236D02*
X148033333Y-90292426D01*
X148033333Y-90292426D02*
X147995238Y-90406712D01*
X147995238Y-90406712D02*
X147538095Y-90863855D01*
X147538095Y-90863855D02*
X148033333Y-90863855D01*
X143408760Y-127333332D02*
X143456379Y-127190475D01*
X143456379Y-127190475D02*
X143456379Y-126952380D01*
X143456379Y-126952380D02*
X143408760Y-126857142D01*
X143408760Y-126857142D02*
X143361140Y-126809523D01*
X143361140Y-126809523D02*
X143265902Y-126761904D01*
X143265902Y-126761904D02*
X143170664Y-126761904D01*
X143170664Y-126761904D02*
X143075426Y-126809523D01*
X143075426Y-126809523D02*
X143027807Y-126857142D01*
X143027807Y-126857142D02*
X142980188Y-126952380D01*
X142980188Y-126952380D02*
X142932569Y-127142856D01*
X142932569Y-127142856D02*
X142884950Y-127238094D01*
X142884950Y-127238094D02*
X142837331Y-127285713D01*
X142837331Y-127285713D02*
X142742093Y-127333332D01*
X142742093Y-127333332D02*
X142646855Y-127333332D01*
X142646855Y-127333332D02*
X142551617Y-127285713D01*
X142551617Y-127285713D02*
X142503998Y-127238094D01*
X142503998Y-127238094D02*
X142456379Y-127142856D01*
X142456379Y-127142856D02*
X142456379Y-126904761D01*
X142456379Y-126904761D02*
X142503998Y-126761904D01*
X142456379Y-126428570D02*
X143456379Y-126190475D01*
X143456379Y-126190475D02*
X142742093Y-125999999D01*
X142742093Y-125999999D02*
X143456379Y-125809523D01*
X143456379Y-125809523D02*
X142456379Y-125571428D01*
X143456379Y-124666666D02*
X143456379Y-125238094D01*
X143456379Y-124952380D02*
X142456379Y-124952380D01*
X142456379Y-124952380D02*
X142599236Y-125047618D01*
X142599236Y-125047618D02*
X142694474Y-125142856D01*
X142694474Y-125142856D02*
X142742093Y-125238094D01*
X147466667Y-105787664D02*
X147428571Y-105825760D01*
X147428571Y-105825760D02*
X147314286Y-105863855D01*
X147314286Y-105863855D02*
X147238095Y-105863855D01*
X147238095Y-105863855D02*
X147123809Y-105825760D01*
X147123809Y-105825760D02*
X147047619Y-105749569D01*
X147047619Y-105749569D02*
X147009524Y-105673379D01*
X147009524Y-105673379D02*
X146971428Y-105520998D01*
X146971428Y-105520998D02*
X146971428Y-105406712D01*
X146971428Y-105406712D02*
X147009524Y-105254331D01*
X147009524Y-105254331D02*
X147047619Y-105178140D01*
X147047619Y-105178140D02*
X147123809Y-105101950D01*
X147123809Y-105101950D02*
X147238095Y-105063855D01*
X147238095Y-105063855D02*
X147314286Y-105063855D01*
X147314286Y-105063855D02*
X147428571Y-105101950D01*
X147428571Y-105101950D02*
X147466667Y-105140045D01*
X147771428Y-105140045D02*
X147809524Y-105101950D01*
X147809524Y-105101950D02*
X147885714Y-105063855D01*
X147885714Y-105063855D02*
X148076190Y-105063855D01*
X148076190Y-105063855D02*
X148152381Y-105101950D01*
X148152381Y-105101950D02*
X148190476Y-105140045D01*
X148190476Y-105140045D02*
X148228571Y-105216236D01*
X148228571Y-105216236D02*
X148228571Y-105292426D01*
X148228571Y-105292426D02*
X148190476Y-105406712D01*
X148190476Y-105406712D02*
X147733333Y-105863855D01*
X147733333Y-105863855D02*
X148228571Y-105863855D01*
X144613855Y-83633332D02*
X144232902Y-83899999D01*
X144613855Y-84090475D02*
X143813855Y-84090475D01*
X143813855Y-84090475D02*
X143813855Y-83785713D01*
X143813855Y-83785713D02*
X143851950Y-83709523D01*
X143851950Y-83709523D02*
X143890045Y-83671428D01*
X143890045Y-83671428D02*
X143966236Y-83633332D01*
X143966236Y-83633332D02*
X144080521Y-83633332D01*
X144080521Y-83633332D02*
X144156712Y-83671428D01*
X144156712Y-83671428D02*
X144194807Y-83709523D01*
X144194807Y-83709523D02*
X144232902Y-83785713D01*
X144232902Y-83785713D02*
X144232902Y-84090475D01*
X143813855Y-83366666D02*
X143813855Y-82871428D01*
X143813855Y-82871428D02*
X144118617Y-83138094D01*
X144118617Y-83138094D02*
X144118617Y-83023809D01*
X144118617Y-83023809D02*
X144156712Y-82947618D01*
X144156712Y-82947618D02*
X144194807Y-82909523D01*
X144194807Y-82909523D02*
X144270998Y-82871428D01*
X144270998Y-82871428D02*
X144461474Y-82871428D01*
X144461474Y-82871428D02*
X144537664Y-82909523D01*
X144537664Y-82909523D02*
X144575760Y-82947618D01*
X144575760Y-82947618D02*
X144613855Y-83023809D01*
X144613855Y-83023809D02*
X144613855Y-83252380D01*
X144613855Y-83252380D02*
X144575760Y-83328571D01*
X144575760Y-83328571D02*
X144537664Y-83366666D01*
X138613855Y-118383332D02*
X138232902Y-118649999D01*
X138613855Y-118840475D02*
X137813855Y-118840475D01*
X137813855Y-118840475D02*
X137813855Y-118535713D01*
X137813855Y-118535713D02*
X137851950Y-118459523D01*
X137851950Y-118459523D02*
X137890045Y-118421428D01*
X137890045Y-118421428D02*
X137966236Y-118383332D01*
X137966236Y-118383332D02*
X138080521Y-118383332D01*
X138080521Y-118383332D02*
X138156712Y-118421428D01*
X138156712Y-118421428D02*
X138194807Y-118459523D01*
X138194807Y-118459523D02*
X138232902Y-118535713D01*
X138232902Y-118535713D02*
X138232902Y-118840475D01*
X137890045Y-118078571D02*
X137851950Y-118040475D01*
X137851950Y-118040475D02*
X137813855Y-117964285D01*
X137813855Y-117964285D02*
X137813855Y-117773809D01*
X137813855Y-117773809D02*
X137851950Y-117697618D01*
X137851950Y-117697618D02*
X137890045Y-117659523D01*
X137890045Y-117659523D02*
X137966236Y-117621428D01*
X137966236Y-117621428D02*
X138042426Y-117621428D01*
X138042426Y-117621428D02*
X138156712Y-117659523D01*
X138156712Y-117659523D02*
X138613855Y-118116666D01*
X138613855Y-118116666D02*
X138613855Y-117621428D01*
X138482902Y-115380951D02*
X138863855Y-115380951D01*
X138063855Y-115647618D02*
X138482902Y-115380951D01*
X138482902Y-115380951D02*
X138063855Y-115114285D01*
X138863855Y-114428571D02*
X138863855Y-114885714D01*
X138863855Y-114657142D02*
X138063855Y-114657142D01*
X138063855Y-114657142D02*
X138178140Y-114733333D01*
X138178140Y-114733333D02*
X138254331Y-114809523D01*
X138254331Y-114809523D02*
X138292426Y-114885714D01*
X141287664Y-101764285D02*
X141325760Y-101802381D01*
X141325760Y-101802381D02*
X141363855Y-101916666D01*
X141363855Y-101916666D02*
X141363855Y-101992857D01*
X141363855Y-101992857D02*
X141325760Y-102107143D01*
X141325760Y-102107143D02*
X141249569Y-102183333D01*
X141249569Y-102183333D02*
X141173379Y-102221428D01*
X141173379Y-102221428D02*
X141020998Y-102259524D01*
X141020998Y-102259524D02*
X140906712Y-102259524D01*
X140906712Y-102259524D02*
X140754331Y-102221428D01*
X140754331Y-102221428D02*
X140678140Y-102183333D01*
X140678140Y-102183333D02*
X140601950Y-102107143D01*
X140601950Y-102107143D02*
X140563855Y-101992857D01*
X140563855Y-101992857D02*
X140563855Y-101916666D01*
X140563855Y-101916666D02*
X140601950Y-101802381D01*
X140601950Y-101802381D02*
X140640045Y-101764285D01*
X141363855Y-101002381D02*
X141363855Y-101459524D01*
X141363855Y-101230952D02*
X140563855Y-101230952D01*
X140563855Y-101230952D02*
X140678140Y-101307143D01*
X140678140Y-101307143D02*
X140754331Y-101383333D01*
X140754331Y-101383333D02*
X140792426Y-101459524D01*
X141363855Y-100240476D02*
X141363855Y-100697619D01*
X141363855Y-100469047D02*
X140563855Y-100469047D01*
X140563855Y-100469047D02*
X140678140Y-100545238D01*
X140678140Y-100545238D02*
X140754331Y-100621428D01*
X140754331Y-100621428D02*
X140792426Y-100697619D01*
X145787664Y-116633332D02*
X145825760Y-116671428D01*
X145825760Y-116671428D02*
X145863855Y-116785713D01*
X145863855Y-116785713D02*
X145863855Y-116861904D01*
X145863855Y-116861904D02*
X145825760Y-116976190D01*
X145825760Y-116976190D02*
X145749569Y-117052380D01*
X145749569Y-117052380D02*
X145673379Y-117090475D01*
X145673379Y-117090475D02*
X145520998Y-117128571D01*
X145520998Y-117128571D02*
X145406712Y-117128571D01*
X145406712Y-117128571D02*
X145254331Y-117090475D01*
X145254331Y-117090475D02*
X145178140Y-117052380D01*
X145178140Y-117052380D02*
X145101950Y-116976190D01*
X145101950Y-116976190D02*
X145063855Y-116861904D01*
X145063855Y-116861904D02*
X145063855Y-116785713D01*
X145063855Y-116785713D02*
X145101950Y-116671428D01*
X145101950Y-116671428D02*
X145140045Y-116633332D01*
X145330521Y-115947618D02*
X145863855Y-115947618D01*
X145025760Y-116138094D02*
X145597188Y-116328571D01*
X145597188Y-116328571D02*
X145597188Y-115833332D01*
X147866667Y-103287664D02*
X147828571Y-103325760D01*
X147828571Y-103325760D02*
X147714286Y-103363855D01*
X147714286Y-103363855D02*
X147638095Y-103363855D01*
X147638095Y-103363855D02*
X147523809Y-103325760D01*
X147523809Y-103325760D02*
X147447619Y-103249569D01*
X147447619Y-103249569D02*
X147409524Y-103173379D01*
X147409524Y-103173379D02*
X147371428Y-103020998D01*
X147371428Y-103020998D02*
X147371428Y-102906712D01*
X147371428Y-102906712D02*
X147409524Y-102754331D01*
X147409524Y-102754331D02*
X147447619Y-102678140D01*
X147447619Y-102678140D02*
X147523809Y-102601950D01*
X147523809Y-102601950D02*
X147638095Y-102563855D01*
X147638095Y-102563855D02*
X147714286Y-102563855D01*
X147714286Y-102563855D02*
X147828571Y-102601950D01*
X147828571Y-102601950D02*
X147866667Y-102640045D01*
X148590476Y-102563855D02*
X148209524Y-102563855D01*
X148209524Y-102563855D02*
X148171428Y-102944807D01*
X148171428Y-102944807D02*
X148209524Y-102906712D01*
X148209524Y-102906712D02*
X148285714Y-102868617D01*
X148285714Y-102868617D02*
X148476190Y-102868617D01*
X148476190Y-102868617D02*
X148552381Y-102906712D01*
X148552381Y-102906712D02*
X148590476Y-102944807D01*
X148590476Y-102944807D02*
X148628571Y-103020998D01*
X148628571Y-103020998D02*
X148628571Y-103211474D01*
X148628571Y-103211474D02*
X148590476Y-103287664D01*
X148590476Y-103287664D02*
X148552381Y-103325760D01*
X148552381Y-103325760D02*
X148476190Y-103363855D01*
X148476190Y-103363855D02*
X148285714Y-103363855D01*
X148285714Y-103363855D02*
X148209524Y-103325760D01*
X148209524Y-103325760D02*
X148171428Y-103287664D01*
D11*
X147088095Y-96254819D02*
X147088095Y-97064342D01*
X147088095Y-97064342D02*
X147135714Y-97159580D01*
X147135714Y-97159580D02*
X147183333Y-97207200D01*
X147183333Y-97207200D02*
X147278571Y-97254819D01*
X147278571Y-97254819D02*
X147469047Y-97254819D01*
X147469047Y-97254819D02*
X147564285Y-97207200D01*
X147564285Y-97207200D02*
X147611904Y-97159580D01*
X147611904Y-97159580D02*
X147659523Y-97064342D01*
X147659523Y-97064342D02*
X147659523Y-96254819D01*
X148611904Y-96254819D02*
X148135714Y-96254819D01*
X148135714Y-96254819D02*
X148088095Y-96731009D01*
X148088095Y-96731009D02*
X148135714Y-96683390D01*
X148135714Y-96683390D02*
X148230952Y-96635771D01*
X148230952Y-96635771D02*
X148469047Y-96635771D01*
X148469047Y-96635771D02*
X148564285Y-96683390D01*
X148564285Y-96683390D02*
X148611904Y-96731009D01*
X148611904Y-96731009D02*
X148659523Y-96826247D01*
X148659523Y-96826247D02*
X148659523Y-97064342D01*
X148659523Y-97064342D02*
X148611904Y-97159580D01*
X148611904Y-97159580D02*
X148564285Y-97207200D01*
X148564285Y-97207200D02*
X148469047Y-97254819D01*
X148469047Y-97254819D02*
X148230952Y-97254819D01*
X148230952Y-97254819D02*
X148135714Y-97207200D01*
X148135714Y-97207200D02*
X148088095Y-97159580D01*
D10*
X135787664Y-94133332D02*
X135825760Y-94171428D01*
X135825760Y-94171428D02*
X135863855Y-94285713D01*
X135863855Y-94285713D02*
X135863855Y-94361904D01*
X135863855Y-94361904D02*
X135825760Y-94476190D01*
X135825760Y-94476190D02*
X135749569Y-94552380D01*
X135749569Y-94552380D02*
X135673379Y-94590475D01*
X135673379Y-94590475D02*
X135520998Y-94628571D01*
X135520998Y-94628571D02*
X135406712Y-94628571D01*
X135406712Y-94628571D02*
X135254331Y-94590475D01*
X135254331Y-94590475D02*
X135178140Y-94552380D01*
X135178140Y-94552380D02*
X135101950Y-94476190D01*
X135101950Y-94476190D02*
X135063855Y-94361904D01*
X135063855Y-94361904D02*
X135063855Y-94285713D01*
X135063855Y-94285713D02*
X135101950Y-94171428D01*
X135101950Y-94171428D02*
X135140045Y-94133332D01*
X135863855Y-93371428D02*
X135863855Y-93828571D01*
X135863855Y-93599999D02*
X135063855Y-93599999D01*
X135063855Y-93599999D02*
X135178140Y-93676190D01*
X135178140Y-93676190D02*
X135254331Y-93752380D01*
X135254331Y-93752380D02*
X135292426Y-93828571D01*
X147863855Y-88333332D02*
X147482902Y-88599999D01*
X147863855Y-88790475D02*
X147063855Y-88790475D01*
X147063855Y-88790475D02*
X147063855Y-88485713D01*
X147063855Y-88485713D02*
X147101950Y-88409523D01*
X147101950Y-88409523D02*
X147140045Y-88371428D01*
X147140045Y-88371428D02*
X147216236Y-88333332D01*
X147216236Y-88333332D02*
X147330521Y-88333332D01*
X147330521Y-88333332D02*
X147406712Y-88371428D01*
X147406712Y-88371428D02*
X147444807Y-88409523D01*
X147444807Y-88409523D02*
X147482902Y-88485713D01*
X147482902Y-88485713D02*
X147482902Y-88790475D01*
X147863855Y-87952380D02*
X147863855Y-87799999D01*
X147863855Y-87799999D02*
X147825760Y-87723809D01*
X147825760Y-87723809D02*
X147787664Y-87685713D01*
X147787664Y-87685713D02*
X147673379Y-87609523D01*
X147673379Y-87609523D02*
X147520998Y-87571428D01*
X147520998Y-87571428D02*
X147216236Y-87571428D01*
X147216236Y-87571428D02*
X147140045Y-87609523D01*
X147140045Y-87609523D02*
X147101950Y-87647618D01*
X147101950Y-87647618D02*
X147063855Y-87723809D01*
X147063855Y-87723809D02*
X147063855Y-87876190D01*
X147063855Y-87876190D02*
X147101950Y-87952380D01*
X147101950Y-87952380D02*
X147140045Y-87990475D01*
X147140045Y-87990475D02*
X147216236Y-88028571D01*
X147216236Y-88028571D02*
X147406712Y-88028571D01*
X147406712Y-88028571D02*
X147482902Y-87990475D01*
X147482902Y-87990475D02*
X147520998Y-87952380D01*
X147520998Y-87952380D02*
X147559093Y-87876190D01*
X147559093Y-87876190D02*
X147559093Y-87723809D01*
X147559093Y-87723809D02*
X147520998Y-87647618D01*
X147520998Y-87647618D02*
X147482902Y-87609523D01*
X147482902Y-87609523D02*
X147406712Y-87571428D01*
X140613855Y-83633332D02*
X140232902Y-83899999D01*
X140613855Y-84090475D02*
X139813855Y-84090475D01*
X139813855Y-84090475D02*
X139813855Y-83785713D01*
X139813855Y-83785713D02*
X139851950Y-83709523D01*
X139851950Y-83709523D02*
X139890045Y-83671428D01*
X139890045Y-83671428D02*
X139966236Y-83633332D01*
X139966236Y-83633332D02*
X140080521Y-83633332D01*
X140080521Y-83633332D02*
X140156712Y-83671428D01*
X140156712Y-83671428D02*
X140194807Y-83709523D01*
X140194807Y-83709523D02*
X140232902Y-83785713D01*
X140232902Y-83785713D02*
X140232902Y-84090475D01*
X139813855Y-82909523D02*
X139813855Y-83290475D01*
X139813855Y-83290475D02*
X140194807Y-83328571D01*
X140194807Y-83328571D02*
X140156712Y-83290475D01*
X140156712Y-83290475D02*
X140118617Y-83214285D01*
X140118617Y-83214285D02*
X140118617Y-83023809D01*
X140118617Y-83023809D02*
X140156712Y-82947618D01*
X140156712Y-82947618D02*
X140194807Y-82909523D01*
X140194807Y-82909523D02*
X140270998Y-82871428D01*
X140270998Y-82871428D02*
X140461474Y-82871428D01*
X140461474Y-82871428D02*
X140537664Y-82909523D01*
X140537664Y-82909523D02*
X140575760Y-82947618D01*
X140575760Y-82947618D02*
X140613855Y-83023809D01*
X140613855Y-83023809D02*
X140613855Y-83214285D01*
X140613855Y-83214285D02*
X140575760Y-83290475D01*
X140575760Y-83290475D02*
X140537664Y-83328571D01*
X144366667Y-97613855D02*
X144100000Y-97232902D01*
X143909524Y-97613855D02*
X143909524Y-96813855D01*
X143909524Y-96813855D02*
X144214286Y-96813855D01*
X144214286Y-96813855D02*
X144290476Y-96851950D01*
X144290476Y-96851950D02*
X144328571Y-96890045D01*
X144328571Y-96890045D02*
X144366667Y-96966236D01*
X144366667Y-96966236D02*
X144366667Y-97080521D01*
X144366667Y-97080521D02*
X144328571Y-97156712D01*
X144328571Y-97156712D02*
X144290476Y-97194807D01*
X144290476Y-97194807D02*
X144214286Y-97232902D01*
X144214286Y-97232902D02*
X143909524Y-97232902D01*
X144633333Y-96813855D02*
X145166667Y-96813855D01*
X145166667Y-96813855D02*
X144823809Y-97613855D01*
X134866667Y-109537664D02*
X134828571Y-109575760D01*
X134828571Y-109575760D02*
X134714286Y-109613855D01*
X134714286Y-109613855D02*
X134638095Y-109613855D01*
X134638095Y-109613855D02*
X134523809Y-109575760D01*
X134523809Y-109575760D02*
X134447619Y-109499569D01*
X134447619Y-109499569D02*
X134409524Y-109423379D01*
X134409524Y-109423379D02*
X134371428Y-109270998D01*
X134371428Y-109270998D02*
X134371428Y-109156712D01*
X134371428Y-109156712D02*
X134409524Y-109004331D01*
X134409524Y-109004331D02*
X134447619Y-108928140D01*
X134447619Y-108928140D02*
X134523809Y-108851950D01*
X134523809Y-108851950D02*
X134638095Y-108813855D01*
X134638095Y-108813855D02*
X134714286Y-108813855D01*
X134714286Y-108813855D02*
X134828571Y-108851950D01*
X134828571Y-108851950D02*
X134866667Y-108890045D01*
X135247619Y-109613855D02*
X135400000Y-109613855D01*
X135400000Y-109613855D02*
X135476190Y-109575760D01*
X135476190Y-109575760D02*
X135514286Y-109537664D01*
X135514286Y-109537664D02*
X135590476Y-109423379D01*
X135590476Y-109423379D02*
X135628571Y-109270998D01*
X135628571Y-109270998D02*
X135628571Y-108966236D01*
X135628571Y-108966236D02*
X135590476Y-108890045D01*
X135590476Y-108890045D02*
X135552381Y-108851950D01*
X135552381Y-108851950D02*
X135476190Y-108813855D01*
X135476190Y-108813855D02*
X135323809Y-108813855D01*
X135323809Y-108813855D02*
X135247619Y-108851950D01*
X135247619Y-108851950D02*
X135209524Y-108890045D01*
X135209524Y-108890045D02*
X135171428Y-108966236D01*
X135171428Y-108966236D02*
X135171428Y-109156712D01*
X135171428Y-109156712D02*
X135209524Y-109232902D01*
X135209524Y-109232902D02*
X135247619Y-109270998D01*
X135247619Y-109270998D02*
X135323809Y-109309093D01*
X135323809Y-109309093D02*
X135476190Y-109309093D01*
X135476190Y-109309093D02*
X135552381Y-109270998D01*
X135552381Y-109270998D02*
X135590476Y-109232902D01*
X135590476Y-109232902D02*
X135628571Y-109156712D01*
X141933333Y-79828855D02*
X141933333Y-80400283D01*
X141933333Y-80400283D02*
X141895238Y-80514569D01*
X141895238Y-80514569D02*
X141819047Y-80590760D01*
X141819047Y-80590760D02*
X141704762Y-80628855D01*
X141704762Y-80628855D02*
X141628571Y-80628855D01*
X142238095Y-79828855D02*
X142733333Y-79828855D01*
X142733333Y-79828855D02*
X142466667Y-80133617D01*
X142466667Y-80133617D02*
X142580952Y-80133617D01*
X142580952Y-80133617D02*
X142657143Y-80171712D01*
X142657143Y-80171712D02*
X142695238Y-80209807D01*
X142695238Y-80209807D02*
X142733333Y-80285998D01*
X142733333Y-80285998D02*
X142733333Y-80476474D01*
X142733333Y-80476474D02*
X142695238Y-80552664D01*
X142695238Y-80552664D02*
X142657143Y-80590760D01*
X142657143Y-80590760D02*
X142580952Y-80628855D01*
X142580952Y-80628855D02*
X142352381Y-80628855D01*
X142352381Y-80628855D02*
X142276190Y-80590760D01*
X142276190Y-80590760D02*
X142238095Y-80552664D01*
X142787664Y-116633332D02*
X142825760Y-116671428D01*
X142825760Y-116671428D02*
X142863855Y-116785713D01*
X142863855Y-116785713D02*
X142863855Y-116861904D01*
X142863855Y-116861904D02*
X142825760Y-116976190D01*
X142825760Y-116976190D02*
X142749569Y-117052380D01*
X142749569Y-117052380D02*
X142673379Y-117090475D01*
X142673379Y-117090475D02*
X142520998Y-117128571D01*
X142520998Y-117128571D02*
X142406712Y-117128571D01*
X142406712Y-117128571D02*
X142254331Y-117090475D01*
X142254331Y-117090475D02*
X142178140Y-117052380D01*
X142178140Y-117052380D02*
X142101950Y-116976190D01*
X142101950Y-116976190D02*
X142063855Y-116861904D01*
X142063855Y-116861904D02*
X142063855Y-116785713D01*
X142063855Y-116785713D02*
X142101950Y-116671428D01*
X142101950Y-116671428D02*
X142140045Y-116633332D01*
X142063855Y-115947618D02*
X142063855Y-116099999D01*
X142063855Y-116099999D02*
X142101950Y-116176190D01*
X142101950Y-116176190D02*
X142140045Y-116214285D01*
X142140045Y-116214285D02*
X142254331Y-116290475D01*
X142254331Y-116290475D02*
X142406712Y-116328571D01*
X142406712Y-116328571D02*
X142711474Y-116328571D01*
X142711474Y-116328571D02*
X142787664Y-116290475D01*
X142787664Y-116290475D02*
X142825760Y-116252380D01*
X142825760Y-116252380D02*
X142863855Y-116176190D01*
X142863855Y-116176190D02*
X142863855Y-116023809D01*
X142863855Y-116023809D02*
X142825760Y-115947618D01*
X142825760Y-115947618D02*
X142787664Y-115909523D01*
X142787664Y-115909523D02*
X142711474Y-115871428D01*
X142711474Y-115871428D02*
X142520998Y-115871428D01*
X142520998Y-115871428D02*
X142444807Y-115909523D01*
X142444807Y-115909523D02*
X142406712Y-115947618D01*
X142406712Y-115947618D02*
X142368617Y-116023809D01*
X142368617Y-116023809D02*
X142368617Y-116176190D01*
X142368617Y-116176190D02*
X142406712Y-116252380D01*
X142406712Y-116252380D02*
X142444807Y-116290475D01*
X142444807Y-116290475D02*
X142520998Y-116328571D01*
X141890476Y-84713855D02*
X141890476Y-85361474D01*
X141890476Y-85361474D02*
X141928571Y-85437664D01*
X141928571Y-85437664D02*
X141966666Y-85475760D01*
X141966666Y-85475760D02*
X142042857Y-85513855D01*
X142042857Y-85513855D02*
X142195238Y-85513855D01*
X142195238Y-85513855D02*
X142271428Y-85475760D01*
X142271428Y-85475760D02*
X142309523Y-85437664D01*
X142309523Y-85437664D02*
X142347619Y-85361474D01*
X142347619Y-85361474D02*
X142347619Y-84713855D01*
X142652380Y-84713855D02*
X143147618Y-84713855D01*
X143147618Y-84713855D02*
X142880952Y-85018617D01*
X142880952Y-85018617D02*
X142995237Y-85018617D01*
X142995237Y-85018617D02*
X143071428Y-85056712D01*
X143071428Y-85056712D02*
X143109523Y-85094807D01*
X143109523Y-85094807D02*
X143147618Y-85170998D01*
X143147618Y-85170998D02*
X143147618Y-85361474D01*
X143147618Y-85361474D02*
X143109523Y-85437664D01*
X143109523Y-85437664D02*
X143071428Y-85475760D01*
X143071428Y-85475760D02*
X142995237Y-85513855D01*
X142995237Y-85513855D02*
X142766666Y-85513855D01*
X142766666Y-85513855D02*
X142690475Y-85475760D01*
X142690475Y-85475760D02*
X142652380Y-85437664D01*
X142287664Y-94514285D02*
X142325760Y-94552381D01*
X142325760Y-94552381D02*
X142363855Y-94666666D01*
X142363855Y-94666666D02*
X142363855Y-94742857D01*
X142363855Y-94742857D02*
X142325760Y-94857143D01*
X142325760Y-94857143D02*
X142249569Y-94933333D01*
X142249569Y-94933333D02*
X142173379Y-94971428D01*
X142173379Y-94971428D02*
X142020998Y-95009524D01*
X142020998Y-95009524D02*
X141906712Y-95009524D01*
X141906712Y-95009524D02*
X141754331Y-94971428D01*
X141754331Y-94971428D02*
X141678140Y-94933333D01*
X141678140Y-94933333D02*
X141601950Y-94857143D01*
X141601950Y-94857143D02*
X141563855Y-94742857D01*
X141563855Y-94742857D02*
X141563855Y-94666666D01*
X141563855Y-94666666D02*
X141601950Y-94552381D01*
X141601950Y-94552381D02*
X141640045Y-94514285D01*
X142363855Y-93752381D02*
X142363855Y-94209524D01*
X142363855Y-93980952D02*
X141563855Y-93980952D01*
X141563855Y-93980952D02*
X141678140Y-94057143D01*
X141678140Y-94057143D02*
X141754331Y-94133333D01*
X141754331Y-94133333D02*
X141792426Y-94209524D01*
X141563855Y-93485714D02*
X141563855Y-92952380D01*
X141563855Y-92952380D02*
X142363855Y-93295238D01*
X147985714Y-101787664D02*
X147947618Y-101825760D01*
X147947618Y-101825760D02*
X147833333Y-101863855D01*
X147833333Y-101863855D02*
X147757142Y-101863855D01*
X147757142Y-101863855D02*
X147642856Y-101825760D01*
X147642856Y-101825760D02*
X147566666Y-101749569D01*
X147566666Y-101749569D02*
X147528571Y-101673379D01*
X147528571Y-101673379D02*
X147490475Y-101520998D01*
X147490475Y-101520998D02*
X147490475Y-101406712D01*
X147490475Y-101406712D02*
X147528571Y-101254331D01*
X147528571Y-101254331D02*
X147566666Y-101178140D01*
X147566666Y-101178140D02*
X147642856Y-101101950D01*
X147642856Y-101101950D02*
X147757142Y-101063855D01*
X147757142Y-101063855D02*
X147833333Y-101063855D01*
X147833333Y-101063855D02*
X147947618Y-101101950D01*
X147947618Y-101101950D02*
X147985714Y-101140045D01*
X148747618Y-101863855D02*
X148290475Y-101863855D01*
X148519047Y-101863855D02*
X148519047Y-101063855D01*
X148519047Y-101063855D02*
X148442856Y-101178140D01*
X148442856Y-101178140D02*
X148366666Y-101254331D01*
X148366666Y-101254331D02*
X148290475Y-101292426D01*
X149014285Y-101063855D02*
X149509523Y-101063855D01*
X149509523Y-101063855D02*
X149242857Y-101368617D01*
X149242857Y-101368617D02*
X149357142Y-101368617D01*
X149357142Y-101368617D02*
X149433333Y-101406712D01*
X149433333Y-101406712D02*
X149471428Y-101444807D01*
X149471428Y-101444807D02*
X149509523Y-101520998D01*
X149509523Y-101520998D02*
X149509523Y-101711474D01*
X149509523Y-101711474D02*
X149471428Y-101787664D01*
X149471428Y-101787664D02*
X149433333Y-101825760D01*
X149433333Y-101825760D02*
X149357142Y-101863855D01*
X149357142Y-101863855D02*
X149128571Y-101863855D01*
X149128571Y-101863855D02*
X149052380Y-101825760D01*
X149052380Y-101825760D02*
X149014285Y-101787664D01*
X135437664Y-83264285D02*
X135475760Y-83302381D01*
X135475760Y-83302381D02*
X135513855Y-83416666D01*
X135513855Y-83416666D02*
X135513855Y-83492857D01*
X135513855Y-83492857D02*
X135475760Y-83607143D01*
X135475760Y-83607143D02*
X135399569Y-83683333D01*
X135399569Y-83683333D02*
X135323379Y-83721428D01*
X135323379Y-83721428D02*
X135170998Y-83759524D01*
X135170998Y-83759524D02*
X135056712Y-83759524D01*
X135056712Y-83759524D02*
X134904331Y-83721428D01*
X134904331Y-83721428D02*
X134828140Y-83683333D01*
X134828140Y-83683333D02*
X134751950Y-83607143D01*
X134751950Y-83607143D02*
X134713855Y-83492857D01*
X134713855Y-83492857D02*
X134713855Y-83416666D01*
X134713855Y-83416666D02*
X134751950Y-83302381D01*
X134751950Y-83302381D02*
X134790045Y-83264285D01*
X135513855Y-82502381D02*
X135513855Y-82959524D01*
X135513855Y-82730952D02*
X134713855Y-82730952D01*
X134713855Y-82730952D02*
X134828140Y-82807143D01*
X134828140Y-82807143D02*
X134904331Y-82883333D01*
X134904331Y-82883333D02*
X134942426Y-82959524D01*
X134713855Y-81778571D02*
X134713855Y-82159523D01*
X134713855Y-82159523D02*
X135094807Y-82197619D01*
X135094807Y-82197619D02*
X135056712Y-82159523D01*
X135056712Y-82159523D02*
X135018617Y-82083333D01*
X135018617Y-82083333D02*
X135018617Y-81892857D01*
X135018617Y-81892857D02*
X135056712Y-81816666D01*
X135056712Y-81816666D02*
X135094807Y-81778571D01*
X135094807Y-81778571D02*
X135170998Y-81740476D01*
X135170998Y-81740476D02*
X135361474Y-81740476D01*
X135361474Y-81740476D02*
X135437664Y-81778571D01*
X135437664Y-81778571D02*
X135475760Y-81816666D01*
X135475760Y-81816666D02*
X135513855Y-81892857D01*
X135513855Y-81892857D02*
X135513855Y-82083333D01*
X135513855Y-82083333D02*
X135475760Y-82159523D01*
X135475760Y-82159523D02*
X135437664Y-82197619D01*
X142613855Y-83633332D02*
X142232902Y-83899999D01*
X142613855Y-84090475D02*
X141813855Y-84090475D01*
X141813855Y-84090475D02*
X141813855Y-83785713D01*
X141813855Y-83785713D02*
X141851950Y-83709523D01*
X141851950Y-83709523D02*
X141890045Y-83671428D01*
X141890045Y-83671428D02*
X141966236Y-83633332D01*
X141966236Y-83633332D02*
X142080521Y-83633332D01*
X142080521Y-83633332D02*
X142156712Y-83671428D01*
X142156712Y-83671428D02*
X142194807Y-83709523D01*
X142194807Y-83709523D02*
X142232902Y-83785713D01*
X142232902Y-83785713D02*
X142232902Y-84090475D01*
X142080521Y-82947618D02*
X142613855Y-82947618D01*
X141775760Y-83138094D02*
X142347188Y-83328571D01*
X142347188Y-83328571D02*
X142347188Y-82833332D01*
X135037664Y-111883332D02*
X135075760Y-111921428D01*
X135075760Y-111921428D02*
X135113855Y-112035713D01*
X135113855Y-112035713D02*
X135113855Y-112111904D01*
X135113855Y-112111904D02*
X135075760Y-112226190D01*
X135075760Y-112226190D02*
X134999569Y-112302380D01*
X134999569Y-112302380D02*
X134923379Y-112340475D01*
X134923379Y-112340475D02*
X134770998Y-112378571D01*
X134770998Y-112378571D02*
X134656712Y-112378571D01*
X134656712Y-112378571D02*
X134504331Y-112340475D01*
X134504331Y-112340475D02*
X134428140Y-112302380D01*
X134428140Y-112302380D02*
X134351950Y-112226190D01*
X134351950Y-112226190D02*
X134313855Y-112111904D01*
X134313855Y-112111904D02*
X134313855Y-112035713D01*
X134313855Y-112035713D02*
X134351950Y-111921428D01*
X134351950Y-111921428D02*
X134390045Y-111883332D01*
X134313855Y-111616666D02*
X134313855Y-111083332D01*
X134313855Y-111083332D02*
X135113855Y-111426190D01*
X133408760Y-127333332D02*
X133456379Y-127190475D01*
X133456379Y-127190475D02*
X133456379Y-126952380D01*
X133456379Y-126952380D02*
X133408760Y-126857142D01*
X133408760Y-126857142D02*
X133361140Y-126809523D01*
X133361140Y-126809523D02*
X133265902Y-126761904D01*
X133265902Y-126761904D02*
X133170664Y-126761904D01*
X133170664Y-126761904D02*
X133075426Y-126809523D01*
X133075426Y-126809523D02*
X133027807Y-126857142D01*
X133027807Y-126857142D02*
X132980188Y-126952380D01*
X132980188Y-126952380D02*
X132932569Y-127142856D01*
X132932569Y-127142856D02*
X132884950Y-127238094D01*
X132884950Y-127238094D02*
X132837331Y-127285713D01*
X132837331Y-127285713D02*
X132742093Y-127333332D01*
X132742093Y-127333332D02*
X132646855Y-127333332D01*
X132646855Y-127333332D02*
X132551617Y-127285713D01*
X132551617Y-127285713D02*
X132503998Y-127238094D01*
X132503998Y-127238094D02*
X132456379Y-127142856D01*
X132456379Y-127142856D02*
X132456379Y-126904761D01*
X132456379Y-126904761D02*
X132503998Y-126761904D01*
X132456379Y-126428570D02*
X133456379Y-126190475D01*
X133456379Y-126190475D02*
X132742093Y-125999999D01*
X132742093Y-125999999D02*
X133456379Y-125809523D01*
X133456379Y-125809523D02*
X132456379Y-125571428D01*
X132551617Y-125238094D02*
X132503998Y-125190475D01*
X132503998Y-125190475D02*
X132456379Y-125095237D01*
X132456379Y-125095237D02*
X132456379Y-124857142D01*
X132456379Y-124857142D02*
X132503998Y-124761904D01*
X132503998Y-124761904D02*
X132551617Y-124714285D01*
X132551617Y-124714285D02*
X132646855Y-124666666D01*
X132646855Y-124666666D02*
X132742093Y-124666666D01*
X132742093Y-124666666D02*
X132884950Y-124714285D01*
X132884950Y-124714285D02*
X133456379Y-125285713D01*
X133456379Y-125285713D02*
X133456379Y-124666666D01*
X144037664Y-113314285D02*
X144075760Y-113352381D01*
X144075760Y-113352381D02*
X144113855Y-113466666D01*
X144113855Y-113466666D02*
X144113855Y-113542857D01*
X144113855Y-113542857D02*
X144075760Y-113657143D01*
X144075760Y-113657143D02*
X143999569Y-113733333D01*
X143999569Y-113733333D02*
X143923379Y-113771428D01*
X143923379Y-113771428D02*
X143770998Y-113809524D01*
X143770998Y-113809524D02*
X143656712Y-113809524D01*
X143656712Y-113809524D02*
X143504331Y-113771428D01*
X143504331Y-113771428D02*
X143428140Y-113733333D01*
X143428140Y-113733333D02*
X143351950Y-113657143D01*
X143351950Y-113657143D02*
X143313855Y-113542857D01*
X143313855Y-113542857D02*
X143313855Y-113466666D01*
X143313855Y-113466666D02*
X143351950Y-113352381D01*
X143351950Y-113352381D02*
X143390045Y-113314285D01*
X144113855Y-112552381D02*
X144113855Y-113009524D01*
X144113855Y-112780952D02*
X143313855Y-112780952D01*
X143313855Y-112780952D02*
X143428140Y-112857143D01*
X143428140Y-112857143D02*
X143504331Y-112933333D01*
X143504331Y-112933333D02*
X143542426Y-113009524D01*
X143390045Y-112247619D02*
X143351950Y-112209523D01*
X143351950Y-112209523D02*
X143313855Y-112133333D01*
X143313855Y-112133333D02*
X143313855Y-111942857D01*
X143313855Y-111942857D02*
X143351950Y-111866666D01*
X143351950Y-111866666D02*
X143390045Y-111828571D01*
X143390045Y-111828571D02*
X143466236Y-111790476D01*
X143466236Y-111790476D02*
X143542426Y-111790476D01*
X143542426Y-111790476D02*
X143656712Y-111828571D01*
X143656712Y-111828571D02*
X144113855Y-112285714D01*
X144113855Y-112285714D02*
X144113855Y-111790476D01*
X145287664Y-87014285D02*
X145325760Y-87052381D01*
X145325760Y-87052381D02*
X145363855Y-87166666D01*
X145363855Y-87166666D02*
X145363855Y-87242857D01*
X145363855Y-87242857D02*
X145325760Y-87357143D01*
X145325760Y-87357143D02*
X145249569Y-87433333D01*
X145249569Y-87433333D02*
X145173379Y-87471428D01*
X145173379Y-87471428D02*
X145020998Y-87509524D01*
X145020998Y-87509524D02*
X144906712Y-87509524D01*
X144906712Y-87509524D02*
X144754331Y-87471428D01*
X144754331Y-87471428D02*
X144678140Y-87433333D01*
X144678140Y-87433333D02*
X144601950Y-87357143D01*
X144601950Y-87357143D02*
X144563855Y-87242857D01*
X144563855Y-87242857D02*
X144563855Y-87166666D01*
X144563855Y-87166666D02*
X144601950Y-87052381D01*
X144601950Y-87052381D02*
X144640045Y-87014285D01*
X145363855Y-86252381D02*
X145363855Y-86709524D01*
X145363855Y-86480952D02*
X144563855Y-86480952D01*
X144563855Y-86480952D02*
X144678140Y-86557143D01*
X144678140Y-86557143D02*
X144754331Y-86633333D01*
X144754331Y-86633333D02*
X144792426Y-86709524D01*
X144906712Y-85795238D02*
X144868617Y-85871428D01*
X144868617Y-85871428D02*
X144830521Y-85909523D01*
X144830521Y-85909523D02*
X144754331Y-85947619D01*
X144754331Y-85947619D02*
X144716236Y-85947619D01*
X144716236Y-85947619D02*
X144640045Y-85909523D01*
X144640045Y-85909523D02*
X144601950Y-85871428D01*
X144601950Y-85871428D02*
X144563855Y-85795238D01*
X144563855Y-85795238D02*
X144563855Y-85642857D01*
X144563855Y-85642857D02*
X144601950Y-85566666D01*
X144601950Y-85566666D02*
X144640045Y-85528571D01*
X144640045Y-85528571D02*
X144716236Y-85490476D01*
X144716236Y-85490476D02*
X144754331Y-85490476D01*
X144754331Y-85490476D02*
X144830521Y-85528571D01*
X144830521Y-85528571D02*
X144868617Y-85566666D01*
X144868617Y-85566666D02*
X144906712Y-85642857D01*
X144906712Y-85642857D02*
X144906712Y-85795238D01*
X144906712Y-85795238D02*
X144944807Y-85871428D01*
X144944807Y-85871428D02*
X144982902Y-85909523D01*
X144982902Y-85909523D02*
X145059093Y-85947619D01*
X145059093Y-85947619D02*
X145211474Y-85947619D01*
X145211474Y-85947619D02*
X145287664Y-85909523D01*
X145287664Y-85909523D02*
X145325760Y-85871428D01*
X145325760Y-85871428D02*
X145363855Y-85795238D01*
X145363855Y-85795238D02*
X145363855Y-85642857D01*
X145363855Y-85642857D02*
X145325760Y-85566666D01*
X145325760Y-85566666D02*
X145287664Y-85528571D01*
X145287664Y-85528571D02*
X145211474Y-85490476D01*
X145211474Y-85490476D02*
X145059093Y-85490476D01*
X145059093Y-85490476D02*
X144982902Y-85528571D01*
X144982902Y-85528571D02*
X144944807Y-85566666D01*
X144944807Y-85566666D02*
X144906712Y-85642857D01*
X148366667Y-108037664D02*
X148328571Y-108075760D01*
X148328571Y-108075760D02*
X148214286Y-108113855D01*
X148214286Y-108113855D02*
X148138095Y-108113855D01*
X148138095Y-108113855D02*
X148023809Y-108075760D01*
X148023809Y-108075760D02*
X147947619Y-107999569D01*
X147947619Y-107999569D02*
X147909524Y-107923379D01*
X147909524Y-107923379D02*
X147871428Y-107770998D01*
X147871428Y-107770998D02*
X147871428Y-107656712D01*
X147871428Y-107656712D02*
X147909524Y-107504331D01*
X147909524Y-107504331D02*
X147947619Y-107428140D01*
X147947619Y-107428140D02*
X148023809Y-107351950D01*
X148023809Y-107351950D02*
X148138095Y-107313855D01*
X148138095Y-107313855D02*
X148214286Y-107313855D01*
X148214286Y-107313855D02*
X148328571Y-107351950D01*
X148328571Y-107351950D02*
X148366667Y-107390045D01*
X148823809Y-107656712D02*
X148747619Y-107618617D01*
X148747619Y-107618617D02*
X148709524Y-107580521D01*
X148709524Y-107580521D02*
X148671428Y-107504331D01*
X148671428Y-107504331D02*
X148671428Y-107466236D01*
X148671428Y-107466236D02*
X148709524Y-107390045D01*
X148709524Y-107390045D02*
X148747619Y-107351950D01*
X148747619Y-107351950D02*
X148823809Y-107313855D01*
X148823809Y-107313855D02*
X148976190Y-107313855D01*
X148976190Y-107313855D02*
X149052381Y-107351950D01*
X149052381Y-107351950D02*
X149090476Y-107390045D01*
X149090476Y-107390045D02*
X149128571Y-107466236D01*
X149128571Y-107466236D02*
X149128571Y-107504331D01*
X149128571Y-107504331D02*
X149090476Y-107580521D01*
X149090476Y-107580521D02*
X149052381Y-107618617D01*
X149052381Y-107618617D02*
X148976190Y-107656712D01*
X148976190Y-107656712D02*
X148823809Y-107656712D01*
X148823809Y-107656712D02*
X148747619Y-107694807D01*
X148747619Y-107694807D02*
X148709524Y-107732902D01*
X148709524Y-107732902D02*
X148671428Y-107809093D01*
X148671428Y-107809093D02*
X148671428Y-107961474D01*
X148671428Y-107961474D02*
X148709524Y-108037664D01*
X148709524Y-108037664D02*
X148747619Y-108075760D01*
X148747619Y-108075760D02*
X148823809Y-108113855D01*
X148823809Y-108113855D02*
X148976190Y-108113855D01*
X148976190Y-108113855D02*
X149052381Y-108075760D01*
X149052381Y-108075760D02*
X149090476Y-108037664D01*
X149090476Y-108037664D02*
X149128571Y-107961474D01*
X149128571Y-107961474D02*
X149128571Y-107809093D01*
X149128571Y-107809093D02*
X149090476Y-107732902D01*
X149090476Y-107732902D02*
X149052381Y-107694807D01*
X149052381Y-107694807D02*
X148976190Y-107656712D01*
X148363855Y-84133332D02*
X147982902Y-84399999D01*
X148363855Y-84590475D02*
X147563855Y-84590475D01*
X147563855Y-84590475D02*
X147563855Y-84285713D01*
X147563855Y-84285713D02*
X147601950Y-84209523D01*
X147601950Y-84209523D02*
X147640045Y-84171428D01*
X147640045Y-84171428D02*
X147716236Y-84133332D01*
X147716236Y-84133332D02*
X147830521Y-84133332D01*
X147830521Y-84133332D02*
X147906712Y-84171428D01*
X147906712Y-84171428D02*
X147944807Y-84209523D01*
X147944807Y-84209523D02*
X147982902Y-84285713D01*
X147982902Y-84285713D02*
X147982902Y-84590475D01*
X147563855Y-83447618D02*
X147563855Y-83599999D01*
X147563855Y-83599999D02*
X147601950Y-83676190D01*
X147601950Y-83676190D02*
X147640045Y-83714285D01*
X147640045Y-83714285D02*
X147754331Y-83790475D01*
X147754331Y-83790475D02*
X147906712Y-83828571D01*
X147906712Y-83828571D02*
X148211474Y-83828571D01*
X148211474Y-83828571D02*
X148287664Y-83790475D01*
X148287664Y-83790475D02*
X148325760Y-83752380D01*
X148325760Y-83752380D02*
X148363855Y-83676190D01*
X148363855Y-83676190D02*
X148363855Y-83523809D01*
X148363855Y-83523809D02*
X148325760Y-83447618D01*
X148325760Y-83447618D02*
X148287664Y-83409523D01*
X148287664Y-83409523D02*
X148211474Y-83371428D01*
X148211474Y-83371428D02*
X148020998Y-83371428D01*
X148020998Y-83371428D02*
X147944807Y-83409523D01*
X147944807Y-83409523D02*
X147906712Y-83447618D01*
X147906712Y-83447618D02*
X147868617Y-83523809D01*
X147868617Y-83523809D02*
X147868617Y-83676190D01*
X147868617Y-83676190D02*
X147906712Y-83752380D01*
X147906712Y-83752380D02*
X147944807Y-83790475D01*
X147944807Y-83790475D02*
X148020998Y-83828571D01*
X139390476Y-96313855D02*
X139390476Y-96961474D01*
X139390476Y-96961474D02*
X139428571Y-97037664D01*
X139428571Y-97037664D02*
X139466666Y-97075760D01*
X139466666Y-97075760D02*
X139542857Y-97113855D01*
X139542857Y-97113855D02*
X139695238Y-97113855D01*
X139695238Y-97113855D02*
X139771428Y-97075760D01*
X139771428Y-97075760D02*
X139809523Y-97037664D01*
X139809523Y-97037664D02*
X139847619Y-96961474D01*
X139847619Y-96961474D02*
X139847619Y-96313855D01*
X140190475Y-96390045D02*
X140228571Y-96351950D01*
X140228571Y-96351950D02*
X140304761Y-96313855D01*
X140304761Y-96313855D02*
X140495237Y-96313855D01*
X140495237Y-96313855D02*
X140571428Y-96351950D01*
X140571428Y-96351950D02*
X140609523Y-96390045D01*
X140609523Y-96390045D02*
X140647618Y-96466236D01*
X140647618Y-96466236D02*
X140647618Y-96542426D01*
X140647618Y-96542426D02*
X140609523Y-96656712D01*
X140609523Y-96656712D02*
X140152380Y-97113855D01*
X140152380Y-97113855D02*
X140647618Y-97113855D01*
X144287664Y-116633332D02*
X144325760Y-116671428D01*
X144325760Y-116671428D02*
X144363855Y-116785713D01*
X144363855Y-116785713D02*
X144363855Y-116861904D01*
X144363855Y-116861904D02*
X144325760Y-116976190D01*
X144325760Y-116976190D02*
X144249569Y-117052380D01*
X144249569Y-117052380D02*
X144173379Y-117090475D01*
X144173379Y-117090475D02*
X144020998Y-117128571D01*
X144020998Y-117128571D02*
X143906712Y-117128571D01*
X143906712Y-117128571D02*
X143754331Y-117090475D01*
X143754331Y-117090475D02*
X143678140Y-117052380D01*
X143678140Y-117052380D02*
X143601950Y-116976190D01*
X143601950Y-116976190D02*
X143563855Y-116861904D01*
X143563855Y-116861904D02*
X143563855Y-116785713D01*
X143563855Y-116785713D02*
X143601950Y-116671428D01*
X143601950Y-116671428D02*
X143640045Y-116633332D01*
X143563855Y-116366666D02*
X143563855Y-115871428D01*
X143563855Y-115871428D02*
X143868617Y-116138094D01*
X143868617Y-116138094D02*
X143868617Y-116023809D01*
X143868617Y-116023809D02*
X143906712Y-115947618D01*
X143906712Y-115947618D02*
X143944807Y-115909523D01*
X143944807Y-115909523D02*
X144020998Y-115871428D01*
X144020998Y-115871428D02*
X144211474Y-115871428D01*
X144211474Y-115871428D02*
X144287664Y-115909523D01*
X144287664Y-115909523D02*
X144325760Y-115947618D01*
X144325760Y-115947618D02*
X144363855Y-116023809D01*
X144363855Y-116023809D02*
X144363855Y-116252380D01*
X144363855Y-116252380D02*
X144325760Y-116328571D01*
X144325760Y-116328571D02*
X144287664Y-116366666D01*
X139390476Y-102563855D02*
X139390476Y-103211474D01*
X139390476Y-103211474D02*
X139428571Y-103287664D01*
X139428571Y-103287664D02*
X139466666Y-103325760D01*
X139466666Y-103325760D02*
X139542857Y-103363855D01*
X139542857Y-103363855D02*
X139695238Y-103363855D01*
X139695238Y-103363855D02*
X139771428Y-103325760D01*
X139771428Y-103325760D02*
X139809523Y-103287664D01*
X139809523Y-103287664D02*
X139847619Y-103211474D01*
X139847619Y-103211474D02*
X139847619Y-102563855D01*
X140647618Y-103363855D02*
X140190475Y-103363855D01*
X140419047Y-103363855D02*
X140419047Y-102563855D01*
X140419047Y-102563855D02*
X140342856Y-102678140D01*
X140342856Y-102678140D02*
X140266666Y-102754331D01*
X140266666Y-102754331D02*
X140190475Y-102792426D01*
D12*
X142042580Y-86933333D02*
X142042580Y-86457143D01*
X142042580Y-86457143D02*
X143042580Y-86457143D01*
X142042580Y-87790476D02*
X142042580Y-87219048D01*
X142042580Y-87504762D02*
X143042580Y-87504762D01*
X143042580Y-87504762D02*
X142899723Y-87409524D01*
X142899723Y-87409524D02*
X142804485Y-87314286D01*
X142804485Y-87314286D02*
X142756866Y-87219048D01*
D10*
X140287664Y-94514285D02*
X140325760Y-94552381D01*
X140325760Y-94552381D02*
X140363855Y-94666666D01*
X140363855Y-94666666D02*
X140363855Y-94742857D01*
X140363855Y-94742857D02*
X140325760Y-94857143D01*
X140325760Y-94857143D02*
X140249569Y-94933333D01*
X140249569Y-94933333D02*
X140173379Y-94971428D01*
X140173379Y-94971428D02*
X140020998Y-95009524D01*
X140020998Y-95009524D02*
X139906712Y-95009524D01*
X139906712Y-95009524D02*
X139754331Y-94971428D01*
X139754331Y-94971428D02*
X139678140Y-94933333D01*
X139678140Y-94933333D02*
X139601950Y-94857143D01*
X139601950Y-94857143D02*
X139563855Y-94742857D01*
X139563855Y-94742857D02*
X139563855Y-94666666D01*
X139563855Y-94666666D02*
X139601950Y-94552381D01*
X139601950Y-94552381D02*
X139640045Y-94514285D01*
X140363855Y-93752381D02*
X140363855Y-94209524D01*
X140363855Y-93980952D02*
X139563855Y-93980952D01*
X139563855Y-93980952D02*
X139678140Y-94057143D01*
X139678140Y-94057143D02*
X139754331Y-94133333D01*
X139754331Y-94133333D02*
X139792426Y-94209524D01*
X139563855Y-93066666D02*
X139563855Y-93219047D01*
X139563855Y-93219047D02*
X139601950Y-93295238D01*
X139601950Y-93295238D02*
X139640045Y-93333333D01*
X139640045Y-93333333D02*
X139754331Y-93409523D01*
X139754331Y-93409523D02*
X139906712Y-93447619D01*
X139906712Y-93447619D02*
X140211474Y-93447619D01*
X140211474Y-93447619D02*
X140287664Y-93409523D01*
X140287664Y-93409523D02*
X140325760Y-93371428D01*
X140325760Y-93371428D02*
X140363855Y-93295238D01*
X140363855Y-93295238D02*
X140363855Y-93142857D01*
X140363855Y-93142857D02*
X140325760Y-93066666D01*
X140325760Y-93066666D02*
X140287664Y-93028571D01*
X140287664Y-93028571D02*
X140211474Y-92990476D01*
X140211474Y-92990476D02*
X140020998Y-92990476D01*
X140020998Y-92990476D02*
X139944807Y-93028571D01*
X139944807Y-93028571D02*
X139906712Y-93066666D01*
X139906712Y-93066666D02*
X139868617Y-93142857D01*
X139868617Y-93142857D02*
X139868617Y-93295238D01*
X139868617Y-93295238D02*
X139906712Y-93371428D01*
X139906712Y-93371428D02*
X139944807Y-93409523D01*
X139944807Y-93409523D02*
X140020998Y-93447619D01*
X136787664Y-104114285D02*
X136825760Y-104152381D01*
X136825760Y-104152381D02*
X136863855Y-104266666D01*
X136863855Y-104266666D02*
X136863855Y-104342857D01*
X136863855Y-104342857D02*
X136825760Y-104457143D01*
X136825760Y-104457143D02*
X136749569Y-104533333D01*
X136749569Y-104533333D02*
X136673379Y-104571428D01*
X136673379Y-104571428D02*
X136520998Y-104609524D01*
X136520998Y-104609524D02*
X136406712Y-104609524D01*
X136406712Y-104609524D02*
X136254331Y-104571428D01*
X136254331Y-104571428D02*
X136178140Y-104533333D01*
X136178140Y-104533333D02*
X136101950Y-104457143D01*
X136101950Y-104457143D02*
X136063855Y-104342857D01*
X136063855Y-104342857D02*
X136063855Y-104266666D01*
X136063855Y-104266666D02*
X136101950Y-104152381D01*
X136101950Y-104152381D02*
X136140045Y-104114285D01*
X136863855Y-103352381D02*
X136863855Y-103809524D01*
X136863855Y-103580952D02*
X136063855Y-103580952D01*
X136063855Y-103580952D02*
X136178140Y-103657143D01*
X136178140Y-103657143D02*
X136254331Y-103733333D01*
X136254331Y-103733333D02*
X136292426Y-103809524D01*
X136063855Y-102857142D02*
X136063855Y-102780952D01*
X136063855Y-102780952D02*
X136101950Y-102704761D01*
X136101950Y-102704761D02*
X136140045Y-102666666D01*
X136140045Y-102666666D02*
X136216236Y-102628571D01*
X136216236Y-102628571D02*
X136368617Y-102590476D01*
X136368617Y-102590476D02*
X136559093Y-102590476D01*
X136559093Y-102590476D02*
X136711474Y-102628571D01*
X136711474Y-102628571D02*
X136787664Y-102666666D01*
X136787664Y-102666666D02*
X136825760Y-102704761D01*
X136825760Y-102704761D02*
X136863855Y-102780952D01*
X136863855Y-102780952D02*
X136863855Y-102857142D01*
X136863855Y-102857142D02*
X136825760Y-102933333D01*
X136825760Y-102933333D02*
X136787664Y-102971428D01*
X136787664Y-102971428D02*
X136711474Y-103009523D01*
X136711474Y-103009523D02*
X136559093Y-103047619D01*
X136559093Y-103047619D02*
X136368617Y-103047619D01*
X136368617Y-103047619D02*
X136216236Y-103009523D01*
X136216236Y-103009523D02*
X136140045Y-102971428D01*
X136140045Y-102971428D02*
X136101950Y-102933333D01*
X136101950Y-102933333D02*
X136063855Y-102857142D01*
X149240000Y-98607836D02*
X149240000Y-98392164D01*
X149960000Y-98607836D02*
X149960000Y-98392164D01*
X137120000Y-92346359D02*
X137120000Y-92653641D01*
X137880000Y-92346359D02*
X137880000Y-92653641D01*
X142620000Y-101403641D02*
X142620000Y-101096359D01*
X143380000Y-101403641D02*
X143380000Y-101096359D01*
X145595000Y-94270000D02*
X145595000Y-93635000D01*
X146230000Y-94270000D02*
X145595000Y-94270000D01*
D12*
X150497844Y-91102644D02*
X150497844Y-91102644D01*
G75*
G02*
X151197844Y-91802644I-44J-699956D01*
G01*
X151197844Y-94202644D01*
G75*
G02*
X150497844Y-94902644I-695044J-4956D01*
G01*
X146397844Y-94902644D01*
G75*
G02*
X145997844Y-94802644I-44J850044D01*
G01*
X144405909Y-94002644D01*
G75*
G02*
X143797844Y-93002644I518291J1000044D01*
G01*
X143797844Y-93002644D01*
G75*
G02*
X144405909Y-92002644I1126356J44D01*
G01*
X145997844Y-91202644D01*
G75*
G02*
X146397844Y-91102644I424956J-850056D01*
G01*
X150497844Y-91102644D01*
D10*
X143900000Y-123400000D02*
X143900000Y-128600000D01*
X145800000Y-129100000D02*
X148200000Y-129100000D01*
X148200000Y-122900000D02*
X145800000Y-122900000D01*
X150100000Y-128600000D02*
X150100000Y-123400000D01*
X147492164Y-103840000D02*
X147707836Y-103840000D01*
X147492164Y-104560000D02*
X147707836Y-104560000D01*
X142870000Y-83346359D02*
X142870000Y-83653641D01*
X143630000Y-83346359D02*
X143630000Y-83653641D01*
X136870000Y-118096359D02*
X136870000Y-118403641D01*
X137630000Y-118096359D02*
X137630000Y-118403641D01*
X140500000Y-113400000D02*
X141200000Y-113400000D01*
X141200000Y-116600000D02*
X139800000Y-116600000D01*
X141640000Y-101357836D02*
X141640000Y-101142164D01*
X142360000Y-101357836D02*
X142360000Y-101142164D01*
X145040000Y-114642164D02*
X145040000Y-114857836D01*
X145760000Y-114642164D02*
X145760000Y-114857836D01*
X145892164Y-102390000D02*
X146107836Y-102390000D01*
X145892164Y-103110000D02*
X146107836Y-103110000D01*
X147100000Y-97640000D02*
X148600000Y-97640000D01*
X147100000Y-99360000D02*
X148600000Y-99360000D01*
X146650000Y-97900000D02*
X146370000Y-97900000D01*
X146650000Y-97620000D01*
X146650000Y-97900000D01*
G36*
X146650000Y-97900000D02*
G01*
X146370000Y-97900000D01*
X146650000Y-97620000D01*
X146650000Y-97900000D01*
G37*
X135390000Y-92607836D02*
X135390000Y-92392164D01*
X136110000Y-92607836D02*
X136110000Y-92392164D01*
X145820000Y-88353641D02*
X145820000Y-88046359D01*
X146580000Y-88353641D02*
X146580000Y-88046359D01*
X138870000Y-83346359D02*
X138870000Y-83653641D01*
X139630000Y-83346359D02*
X139630000Y-83653641D01*
X144346359Y-97870000D02*
X144653641Y-97870000D01*
X144346359Y-98630000D02*
X144653641Y-98630000D01*
X135107836Y-107890000D02*
X134892164Y-107890000D01*
X135107836Y-108610000D02*
X134892164Y-108610000D01*
D11*
X137200000Y-71915000D02*
X137200000Y-72515000D01*
X137200000Y-74715000D02*
X137200000Y-76715000D01*
X147200000Y-71915000D02*
X147200000Y-72515000D01*
X147200000Y-74715000D02*
X147200000Y-76715000D01*
D10*
X142390000Y-114642164D02*
X142390000Y-114857836D01*
X143110000Y-114642164D02*
X143110000Y-114857836D01*
X141140000Y-85890000D02*
X141490000Y-85890000D01*
X141140000Y-88610000D02*
X141140000Y-88260000D01*
X141490000Y-88610000D02*
X141140000Y-88610000D01*
X143510000Y-85890000D02*
X143860000Y-85890000D01*
X143860000Y-85890000D02*
X143860000Y-86240000D01*
X143860000Y-88260000D02*
X143860000Y-88610000D01*
X143860000Y-88610000D02*
X143510000Y-88610000D01*
X141265000Y-90838748D02*
X141265000Y-91361252D01*
X142735000Y-90838748D02*
X142735000Y-91361252D01*
X145892164Y-101390000D02*
X146107836Y-101390000D01*
X145892164Y-102110000D02*
X146107836Y-102110000D01*
X133015000Y-82488748D02*
X133015000Y-83011252D01*
X134485000Y-82488748D02*
X134485000Y-83011252D01*
X140870000Y-83346359D02*
X140870000Y-83653641D01*
X141630000Y-83346359D02*
X141630000Y-83653641D01*
X135390000Y-111857836D02*
X135390000Y-111642164D01*
X136110000Y-111857836D02*
X136110000Y-111642164D01*
X133900000Y-123400000D02*
X133900000Y-128600000D01*
X135800000Y-129100000D02*
X138200000Y-129100000D01*
X138200000Y-122900000D02*
X135800000Y-122900000D01*
X140100000Y-128600000D02*
X140100000Y-123400000D01*
X142390000Y-112692164D02*
X142390000Y-112907836D01*
X143110000Y-112692164D02*
X143110000Y-112907836D01*
X144390000Y-88642164D02*
X144390000Y-88857836D01*
X145110000Y-88642164D02*
X145110000Y-88857836D01*
X148392164Y-108390000D02*
X148607836Y-108390000D01*
X148392164Y-109110000D02*
X148607836Y-109110000D01*
X146620000Y-83846359D02*
X146620000Y-84153641D01*
X147380000Y-83846359D02*
X147380000Y-84153641D01*
X138500000Y-99600000D02*
X141500000Y-99600000D01*
X140000000Y-97400000D02*
X141500000Y-97400000D01*
X143640000Y-114642164D02*
X143640000Y-114857836D01*
X144360000Y-114642164D02*
X144360000Y-114857836D01*
X138590000Y-111125000D02*
X138590000Y-110475000D01*
X139240000Y-103905000D02*
X138590000Y-103905000D01*
X139240000Y-111125000D02*
X138590000Y-111125000D01*
X145160000Y-103905000D02*
X145810000Y-103905000D01*
X145160000Y-111125000D02*
X145810000Y-111125000D01*
X145810000Y-103905000D02*
X145810000Y-104555000D01*
X145810000Y-111125000D02*
X145810000Y-110475000D01*
D12*
X137750000Y-85100000D02*
X137750000Y-89100000D01*
X140650000Y-85100000D02*
X140650000Y-89100000D01*
D10*
X139265000Y-90838748D02*
X139265000Y-91361252D01*
X140735000Y-90838748D02*
X140735000Y-91361252D01*
X137140000Y-103707836D02*
X137140000Y-103492164D01*
X137860000Y-103707836D02*
X137860000Y-103492164D01*
M02*
