G04 #@! TF.GenerationSoftware,KiCad,Pcbnew,8.0.8+1*
G04 #@! TF.CreationDate,2025-02-19T14:50:03+01:00*
G04 #@! TF.ProjectId,rp2040,72703230-3430-42e6-9b69-6361645f7063,rev?*
G04 #@! TF.SameCoordinates,Original*
G04 #@! TF.FileFunction,Legend,Bot*
G04 #@! TF.FilePolarity,Positive*
%FSLAX46Y46*%
G04 Gerber Fmt 4.6, Leading zero omitted, Abs format (unit mm)*
G04 Created by KiCad (PCBNEW 8.0.8+1) date 2025-02-19 14:50:03*
%MOMM*%
%LPD*%
G01*
G04 APERTURE LIST*
%ADD10C,0.150000*%
%ADD11C,0.120000*%
G04 APERTURE END LIST*
D10*
X129533333Y-78514819D02*
X129533333Y-79229104D01*
X129533333Y-79229104D02*
X129580952Y-79371961D01*
X129580952Y-79371961D02*
X129676190Y-79467200D01*
X129676190Y-79467200D02*
X129819047Y-79514819D01*
X129819047Y-79514819D02*
X129914285Y-79514819D01*
X128533333Y-79514819D02*
X129104761Y-79514819D01*
X128819047Y-79514819D02*
X128819047Y-78514819D01*
X128819047Y-78514819D02*
X128914285Y-78657676D01*
X128914285Y-78657676D02*
X129009523Y-78752914D01*
X129009523Y-78752914D02*
X129104761Y-78800533D01*
X155533333Y-131784819D02*
X155533333Y-132499104D01*
X155533333Y-132499104D02*
X155580952Y-132641961D01*
X155580952Y-132641961D02*
X155676190Y-132737200D01*
X155676190Y-132737200D02*
X155819047Y-132784819D01*
X155819047Y-132784819D02*
X155914285Y-132784819D01*
X154628571Y-132118152D02*
X154628571Y-132784819D01*
X154866666Y-131737200D02*
X155104761Y-132451485D01*
X155104761Y-132451485D02*
X154485714Y-132451485D01*
D11*
X127870000Y-82660000D02*
X130530000Y-82660000D01*
X127870000Y-130980000D02*
X127870000Y-82660000D01*
X127870000Y-130980000D02*
X130530000Y-130980000D01*
X129200000Y-80060000D02*
X130530000Y-80060000D01*
X130530000Y-80060000D02*
X130530000Y-81390000D01*
X130530000Y-130980000D02*
X130530000Y-82660000D01*
X153870000Y-80410000D02*
X153870000Y-128730000D01*
X153870000Y-131330000D02*
X153870000Y-130000000D01*
X155200000Y-131330000D02*
X153870000Y-131330000D01*
X156530000Y-80410000D02*
X153870000Y-80410000D01*
X156530000Y-80410000D02*
X156530000Y-128730000D01*
X156530000Y-128730000D02*
X153870000Y-128730000D01*
M02*
