G04 #@! TF.GenerationSoftware,KiCad,Pcbnew,8.0.8+1*
G04 #@! TF.CreationDate,2025-02-19T14:50:03+01:00*
G04 #@! TF.ProjectId,rp2040,72703230-3430-42e6-9b69-6361645f7063,rev?*
G04 #@! TF.SameCoordinates,Original*
G04 #@! TF.FileFunction,Paste,Top*
G04 #@! TF.FilePolarity,Positive*
%FSLAX46Y46*%
G04 Gerber Fmt 4.6, Leading zero omitted, Abs format (unit mm)*
G04 Created by KiCad (PCBNEW 8.0.8+1) date 2025-02-19 14:50:03*
%MOMM*%
%LPD*%
G01*
G04 APERTURE LIST*
G04 Aperture macros list*
%AMRoundRect*
0 Rectangle with rounded corners*
0 $1 Rounding radius*
0 $2 $3 $4 $5 $6 $7 $8 $9 X,Y pos of 4 corners*
0 Add a 4 corners polygon primitive as box body*
4,1,4,$2,$3,$4,$5,$6,$7,$8,$9,$2,$3,0*
0 Add four circle primitives for the rounded corners*
1,1,$1+$1,$2,$3*
1,1,$1+$1,$4,$5*
1,1,$1+$1,$6,$7*
1,1,$1+$1,$8,$9*
0 Add four rect primitives between the rounded corners*
20,1,$1+$1,$2,$3,$4,$5,0*
20,1,$1+$1,$4,$5,$6,$7,0*
20,1,$1+$1,$6,$7,$8,$9,0*
20,1,$1+$1,$8,$9,$2,$3,0*%
G04 Aperture macros list end*
%ADD10RoundRect,0.125000X0.175000X-0.125000X0.175000X0.125000X-0.175000X0.125000X-0.175000X-0.125000X0*%
%ADD11RoundRect,0.125000X-0.175000X0.125000X-0.175000X-0.125000X0.175000X-0.125000X0.175000X0.125000X0*%
%ADD12RoundRect,0.125000X-0.125000X-0.175000X0.125000X-0.175000X0.125000X0.175000X-0.125000X0.175000X0*%
%ADD13R,1.900000X0.400000*%
%ADD14R,0.500000X0.300000*%
%ADD15RoundRect,0.125000X0.125000X0.175000X-0.125000X0.175000X-0.125000X-0.175000X0.125000X-0.175000X0*%
%ADD16R,0.300000X0.950000*%
%ADD17RoundRect,0.062500X-0.237500X-0.062500X0.237500X-0.062500X0.237500X0.062500X-0.237500X0.062500X0*%
%ADD18RoundRect,0.062500X-0.062500X-0.237500X0.062500X-0.237500X0.062500X0.237500X-0.062500X0.237500X0*%
%ADD19RoundRect,0.250000X-0.450000X0.250000X-0.450000X-0.250000X0.450000X-0.250000X0.450000X0.250000X0*%
%ADD20R,0.900000X0.300000*%
%ADD21R,0.250000X1.650000*%
%ADD22RoundRect,0.249999X-0.395001X-0.395001X0.395001X-0.395001X0.395001X0.395001X-0.395001X0.395001X0*%
%ADD23RoundRect,0.050000X-0.387500X-0.050000X0.387500X-0.050000X0.387500X0.050000X-0.387500X0.050000X0*%
%ADD24RoundRect,0.050000X-0.050000X-0.387500X0.050000X-0.387500X0.050000X0.387500X-0.050000X0.387500X0*%
%ADD25RoundRect,0.250000X-1.150000X0.250000X-1.150000X-0.250000X1.150000X-0.250000X1.150000X0.250000X0*%
G04 APERTURE END LIST*
D10*
X149600000Y-99000000D03*
X149600000Y-98000000D03*
D11*
X137500000Y-92000000D03*
X137500000Y-93000000D03*
D10*
X143000000Y-101750000D03*
X143000000Y-100750000D03*
D12*
X147100000Y-104200000D03*
X148100000Y-104200000D03*
D11*
X143250000Y-83000000D03*
X143250000Y-84000000D03*
X137250000Y-117750000D03*
X137250000Y-118750000D03*
D13*
X140500000Y-113800000D03*
X140500000Y-115000000D03*
X140500000Y-116200000D03*
D10*
X142000000Y-101750000D03*
X142000000Y-100750000D03*
D11*
X145400000Y-114250000D03*
X145400000Y-115250000D03*
D12*
X145500000Y-102750000D03*
X146500000Y-102750000D03*
D14*
X147150000Y-98100000D03*
X147150000Y-98900000D03*
X148550000Y-98900000D03*
X148550000Y-98100000D03*
D10*
X135750000Y-93000000D03*
X135750000Y-92000000D03*
X146200000Y-88700000D03*
X146200000Y-87700000D03*
D11*
X139250000Y-83000000D03*
X139250000Y-84000000D03*
D12*
X144000000Y-98250000D03*
X145000000Y-98250000D03*
D15*
X135500000Y-108250000D03*
X134500000Y-108250000D03*
D16*
X145550000Y-78815000D03*
X144750000Y-78840000D03*
X143450000Y-78840000D03*
X142450000Y-78840000D03*
X141950000Y-78840000D03*
X140950000Y-78840000D03*
X139650000Y-78840000D03*
X138850000Y-78840000D03*
X139150000Y-78840000D03*
X139950000Y-78840000D03*
X140450000Y-78840000D03*
X141450000Y-78840000D03*
X142950000Y-78840000D03*
X143950000Y-78840000D03*
X144450000Y-78840000D03*
X145250000Y-78815000D03*
D11*
X142750000Y-114250000D03*
X142750000Y-115250000D03*
D17*
X141350000Y-86500000D03*
X141350000Y-87000000D03*
X141350000Y-87500000D03*
X141350000Y-88000000D03*
D18*
X142250000Y-88400000D03*
X142750000Y-88400000D03*
D17*
X143650000Y-88000000D03*
X143650000Y-87500000D03*
X143650000Y-87000000D03*
X143650000Y-86500000D03*
D18*
X142750000Y-86100000D03*
X142250000Y-86100000D03*
D19*
X142000000Y-90100000D03*
X142000000Y-92100000D03*
D12*
X145500000Y-101750000D03*
X146500000Y-101750000D03*
D19*
X133750000Y-81750000D03*
X133750000Y-83750000D03*
D11*
X141250000Y-83000000D03*
X141250000Y-84000000D03*
D10*
X135750000Y-112250000D03*
X135750000Y-111250000D03*
D11*
X142750000Y-112300000D03*
X142750000Y-113300000D03*
X144750000Y-88250000D03*
X144750000Y-89250000D03*
D12*
X148000000Y-108750000D03*
X149000000Y-108750000D03*
D11*
X147000000Y-83500000D03*
X147000000Y-84500000D03*
D20*
X138600000Y-97750000D03*
X138600000Y-98250000D03*
X138600000Y-98750000D03*
X138600000Y-99250000D03*
X141400000Y-99250000D03*
X141400000Y-98750000D03*
X141400000Y-98250000D03*
X141400000Y-97750000D03*
D21*
X140000000Y-98500000D03*
D11*
X144000000Y-114250000D03*
X144000000Y-115250000D03*
D22*
X141400000Y-106715000D03*
X141400000Y-108315000D03*
X143000000Y-106715000D03*
X143000000Y-108315000D03*
D23*
X138762500Y-104915000D03*
X138762500Y-105315000D03*
X138762500Y-105715000D03*
X138762500Y-106115000D03*
X138762500Y-106515000D03*
X138762500Y-106915000D03*
X138762500Y-107315000D03*
X138762500Y-107715000D03*
X138762500Y-108115000D03*
X138762500Y-108515000D03*
X138762500Y-108915000D03*
X138762500Y-109315000D03*
X138762500Y-109715000D03*
X138762500Y-110115000D03*
D24*
X139600000Y-110952500D03*
X140000000Y-110952500D03*
X140400000Y-110952500D03*
X140800000Y-110952500D03*
X141200000Y-110952500D03*
X141600000Y-110952500D03*
X142000000Y-110952500D03*
X142400000Y-110952500D03*
X142800000Y-110952500D03*
X143200000Y-110952500D03*
X143600000Y-110952500D03*
X144000000Y-110952500D03*
X144400000Y-110952500D03*
X144800000Y-110952500D03*
D23*
X145637500Y-110115000D03*
X145637500Y-109715000D03*
X145637500Y-109315000D03*
X145637500Y-108915000D03*
X145637500Y-108515000D03*
X145637500Y-108115000D03*
X145637500Y-107715000D03*
X145637500Y-107315000D03*
X145637500Y-106915000D03*
X145637500Y-106515000D03*
X145637500Y-106115000D03*
X145637500Y-105715000D03*
X145637500Y-105315000D03*
X145637500Y-104915000D03*
D24*
X144800000Y-104077500D03*
X144400000Y-104077500D03*
X144000000Y-104077500D03*
X143600000Y-104077500D03*
X143200000Y-104077500D03*
X142800000Y-104077500D03*
X142400000Y-104077500D03*
X142000000Y-104077500D03*
X141600000Y-104077500D03*
X141200000Y-104077500D03*
X140800000Y-104077500D03*
X140400000Y-104077500D03*
X140000000Y-104077500D03*
X139600000Y-104077500D03*
D25*
X139200000Y-85750000D03*
X139200000Y-88450000D03*
D19*
X140000000Y-90100000D03*
X140000000Y-92100000D03*
D10*
X137500000Y-104100000D03*
X137500000Y-103100000D03*
M02*
